<?xml version="1.0" encoding="UTF-8" standalone="no"?>
<!DOCTYPE svg PUBLIC "-//W3C//DTD SVG 1.1//EN"
 "http://www.w3.org/Graphics/SVG/1.1/DTD/svg11.dtd">
<!-- Generated by graphviz version 6.0.1 (20220911.2005)
 -->
<!-- Title: snakemake_dag Pages: 1 -->
<svg width="2142pt" height="1268pt"
 viewBox="0.00 0.00 2142.11 1268.00" xmlns="http://www.w3.org/2000/svg" xmlns:xlink="http://www.w3.org/1999/xlink">
<g id="graph0" class="graph" transform="scale(1 1) rotate(0) translate(4 1264)">
<title>snakemake_dag</title>
<polygon fill="white" stroke="none" points="-4,4 -4,-1264 2138.11,-1264 2138.11,4 -4,4"/>
<!-- 0 -->
<g id="node1" class="node">
<title>0</title>
<path fill="none" stroke="#56d8d8" stroke-width="2" d="M1154.52,-36C1154.52,-36 1124.52,-36 1124.52,-36 1118.52,-36 1112.52,-30 1112.52,-24 1112.52,-24 1112.52,-12 1112.52,-12 1112.52,-6 1118.52,0 1124.52,0 1124.52,0 1154.52,0 1154.52,0 1160.52,0 1166.52,-6 1166.52,-12 1166.52,-12 1166.52,-24 1166.52,-24 1166.52,-30 1160.52,-36 1154.52,-36"/>
<text text-anchor="middle" x="1139.52" y="-15.5" font-family="sans" font-size="10.00">all</text>
</g>
<!-- 1 -->
<g id="node2" class="node">
<title>1</title>
<path fill="none" stroke="#568ad8" stroke-width="2" d="M632.52,-900C632.52,-900 572.52,-900 572.52,-900 566.52,-900 560.52,-894 560.52,-888 560.52,-888 560.52,-876 560.52,-876 560.52,-870 566.52,-864 572.52,-864 572.52,-864 632.52,-864 632.52,-864 638.52,-864 644.52,-870 644.52,-876 644.52,-876 644.52,-888 644.52,-888 644.52,-894 638.52,-900 632.52,-900"/>
<text text-anchor="middle" x="602.52" y="-879.5" font-family="sans" font-size="10.00">variant_counts</text>
</g>
<!-- 1&#45;&gt;0 -->
<g id="edge3" class="edge">
<title>1&#45;&gt;0</title>
<path fill="none" stroke="grey" stroke-width="2" d="M581.73,-863.99C476.6,-777.61 8.52,-388.47 8.52,-307 8.52,-307 8.52,-307 8.52,-161 8.52,-144.62 -48.99,-135.37 136.52,-72 229.16,-40.36 930.97,-23.45 1102.02,-19.77"/>
<polygon fill="grey" stroke="grey" stroke-width="2" points="1102.13,-23.27 1112.06,-19.56 1101.98,-16.27 1102.13,-23.27"/>
</g>
<!-- 10 -->
<g id="node11" class="node">
<title>10</title>
<path fill="none" stroke="#56d8c9" stroke-width="2" d="M452.02,-828C452.02,-828 353.02,-828 353.02,-828 347.02,-828 341.02,-822 341.02,-816 341.02,-816 341.02,-804 341.02,-804 341.02,-798 347.02,-792 353.02,-792 353.02,-792 452.02,-792 452.02,-792 458.02,-792 464.02,-798 464.02,-804 464.02,-804 464.02,-816 464.02,-816 464.02,-822 458.02,-828 452.02,-828"/>
<text text-anchor="middle" x="402.52" y="-807.5" font-family="sans" font-size="10.00">analyze_variant_counts</text>
</g>
<!-- 1&#45;&gt;10 -->
<g id="edge20" class="edge">
<title>1&#45;&gt;10</title>
<path fill="none" stroke="grey" stroke-width="2" d="M560.11,-866.15C531.22,-856.04 492.61,-842.53 460.83,-831.41"/>
<polygon fill="grey" stroke="grey" stroke-width="2" points="461.8,-828.04 451.21,-828.04 459.49,-834.65 461.8,-828.04"/>
</g>
<!-- 14 -->
<g id="node15" class="node">
<title>14</title>
<path fill="none" stroke="#d6d856" stroke-width="2" d="M822.02,-684C822.02,-684 775.02,-684 775.02,-684 769.02,-684 763.02,-678 763.02,-672 763.02,-672 763.02,-660 763.02,-660 763.02,-654 769.02,-648 775.02,-648 775.02,-648 822.02,-648 822.02,-648 828.02,-648 834.02,-654 834.02,-660 834.02,-660 834.02,-672 834.02,-672 834.02,-678 828.02,-684 822.02,-684"/>
<text text-anchor="middle" x="798.52" y="-663.5" font-family="sans" font-size="10.00">func_scores</text>
</g>
<!-- 1&#45;&gt;14 -->
<g id="edge32" class="edge">
<title>1&#45;&gt;14</title>
<path fill="none" stroke="grey" stroke-width="2" d="M624.92,-863.99C653.89,-841.32 704.97,-799.05 741.52,-756 758.19,-736.38 773.71,-711.53 784.33,-693.08"/>
<polygon fill="grey" stroke="grey" stroke-width="2" points="787.4,-694.76 789.28,-684.33 781.31,-691.32 787.4,-694.76"/>
</g>
<!-- 16 -->
<g id="node17" class="node">
<title>16</title>
<path fill="none" stroke="#567bd8" stroke-width="2" d="M975.02,-684C975.02,-684 924.02,-684 924.02,-684 918.02,-684 912.02,-678 912.02,-672 912.02,-672 912.02,-660 912.02,-660 912.02,-654 918.02,-648 924.02,-648 924.02,-648 975.02,-648 975.02,-648 981.02,-648 987.02,-654 987.02,-660 987.02,-660 987.02,-672 987.02,-672 987.02,-678 981.02,-684 975.02,-684"/>
<text text-anchor="middle" x="949.52" y="-663.5" font-family="sans" font-size="10.00">prob_escape</text>
</g>
<!-- 1&#45;&gt;16 -->
<g id="edge39" class="edge">
<title>1&#45;&gt;16</title>
<path fill="none" stroke="grey" stroke-width="2" d="M636.73,-863.84C656.25,-853.81 681.03,-840.67 702.52,-828 780.99,-781.76 869.7,-722.02 916.51,-689.89"/>
<polygon fill="grey" stroke="grey" stroke-width="2" points="918.5,-692.77 924.75,-684.22 914.53,-687 918.5,-692.77"/>
</g>
<!-- 17 -->
<g id="node18" class="node">
<title>17</title>
<path fill="none" stroke="#c6d856" stroke-width="2" d="M1164.52,-108C1164.52,-108 1114.52,-108 1114.52,-108 1108.52,-108 1102.52,-102 1102.52,-96 1102.52,-96 1102.52,-84 1102.52,-84 1102.52,-78 1108.52,-72 1114.52,-72 1114.52,-72 1164.52,-72 1164.52,-72 1170.52,-72 1176.52,-78 1176.52,-84 1176.52,-84 1176.52,-96 1176.52,-96 1176.52,-102 1170.52,-108 1164.52,-108"/>
<text text-anchor="middle" x="1139.52" y="-87.5" font-family="sans" font-size="10.00">sphinx_build</text>
</g>
<!-- 1&#45;&gt;17 -->
<g id="edge59" class="edge">
<title>1&#45;&gt;17</title>
<path fill="none" stroke="grey" stroke-width="2" d="M590.65,-863.66C583.86,-853.46 575.36,-840.21 568.52,-828 555.5,-804.74 365.48,-421.99 359.52,-396 355.95,-380.4 353.06,-374.64 359.52,-360 417.1,-229.63 466.29,-201.88 596.52,-144 684.76,-104.79 976.87,-94.42 1092.15,-91.82"/>
<polygon fill="grey" stroke="grey" stroke-width="2" points="1092.49,-95.31 1102.41,-91.6 1092.34,-88.31 1092.49,-95.31"/>
</g>
<!-- 27 -->
<g id="node28" class="node">
<title>27</title>
<path fill="none" stroke="#56d87b" stroke-width="2" d="M1009.02,-180C1009.02,-180 966.02,-180 966.02,-180 960.02,-180 954.02,-174 954.02,-168 954.02,-168 954.02,-156 954.02,-156 954.02,-150 960.02,-144 966.02,-144 966.02,-144 1009.02,-144 1009.02,-144 1015.02,-144 1021.02,-150 1021.02,-156 1021.02,-156 1021.02,-168 1021.02,-168 1021.02,-174 1015.02,-180 1009.02,-180"/>
<text text-anchor="middle" x="987.52" y="-159.5" font-family="sans" font-size="10.00">docs_index</text>
</g>
<!-- 1&#45;&gt;27 -->
<g id="edge98" class="edge">
<title>1&#45;&gt;27</title>
<path fill="none" stroke="grey" stroke-width="2" d="M596.61,-863.76C572.85,-794.57 484.89,-539.13 469.52,-504 455.02,-470.85 456.59,-458.1 431.52,-432 409.45,-409.02 385.42,-423.61 369.52,-396 361.54,-382.13 361.1,-373.6 369.52,-360 388.41,-329.49 624.37,-226.98 658.52,-216 757.4,-184.22 879.37,-170.95 943.44,-165.86"/>
<polygon fill="grey" stroke="grey" stroke-width="2" points="943.88,-169.33 953.59,-165.08 943.35,-162.35 943.88,-169.33"/>
</g>
<!-- 2 -->
<g id="node3" class="node">
<title>2</title>
<path fill="none" stroke="#56c9d8" stroke-width="2" d="M638.02,-972C638.02,-972 573.02,-972 573.02,-972 567.02,-972 561.02,-966 561.02,-960 561.02,-960 561.02,-948 561.02,-948 561.02,-942 567.02,-936 573.02,-936 573.02,-936 638.02,-936 638.02,-936 644.02,-936 650.02,-942 650.02,-948 650.02,-948 650.02,-960 650.02,-960 650.02,-966 644.02,-972 638.02,-972"/>
<text text-anchor="middle" x="605.52" y="-951.5" font-family="sans" font-size="10.00">count_barcodes</text>
</g>
<!-- 2&#45;&gt;1 -->
<g id="edge8" class="edge">
<title>2&#45;&gt;1</title>
<path fill="none" stroke="grey" stroke-width="2" d="M604.78,-935.7C604.45,-927.98 604.05,-918.71 603.69,-910.11"/>
<polygon fill="grey" stroke="grey" stroke-width="2" points="607.18,-909.95 603.26,-900.1 600.19,-910.25 607.18,-909.95"/>
</g>
<!-- 2&#45;&gt;10 -->
<g id="edge18" class="edge">
<title>2&#45;&gt;10</title>
<path fill="none" stroke="grey" stroke-width="2" d="M587.88,-935.7C564.72,-913.2 525.09,-875.41 508.52,-864 491.06,-851.97 470.47,-841.04 452.11,-832.26"/>
<polygon fill="grey" stroke="grey" stroke-width="2" points="453.56,-829.08 443.01,-828.01 450.59,-835.42 453.56,-829.08"/>
</g>
<!-- 3 -->
<g id="node4" class="node">
<title>3</title>
<path fill="none" stroke="#56d8a2" stroke-width="2" d="M822.02,-1044C822.02,-1044 733.02,-1044 733.02,-1044 727.02,-1044 721.02,-1038 721.02,-1032 721.02,-1032 721.02,-1020 721.02,-1020 721.02,-1014 727.02,-1008 733.02,-1008 733.02,-1008 822.02,-1008 822.02,-1008 828.02,-1008 834.02,-1014 834.02,-1020 834.02,-1020 834.02,-1032 834.02,-1032 834.02,-1038 828.02,-1044 822.02,-1044"/>
<text text-anchor="middle" x="777.52" y="-1023.5" font-family="sans" font-size="10.00">build_codon_variants</text>
</g>
<!-- 3&#45;&gt;1 -->
<g id="edge7" class="edge">
<title>3&#45;&gt;1</title>
<path fill="none" stroke="grey" stroke-width="2" d="M756.42,-1007.87C725.28,-982.6 666.92,-935.25 631.71,-906.68"/>
<polygon fill="grey" stroke="grey" stroke-width="2" points="633.68,-903.77 623.71,-900.19 629.27,-909.21 633.68,-903.77"/>
</g>
<!-- 3&#45;&gt;2 -->
<g id="edge9" class="edge">
<title>3&#45;&gt;2</title>
<path fill="none" stroke="grey" stroke-width="2" d="M735.45,-1007.88C711.73,-998.22 681.91,-986.09 656.82,-975.88"/>
<polygon fill="grey" stroke="grey" stroke-width="2" points="658.05,-972.6 647.46,-972.07 655.41,-979.08 658.05,-972.6"/>
</g>
<!-- 3&#45;&gt;10 -->
<g id="edge21" class="edge">
<title>3&#45;&gt;10</title>
<path fill="none" stroke="grey" stroke-width="2" d="M720.72,-1020.96C672.84,-1015.47 603.94,-1002.52 551.52,-972 492.66,-937.73 443.32,-872.77 418.93,-836.72"/>
<polygon fill="grey" stroke="grey" stroke-width="2" points="421.73,-834.6 413.27,-828.21 415.9,-838.48 421.73,-834.6"/>
</g>
<!-- 3&#45;&gt;14 -->
<g id="edge31" class="edge">
<title>3&#45;&gt;14</title>
<path fill="none" stroke="grey" stroke-width="2" d="M778.54,-1007.73C781.91,-950.19 792.8,-764.66 796.92,-694.35"/>
<polygon fill="grey" stroke="grey" stroke-width="2" points="800.43,-694.28 797.52,-684.09 793.44,-693.87 800.43,-694.28"/>
</g>
<!-- 3&#45;&gt;16 -->
<g id="edge38" class="edge">
<title>3&#45;&gt;16</title>
<path fill="none" stroke="grey" stroke-width="2" d="M785.82,-1007.73C813.58,-949.96 903.34,-763.13 936.8,-693.49"/>
<polygon fill="grey" stroke="grey" stroke-width="2" points="940.14,-694.62 941.31,-684.09 933.83,-691.59 940.14,-694.62"/>
</g>
<!-- 3&#45;&gt;17 -->
<g id="edge55" class="edge">
<title>3&#45;&gt;17</title>
<path fill="none" stroke="grey" stroke-width="2" d="M806.94,-1007.86C822.02,-998.33 840.18,-985.65 854.52,-972 960.13,-871.5 991.83,-828.45 1011.52,-684 1027.85,-564.21 872.16,-240.09 945.52,-144 963.25,-120.78 1040.7,-105.27 1092.22,-97.31"/>
<polygon fill="grey" stroke="grey" stroke-width="2" points="1092.78,-100.77 1102.15,-95.82 1091.74,-93.84 1092.78,-100.77"/>
</g>
<!-- 23 -->
<g id="node24" class="node">
<title>23</title>
<path fill="none" stroke="#56b1d8" stroke-width="2" d="M832.52,-324C832.52,-324 782.52,-324 782.52,-324 776.52,-324 770.52,-318 770.52,-312 770.52,-312 770.52,-300 770.52,-300 770.52,-294 776.52,-288 782.52,-288 782.52,-288 832.52,-288 832.52,-288 838.52,-288 844.52,-294 844.52,-300 844.52,-300 844.52,-312 844.52,-312 844.52,-318 838.52,-324 832.52,-324"/>
<text text-anchor="middle" x="807.52" y="-303.5" font-family="sans" font-size="10.00">make_nblink</text>
</g>
<!-- 3&#45;&gt;23 -->
<g id="edge76" class="edge">
<title>3&#45;&gt;23</title>
<path fill="none" stroke="grey" stroke-width="2" d="M720.75,-1020.35C585.88,-1006.57 262.53,-956.08 331.52,-792 411.32,-602.24 520.02,-616.56 662.52,-468 707.66,-420.95 758.14,-363.82 786.04,-331.81"/>
<polygon fill="grey" stroke="grey" stroke-width="2" points="788.71,-334.08 792.63,-324.24 783.42,-329.49 788.71,-334.08"/>
</g>
<!-- 3&#45;&gt;27 -->
<g id="edge94" class="edge">
<title>3&#45;&gt;27</title>
<path fill="none" stroke="grey" stroke-width="2" d="M794.27,-1007.73C838.51,-960.7 957.79,-824.4 996.52,-684 1014.87,-617.49 955.35,-606.91 938.52,-540 919.01,-462.42 928.8,-439.41 938.52,-360 946.12,-297.97 966.71,-227.35 978.64,-189.8"/>
<polygon fill="grey" stroke="grey" stroke-width="2" points="982.02,-190.72 981.76,-180.13 975.36,-188.57 982.02,-190.72"/>
</g>
<!-- 4 -->
<g id="node5" class="node">
<title>4</title>
<path fill="none" stroke="#56a2d8" stroke-width="2" d="M302.52,-1116C302.52,-1116 200.52,-1116 200.52,-1116 194.52,-1116 188.52,-1110 188.52,-1104 188.52,-1104 188.52,-1092 188.52,-1092 188.52,-1086 194.52,-1080 200.52,-1080 200.52,-1080 302.52,-1080 302.52,-1080 308.52,-1080 314.52,-1086 314.52,-1092 314.52,-1092 314.52,-1104 314.52,-1104 314.52,-1110 308.52,-1116 302.52,-1116"/>
<text text-anchor="middle" x="251.52" y="-1095.5" font-family="sans" font-size="10.00">build_pacbio_consensus</text>
</g>
<!-- 4&#45;&gt;3 -->
<g id="edge11" class="edge">
<title>4&#45;&gt;3</title>
<path fill="none" stroke="grey" stroke-width="2" d="M314.71,-1088.59C414.73,-1075.28 608.63,-1049.48 710.81,-1035.88"/>
<polygon fill="grey" stroke="grey" stroke-width="2" points="711.55,-1039.31 721,-1034.52 710.63,-1032.37 711.55,-1039.31"/>
</g>
<!-- 4&#45;&gt;17 -->
<g id="edge60" class="edge">
<title>4&#45;&gt;17</title>
<path fill="none" stroke="grey" stroke-width="2" d="M245.72,-1079.98C242.37,-1069.66 238.28,-1056.19 235.52,-1044 162.35,-720.8 122.52,-638.38 122.52,-307 122.52,-307 122.52,-307 122.52,-233 122.52,-190.5 123.06,-168.87 157.52,-144 233.8,-88.97 906.29,-89.41 1092.13,-90.6"/>
<polygon fill="grey" stroke="grey" stroke-width="2" points="1092.37,-94.1 1102.39,-90.67 1092.42,-87.1 1092.37,-94.1"/>
</g>
<!-- 4&#45;&gt;23 -->
<g id="edge75" class="edge">
<title>4&#45;&gt;23</title>
<path fill="none" stroke="grey" stroke-width="2" d="M256.18,-1079.66C262.9,-1053.05 274.52,-1000.45 274.52,-955 274.52,-955 274.52,-955 274.52,-809 274.52,-525.84 500.08,-530.01 726.52,-360 740.66,-349.39 756.85,-338.55 771.02,-329.46"/>
<polygon fill="grey" stroke="grey" stroke-width="2" points="772.98,-332.36 779.55,-324.05 769.23,-326.45 772.98,-332.36"/>
</g>
<!-- 4&#45;&gt;27 -->
<g id="edge99" class="edge">
<title>4&#45;&gt;27</title>
<path fill="none" stroke="grey" stroke-width="2" d="M248.49,-1079.57C244.11,-1052.86 236.52,-1000.12 236.52,-955 236.52,-955 236.52,-955 236.52,-881 236.52,-753.89 236.52,-722.11 236.52,-595 236.52,-595 236.52,-595 236.52,-449 236.52,-297.76 340.59,-262.43 484.52,-216 569.65,-188.54 837.82,-171.22 943.8,-165.29"/>
<polygon fill="grey" stroke="grey" stroke-width="2" points="944.05,-168.78 953.84,-164.74 943.66,-161.8 944.05,-168.78"/>
</g>
<!-- 5 -->
<g id="node6" class="node">
<title>5</title>
<path fill="none" stroke="#d87d56" stroke-width="2" d="M181.52,-1188C181.52,-1188 101.52,-1188 101.52,-1188 95.52,-1188 89.52,-1182 89.52,-1176 89.52,-1176 89.52,-1164 89.52,-1164 89.52,-1158 95.52,-1152 101.52,-1152 101.52,-1152 181.52,-1152 181.52,-1152 187.52,-1152 193.52,-1158 193.52,-1164 193.52,-1164 193.52,-1176 193.52,-1176 193.52,-1182 187.52,-1188 181.52,-1188"/>
<text text-anchor="middle" x="141.52" y="-1167.5" font-family="sans" font-size="10.00">analyze_pacbio_ccs</text>
</g>
<!-- 5&#45;&gt;4 -->
<g id="edge14" class="edge">
<title>5&#45;&gt;4</title>
<path fill="none" stroke="grey" stroke-width="2" d="M168.43,-1151.88C182.68,-1142.81 200.37,-1131.55 215.76,-1121.76"/>
<polygon fill="grey" stroke="grey" stroke-width="2" points="217.95,-1124.51 224.51,-1116.19 214.2,-1118.61 217.95,-1124.51"/>
</g>
<!-- 5&#45;&gt;17 -->
<g id="edge43" class="edge">
<title>5&#45;&gt;17</title>
<path fill="none" stroke="grey" stroke-width="2" d="M107.96,-1151.93C68.56,-1129.23 8.52,-1085.1 8.52,-1027 8.52,-1027 8.52,-1027 8.52,-521 8.52,-345.69 -13.73,-251.79 124.52,-144 163.1,-113.92 896.71,-96.18 1092.07,-91.97"/>
<polygon fill="grey" stroke="grey" stroke-width="2" points="1092.38,-95.47 1102.3,-91.76 1092.23,-88.47 1092.38,-95.47"/>
</g>
<!-- 5&#45;&gt;23 -->
<g id="edge70" class="edge">
<title>5&#45;&gt;23</title>
<path fill="none" stroke="grey" stroke-width="2" d="M145.37,-1151.61C150.92,-1124.94 160.52,-1072.27 160.52,-1027 160.52,-1027 160.52,-1027 160.52,-953 160.52,-723.51 227.23,-635.2 415.52,-504 470.03,-466.02 486.87,-461.25 546.52,-432 582.63,-414.3 595.19,-416.93 629.52,-396 651.1,-382.85 651.74,-372.8 673.52,-360 700.88,-343.93 734.01,-330.78 760.48,-321.59"/>
<polygon fill="grey" stroke="grey" stroke-width="2" points="761.93,-324.8 770.28,-318.27 759.68,-318.17 761.93,-324.8"/>
</g>
<!-- 5&#45;&gt;27 -->
<g id="edge83" class="edge">
<title>5&#45;&gt;27</title>
<path fill="none" stroke="grey" stroke-width="2" d="M137.68,-1151.61C132.13,-1124.94 122.52,-1072.27 122.52,-1027 122.52,-1027 122.52,-1027 122.52,-737 122.52,-478.8 135.89,-301.49 379.52,-216 483.96,-179.35 822.84,-167.22 943.98,-164"/>
<polygon fill="grey" stroke="grey" stroke-width="2" points="944.1,-167.5 954,-163.74 943.92,-160.5 944.1,-167.5"/>
</g>
<!-- 6 -->
<g id="node7" class="node">
<title>6</title>
<path fill="none" stroke="#b6d856" stroke-width="2" d="M190.52,-1260C190.52,-1260 92.52,-1260 92.52,-1260 86.52,-1260 80.52,-1254 80.52,-1248 80.52,-1248 80.52,-1236 80.52,-1236 80.52,-1230 86.52,-1224 92.52,-1224 92.52,-1224 190.52,-1224 190.52,-1224 196.52,-1224 202.52,-1230 202.52,-1236 202.52,-1236 202.52,-1248 202.52,-1248 202.52,-1254 196.52,-1260 190.52,-1260"/>
<text text-anchor="middle" x="141.52" y="-1239.5" font-family="sans" font-size="10.00">align_parse_PacBio_ccs</text>
</g>
<!-- 6&#45;&gt;5 -->
<g id="edge15" class="edge">
<title>6&#45;&gt;5</title>
<path fill="none" stroke="grey" stroke-width="2" d="M141.52,-1223.7C141.52,-1215.98 141.52,-1206.71 141.52,-1198.11"/>
<polygon fill="grey" stroke="grey" stroke-width="2" points="145.02,-1198.1 141.52,-1188.1 138.02,-1198.1 145.02,-1198.1"/>
</g>
<!-- 7 -->
<g id="node8" class="node">
<title>7</title>
<path fill="none" stroke="#56d88a" stroke-width="2" d="M895.52,-1188C895.52,-1188 829.52,-1188 829.52,-1188 823.52,-1188 817.52,-1182 817.52,-1176 817.52,-1176 817.52,-1164 817.52,-1164 817.52,-1158 823.52,-1152 829.52,-1152 829.52,-1152 895.52,-1152 895.52,-1152 901.52,-1152 907.52,-1158 907.52,-1164 907.52,-1164 907.52,-1176 907.52,-1176 907.52,-1182 901.52,-1188 895.52,-1188"/>
<text text-anchor="middle" x="862.52" y="-1167.5" font-family="sans" font-size="10.00">gene_sequence</text>
</g>
<!-- 7&#45;&gt;1 -->
<g id="edge6" class="edge">
<title>7&#45;&gt;1</title>
<path fill="none" stroke="grey" stroke-width="2" d="M817.47,-1155.95C745.93,-1132.49 608.61,-1075.73 551.52,-972 543.81,-957.98 545.54,-950.84 551.52,-936 555.87,-925.21 563.59,-915.39 571.72,-907.21"/>
<polygon fill="grey" stroke="grey" stroke-width="2" points="574.31,-909.57 579.22,-900.18 569.53,-904.46 574.31,-909.57"/>
</g>
<!-- 7&#45;&gt;3 -->
<g id="edge10" class="edge">
<title>7&#45;&gt;3</title>
<path fill="none" stroke="grey" stroke-width="2" d="M852.27,-1151.87C837.53,-1127.24 810.23,-1081.64 793.02,-1052.88"/>
<polygon fill="grey" stroke="grey" stroke-width="2" points="795.95,-1050.97 787.81,-1044.19 789.95,-1054.57 795.95,-1050.97"/>
</g>
<!-- 7&#45;&gt;4 -->
<g id="edge13" class="edge">
<title>7&#45;&gt;4</title>
<path fill="none" stroke="grey" stroke-width="2" d="M817.28,-1166.32C724.96,-1160.46 508.39,-1144.68 328.52,-1116 327.27,-1115.8 326,-1115.59 324.73,-1115.38"/>
<polygon fill="grey" stroke="grey" stroke-width="2" points="325.32,-1111.93 314.86,-1113.61 324.08,-1118.82 325.32,-1111.93"/>
</g>
<!-- 8 -->
<g id="node9" class="node">
<title>8</title>
<path fill="none" stroke="#566bd8" stroke-width="2" d="M1166.52,-1116C1166.52,-1116 1076.52,-1116 1076.52,-1116 1070.52,-1116 1064.52,-1110 1064.52,-1104 1064.52,-1104 1064.52,-1092 1064.52,-1092 1064.52,-1086 1070.52,-1080 1076.52,-1080 1076.52,-1080 1166.52,-1080 1166.52,-1080 1172.52,-1080 1178.52,-1086 1178.52,-1092 1178.52,-1092 1178.52,-1104 1178.52,-1104 1178.52,-1110 1172.52,-1116 1166.52,-1116"/>
<text text-anchor="middle" x="1121.52" y="-1095.5" font-family="sans" font-size="10.00">site_numbering_map</text>
</g>
<!-- 7&#45;&gt;8 -->
<g id="edge16" class="edge">
<title>7&#45;&gt;8</title>
<path fill="none" stroke="grey" stroke-width="2" d="M907.64,-1156.81C948.15,-1145.86 1008.16,-1129.64 1054.32,-1117.16"/>
<polygon fill="grey" stroke="grey" stroke-width="2" points="1055.5,-1120.47 1064.24,-1114.48 1053.68,-1113.71 1055.5,-1120.47"/>
</g>
<!-- 7&#45;&gt;10 -->
<g id="edge19" class="edge">
<title>7&#45;&gt;10</title>
<path fill="none" stroke="grey" stroke-width="2" d="M817.29,-1166.35C690.77,-1157.71 342.52,-1125.03 342.52,-1027 342.52,-1027 342.52,-1027 342.52,-953 342.52,-909.72 366.47,-864.45 384.1,-836.98"/>
<polygon fill="grey" stroke="grey" stroke-width="2" points="387.2,-838.65 389.8,-828.38 381.36,-834.78 387.2,-838.65"/>
</g>
<!-- 7&#45;&gt;14 -->
<g id="edge30" class="edge">
<title>7&#45;&gt;14</title>
<path fill="none" stroke="grey" stroke-width="2" d="M860.51,-1151.6C857.08,-1122.07 849.87,-1060.25 843.52,-1008 827.96,-879.95 826.33,-847.62 807.52,-720 806.28,-711.56 804.78,-702.39 803.36,-694.09"/>
<polygon fill="grey" stroke="grey" stroke-width="2" points="806.79,-693.41 801.63,-684.16 799.9,-694.61 806.79,-693.41"/>
</g>
<!-- 7&#45;&gt;16 -->
<g id="edge37" class="edge">
<title>7&#45;&gt;16</title>
<path fill="none" stroke="grey" stroke-width="2" d="M907.59,-1168.54C988.23,-1166.65 1152.12,-1157.65 1187.52,-1116 1308.21,-974.04 1067.8,-760.74 979.94,-690.41"/>
<polygon fill="grey" stroke="grey" stroke-width="2" points="981.94,-687.53 971.93,-684.06 977.59,-693.01 981.94,-687.53"/>
</g>
<!-- 7&#45;&gt;17 -->
<g id="edge54" class="edge">
<title>7&#45;&gt;17</title>
<path fill="none" stroke="grey" stroke-width="2" d="M907.72,-1168.05C1115.8,-1163.1 1971.52,-1136.12 1971.52,-1027 1971.52,-1027 1971.52,-1027 1971.52,-233 1971.52,-162.61 1906.97,-167.22 1840.52,-144 1719.39,-101.68 1324.31,-93.12 1187.04,-91.42"/>
<polygon fill="grey" stroke="grey" stroke-width="2" points="1186.88,-87.92 1176.84,-91.3 1186.8,-94.92 1186.88,-87.92"/>
</g>
<!-- 7&#45;&gt;27 -->
<g id="edge93" class="edge">
<title>7&#45;&gt;27</title>
<path fill="none" stroke="grey" stroke-width="2" d="M907.79,-1165.38C1071.4,-1151.69 1622.52,-1100.15 1622.52,-1027 1622.52,-1027 1622.52,-1027 1622.52,-521 1622.52,-481.76 1477.37,-237.47 1444.52,-216 1410.35,-193.66 1139.3,-173.2 1031.51,-165.87"/>
<polygon fill="grey" stroke="grey" stroke-width="2" points="1031.51,-162.36 1021.3,-165.18 1031.04,-169.34 1031.51,-162.36"/>
</g>
<!-- 8&#45;&gt;3 -->
<g id="edge12" class="edge">
<title>8&#45;&gt;3</title>
<path fill="none" stroke="grey" stroke-width="2" d="M1064.33,-1085.36C1003.76,-1073.04 908.23,-1053.6 844.26,-1040.58"/>
<polygon fill="grey" stroke="grey" stroke-width="2" points="844.78,-1037.11 834.28,-1038.55 843.38,-1043.97 844.78,-1037.11"/>
</g>
<!-- 8&#45;&gt;10 -->
<g id="edge22" class="edge">
<title>8&#45;&gt;10</title>
<path fill="none" stroke="grey" stroke-width="2" d="M1064.51,-1093.25C984.73,-1087.19 835.6,-1072.88 711.52,-1044 615.02,-1021.54 583.26,-1026.52 500.52,-972 464.53,-948.28 457.86,-936.87 435.52,-900 423.76,-880.59 415.1,-856.3 409.62,-838"/>
<polygon fill="grey" stroke="grey" stroke-width="2" points="412.94,-836.91 406.82,-828.27 406.21,-838.84 412.94,-836.91"/>
</g>
<!-- 11 -->
<g id="node12" class="node">
<title>11</title>
<path fill="none" stroke="#56d8b1" stroke-width="2" d="M1506.02,-468C1506.02,-468 1415.02,-468 1415.02,-468 1409.02,-468 1403.02,-462 1403.02,-456 1403.02,-456 1403.02,-444 1403.02,-444 1403.02,-438 1409.02,-432 1415.02,-432 1415.02,-432 1506.02,-432 1506.02,-432 1512.02,-432 1518.02,-438 1518.02,-444 1518.02,-444 1518.02,-456 1518.02,-456 1518.02,-462 1512.02,-468 1506.02,-468"/>
<text text-anchor="middle" x="1460.52" y="-447.5" font-family="sans" font-size="10.00">avg_antibody_escape</text>
</g>
<!-- 8&#45;&gt;11 -->
<g id="edge25" class="edge">
<title>8&#45;&gt;11</title>
<path fill="none" stroke="grey" stroke-width="2" d="M1176.37,-1079.96C1272.31,-1049.35 1460.52,-985.43 1460.52,-955 1460.52,-955 1460.52,-955 1460.52,-593 1460.52,-553 1460.52,-506.65 1460.52,-478.08"/>
<polygon fill="grey" stroke="grey" stroke-width="2" points="1464.02,-478.05 1460.52,-468.05 1457.02,-478.05 1464.02,-478.05"/>
</g>
<!-- 13 -->
<g id="node14" class="node">
<title>13</title>
<path fill="none" stroke="#56d86b" stroke-width="2" d="M1139.52,-612C1139.52,-612 1065.52,-612 1065.52,-612 1059.52,-612 1053.52,-606 1053.52,-600 1053.52,-600 1053.52,-588 1053.52,-588 1053.52,-582 1059.52,-576 1065.52,-576 1065.52,-576 1139.52,-576 1139.52,-576 1145.52,-576 1151.52,-582 1151.52,-588 1151.52,-588 1151.52,-600 1151.52,-600 1151.52,-606 1145.52,-612 1139.52,-612"/>
<text text-anchor="middle" x="1102.52" y="-591.5" font-family="sans" font-size="10.00">fit_globalepistasis</text>
</g>
<!-- 8&#45;&gt;13 -->
<g id="edge27" class="edge">
<title>8&#45;&gt;13</title>
<path fill="none" stroke="grey" stroke-width="2" d="M1125.57,-1079.62C1131.42,-1052.97 1141.52,-1000.31 1141.52,-955 1141.52,-955 1141.52,-955 1141.52,-737 1141.52,-695.56 1125.89,-649.67 1114.42,-621.58"/>
<polygon fill="grey" stroke="grey" stroke-width="2" points="1117.52,-619.93 1110.42,-612.07 1111.07,-622.65 1117.52,-619.93"/>
</g>
<!-- 8&#45;&gt;14 -->
<g id="edge33" class="edge">
<title>8&#45;&gt;14</title>
<path fill="none" stroke="grey" stroke-width="2" d="M1108.44,-1079.9C1100.57,-1069.56 1090.39,-1056.08 1081.52,-1044 976.91,-901.41 964.13,-855.53 850.52,-720 842.24,-710.12 832.5,-699.87 823.69,-691.05"/>
<polygon fill="grey" stroke="grey" stroke-width="2" points="826.15,-688.56 816.57,-684.02 821.23,-693.53 826.15,-688.56"/>
</g>
<!-- 15 -->
<g id="node16" class="node">
<title>15</title>
<path fill="none" stroke="#d8c356" stroke-width="2" d="M1161.02,-540C1161.02,-540 1108.02,-540 1108.02,-540 1102.02,-540 1096.02,-534 1096.02,-528 1096.02,-528 1096.02,-516 1096.02,-516 1096.02,-510 1102.02,-504 1108.02,-504 1108.02,-504 1161.02,-504 1161.02,-504 1167.02,-504 1173.02,-510 1173.02,-516 1173.02,-516 1173.02,-528 1173.02,-528 1173.02,-534 1167.02,-540 1161.02,-540"/>
<text text-anchor="middle" x="1134.52" y="-519.5" font-family="sans" font-size="10.00">fit_polyclonal</text>
</g>
<!-- 8&#45;&gt;15 -->
<g id="edge35" class="edge">
<title>8&#45;&gt;15</title>
<path fill="none" stroke="grey" stroke-width="2" d="M1133.54,-1079.99C1150.53,-1054.23 1179.52,-1003.2 1179.52,-955 1179.52,-955 1179.52,-955 1179.52,-665 1179.52,-624.55 1173.75,-614.22 1160.52,-576 1157.41,-566.99 1153.12,-557.54 1148.93,-549.14"/>
<polygon fill="grey" stroke="grey" stroke-width="2" points="1152.01,-547.48 1144.31,-540.2 1145.79,-550.69 1152.01,-547.48"/>
</g>
<!-- 8&#45;&gt;16 -->
<g id="edge40" class="edge">
<title>8&#45;&gt;16</title>
<path fill="none" stroke="grey" stroke-width="2" d="M1114.68,-1079.88C1088.19,-1013.67 992.37,-774.11 960.16,-693.6"/>
<polygon fill="grey" stroke="grey" stroke-width="2" points="963.36,-692.16 956.39,-684.17 956.86,-694.76 963.36,-692.16"/>
</g>
<!-- 8&#45;&gt;17 -->
<g id="edge61" class="edge">
<title>8&#45;&gt;17</title>
<path fill="none" stroke="grey" stroke-width="2" d="M1178.57,-1090.77C1254.24,-1079.65 1387.75,-1049.74 1469.52,-972 1723.92,-730.16 1895.52,-658 1895.52,-307 1895.52,-307 1895.52,-307 1895.52,-233 1895.52,-169.07 1842.02,-167.4 1782.52,-144 1673.93,-101.29 1316.16,-93 1186.76,-91.39"/>
<polygon fill="grey" stroke="grey" stroke-width="2" points="1186.8,-87.89 1176.76,-91.27 1186.72,-94.89 1186.8,-87.89"/>
</g>
<!-- 8&#45;&gt;27 -->
<g id="edge100" class="edge">
<title>8&#45;&gt;27</title>
<path fill="none" stroke="grey" stroke-width="2" d="M1154.28,-1079.83C1282.31,-1010.2 1736.98,-737.91 1636.52,-432 1617.93,-375.37 1529.19,-245.72 1477.52,-216 1439.27,-194 1144.43,-173.04 1031.42,-165.73"/>
<polygon fill="grey" stroke="grey" stroke-width="2" points="1031.58,-162.23 1021.38,-165.08 1031.13,-169.22 1031.58,-162.23"/>
</g>
<!-- 9 -->
<g id="node10" class="node">
<title>9</title>
<path fill="none" stroke="#d8b456" stroke-width="2" d="M720.52,-756C720.52,-756 580.52,-756 580.52,-756 574.52,-756 568.52,-750 568.52,-744 568.52,-744 568.52,-732 568.52,-732 568.52,-726 574.52,-720 580.52,-720 580.52,-720 720.52,-720 720.52,-720 726.52,-720 732.52,-726 732.52,-732 732.52,-732 732.52,-744 732.52,-744 732.52,-750 726.52,-756 720.52,-756"/>
<text text-anchor="middle" x="650.52" y="-735.5" font-family="sans" font-size="10.00">check_adequate_variant_counts</text>
</g>
<!-- 9&#45;&gt;0 -->
<g id="edge2" class="edge">
<title>9&#45;&gt;0</title>
<path fill="none" stroke="grey" stroke-width="2" d="M629.61,-719.79C592.45,-689.48 512.1,-625.15 440.52,-576 249.61,-444.91 46.52,-466.59 46.52,-235 46.52,-235 46.52,-235 46.52,-161 46.52,-52.08 911.19,-24.58 1102.39,-19.83"/>
<polygon fill="grey" stroke="grey" stroke-width="2" points="1102.59,-23.33 1112.51,-19.58 1102.42,-16.33 1102.59,-23.33"/>
</g>
<!-- 9&#45;&gt;14 -->
<g id="edge29" class="edge">
<title>9&#45;&gt;14</title>
<path fill="none" stroke="grey" stroke-width="2" d="M686.73,-719.88C706.93,-710.32 732.27,-698.34 753.71,-688.19"/>
<polygon fill="grey" stroke="grey" stroke-width="2" points="755.41,-691.27 762.95,-683.83 752.41,-684.94 755.41,-691.27"/>
</g>
<!-- 9&#45;&gt;16 -->
<g id="edge36" class="edge">
<title>9&#45;&gt;16</title>
<path fill="none" stroke="grey" stroke-width="2" d="M723.29,-719.97C778.8,-706.97 853.69,-689.44 901.8,-678.17"/>
<polygon fill="grey" stroke="grey" stroke-width="2" points="902.7,-681.56 911.64,-675.87 901.11,-674.74 902.7,-681.56"/>
</g>
<!-- 10&#45;&gt;9 -->
<g id="edge17" class="edge">
<title>10&#45;&gt;9</title>
<path fill="none" stroke="grey" stroke-width="2" d="M462.87,-791.97C498.28,-781.97 543.18,-769.3 580.18,-758.85"/>
<polygon fill="grey" stroke="grey" stroke-width="2" points="581.23,-762.2 589.9,-756.11 579.33,-755.46 581.23,-762.2"/>
</g>
<!-- 10&#45;&gt;17 -->
<g id="edge57" class="edge">
<title>10&#45;&gt;17</title>
<path fill="none" stroke="grey" stroke-width="2" d="M383.94,-791.74C327.27,-737.15 160.52,-561.03 160.52,-379 160.52,-379 160.52,-379 160.52,-233 160.52,-192.03 152.7,-169.81 184.52,-144 220.12,-115.13 904.9,-96.63 1092.41,-92.09"/>
<polygon fill="grey" stroke="grey" stroke-width="2" points="1092.59,-95.59 1102.5,-91.85 1092.42,-88.59 1092.59,-95.59"/>
</g>
<!-- 10&#45;&gt;23 -->
<g id="edge78" class="edge">
<title>10&#45;&gt;23</title>
<path fill="none" stroke="grey" stroke-width="2" d="M425.39,-791.96C497.44,-738.09 716.27,-573.1 738.52,-540 782.54,-474.52 799.07,-380.37 804.78,-334.38"/>
<polygon fill="grey" stroke="grey" stroke-width="2" points="808.28,-334.62 805.95,-324.29 801.32,-333.82 808.28,-334.62"/>
</g>
<!-- 10&#45;&gt;27 -->
<g id="edge96" class="edge">
<title>10&#45;&gt;27</title>
<path fill="none" stroke="grey" stroke-width="2" d="M395.37,-791.88C387.82,-773.92 375.52,-744.9 364.52,-720 325.62,-631.95 274.52,-619.26 274.52,-523 274.52,-523 274.52,-523 274.52,-449 274.52,-351.2 341.19,-339.19 424.52,-288 492.01,-246.55 511.28,-237.42 587.52,-216 713.67,-180.57 869.03,-168.62 943.56,-164.75"/>
<polygon fill="grey" stroke="grey" stroke-width="2" points="944.14,-168.23 953.96,-164.24 943.8,-161.24 944.14,-168.23"/>
</g>
<!-- 11&#45;&gt;0 -->
<g id="edge4" class="edge">
<title>11&#45;&gt;0</title>
<path fill="none" stroke="grey" stroke-width="2" d="M1518.05,-435.81C1644.11,-405.25 1933.52,-325.24 1933.52,-235 1933.52,-235 1933.52,-235 1933.52,-161 1933.52,-83.14 1334.32,-33.4 1176.99,-21.67"/>
<polygon fill="grey" stroke="grey" stroke-width="2" points="1177.09,-18.17 1166.86,-20.93 1176.57,-25.15 1177.09,-18.17"/>
</g>
<!-- 11&#45;&gt;17 -->
<g id="edge56" class="edge">
<title>11&#45;&gt;17</title>
<path fill="none" stroke="grey" stroke-width="2" d="M1478.13,-431.77C1524.95,-384.99 1646.95,-256.47 1616.52,-216 1564.51,-146.81 1297.02,-108.93 1186.94,-96.07"/>
<polygon fill="grey" stroke="grey" stroke-width="2" points="1187.12,-92.57 1176.79,-94.9 1186.32,-99.52 1187.12,-92.57"/>
</g>
<!-- 21 -->
<g id="node22" class="node">
<title>21</title>
<path fill="none" stroke="#d85656" stroke-width="2" d="M1382.52,-396C1382.52,-396 1314.52,-396 1314.52,-396 1308.52,-396 1302.52,-390 1302.52,-384 1302.52,-384 1302.52,-372 1302.52,-372 1302.52,-366 1308.52,-360 1314.52,-360 1314.52,-360 1382.52,-360 1382.52,-360 1388.52,-360 1394.52,-366 1394.52,-372 1394.52,-372 1394.52,-384 1394.52,-384 1394.52,-390 1388.52,-396 1382.52,-396"/>
<text text-anchor="middle" x="1348.52" y="-375.5" font-family="sans" font-size="10.00">validation_IC50s</text>
</g>
<!-- 11&#45;&gt;21 -->
<g id="edge65" class="edge">
<title>11&#45;&gt;21</title>
<path fill="none" stroke="grey" stroke-width="2" d="M1433.13,-431.88C1418.62,-422.81 1400.61,-411.55 1384.94,-401.76"/>
<polygon fill="grey" stroke="grey" stroke-width="2" points="1386.36,-398.52 1376.03,-396.19 1382.65,-404.46 1386.36,-398.52"/>
</g>
<!-- 11&#45;&gt;23 -->
<g id="edge77" class="edge">
<title>11&#45;&gt;23</title>
<path fill="none" stroke="grey" stroke-width="2" d="M1402.95,-443.87C1329.04,-436.6 1197.12,-421.29 1086.52,-396 1003.3,-376.97 909.22,-344.61 854.33,-324.6"/>
<polygon fill="grey" stroke="grey" stroke-width="2" points="855.47,-321.29 844.87,-321.13 853.06,-327.86 855.47,-321.29"/>
</g>
<!-- 26 -->
<g id="node27" class="node">
<title>26</title>
<path fill="none" stroke="#78d856" stroke-width="2" d="M1423.02,-252C1423.02,-252 1294.02,-252 1294.02,-252 1288.02,-252 1282.02,-246 1282.02,-240 1282.02,-240 1282.02,-228 1282.02,-228 1282.02,-222 1288.02,-216 1294.02,-216 1294.02,-216 1423.02,-216 1423.02,-216 1429.02,-216 1435.02,-222 1435.02,-228 1435.02,-228 1435.02,-240 1435.02,-240 1435.02,-246 1429.02,-252 1423.02,-252"/>
<text text-anchor="middle" x="1358.52" y="-231.5" font-family="sans" font-size="10.00">format_antibody_escape_plot</text>
</g>
<!-- 11&#45;&gt;26 -->
<g id="edge80" class="edge">
<title>11&#45;&gt;26</title>
<path fill="none" stroke="grey" stroke-width="2" d="M1457.45,-431.77C1453.82,-413.46 1446.94,-383.92 1436.52,-360 1420.61,-323.45 1395.16,-285.07 1377.69,-260.64"/>
<polygon fill="grey" stroke="grey" stroke-width="2" points="1380.34,-258.34 1371.64,-252.3 1374.68,-262.45 1380.34,-258.34"/>
</g>
<!-- 11&#45;&gt;27 -->
<g id="edge95" class="edge">
<title>11&#45;&gt;27</title>
<path fill="none" stroke="grey" stroke-width="2" d="M1403.01,-436.66C1369.73,-428.09 1327.79,-414.81 1293.52,-396 1271.68,-384 1271.84,-372.91 1250.52,-360 1214.73,-338.32 1196.96,-349.17 1163.52,-324 1114.5,-287.09 1123.85,-256.24 1077.52,-216 1063.33,-203.67 1045.88,-192.64 1030.13,-183.87"/>
<polygon fill="grey" stroke="grey" stroke-width="2" points="1031.55,-180.66 1021.09,-178.98 1028.22,-186.82 1031.55,-180.66"/>
</g>
<!-- 12 -->
<g id="node13" class="node">
<title>12</title>
<path fill="none" stroke="#68d856" stroke-width="2" d="M1344.02,-540C1344.02,-540 1279.02,-540 1279.02,-540 1273.02,-540 1267.02,-534 1267.02,-528 1267.02,-528 1267.02,-516 1267.02,-516 1267.02,-510 1273.02,-504 1279.02,-504 1279.02,-504 1344.02,-504 1344.02,-504 1350.02,-504 1356.02,-510 1356.02,-516 1356.02,-516 1356.02,-528 1356.02,-528 1356.02,-534 1350.02,-540 1344.02,-540"/>
<text text-anchor="middle" x="1311.52" y="-519.5" font-family="sans" font-size="10.00">avg_muteffects</text>
</g>
<!-- 12&#45;&gt;0 -->
<g id="edge1" class="edge">
<title>12&#45;&gt;0</title>
<path fill="none" stroke="grey" stroke-width="2" d="M1356.43,-516.38C1412.88,-509.72 1512.24,-495.11 1593.52,-468 1794.55,-400.94 2009.52,-446.91 2009.52,-235 2009.52,-235 2009.52,-235 2009.52,-161 2009.52,-105.3 2401.86,-199.92 1758.52,-72 1541.08,-28.76 1273.77,-20.79 1176.84,-19.33"/>
<polygon fill="grey" stroke="grey" stroke-width="2" points="1176.72,-15.82 1166.67,-19.19 1176.62,-22.82 1176.72,-15.82"/>
</g>
<!-- 12&#45;&gt;11 -->
<g id="edge24" class="edge">
<title>12&#45;&gt;11</title>
<path fill="none" stroke="grey" stroke-width="2" d="M1347.97,-503.88C1368.16,-494.39 1393.45,-482.51 1414.93,-472.42"/>
<polygon fill="grey" stroke="grey" stroke-width="2" points="1416.63,-475.49 1424.19,-468.07 1413.65,-469.15 1416.63,-475.49"/>
</g>
<!-- 12&#45;&gt;17 -->
<g id="edge50" class="edge">
<title>12&#45;&gt;17</title>
<path fill="none" stroke="grey" stroke-width="2" d="M1356.11,-518.47C1407.81,-514 1494.37,-501.71 1560.52,-468 1564.52,-465.96 1798.7,-256.1 1800.52,-252 1807.03,-237.38 1808.33,-229.97 1800.52,-216 1770.74,-162.7 1741.4,-163.46 1683.52,-144 1591.94,-113.2 1301.83,-97.87 1186.99,-92.88"/>
<polygon fill="grey" stroke="grey" stroke-width="2" points="1186.9,-89.37 1176.76,-92.44 1186.6,-96.37 1186.9,-89.37"/>
</g>
<!-- 18 -->
<g id="node19" class="node">
<title>18</title>
<path fill="none" stroke="#d8a456" stroke-width="2" d="M1196.02,-396C1196.02,-396 1107.02,-396 1107.02,-396 1101.02,-396 1095.02,-390 1095.02,-384 1095.02,-384 1095.02,-372 1095.02,-372 1095.02,-366 1101.02,-360 1107.02,-360 1107.02,-360 1196.02,-360 1196.02,-360 1202.02,-360 1208.02,-366 1208.02,-372 1208.02,-372 1208.02,-384 1208.02,-384 1208.02,-390 1202.02,-396 1196.02,-396"/>
<text text-anchor="middle" x="1151.52" y="-375.5" font-family="sans" font-size="10.00">compare_muteffects</text>
</g>
<!-- 12&#45;&gt;18 -->
<g id="edge62" class="edge">
<title>12&#45;&gt;18</title>
<path fill="none" stroke="grey" stroke-width="2" d="M1276.19,-503.8C1259.02,-494.51 1238.65,-482.07 1222.52,-468 1201.18,-449.38 1181.48,-423.72 1168.28,-404.73"/>
<polygon fill="grey" stroke="grey" stroke-width="2" points="1171.03,-402.56 1162.51,-396.27 1165.25,-406.5 1171.03,-402.56"/>
</g>
<!-- 12&#45;&gt;23 -->
<g id="edge67" class="edge">
<title>12&#45;&gt;23</title>
<path fill="none" stroke="grey" stroke-width="2" d="M1266.97,-508.24C1198.94,-488.1 1065.76,-446.02 958.52,-396 946.93,-390.59 885.41,-353.89 844.56,-329.33"/>
<polygon fill="grey" stroke="grey" stroke-width="2" points="846.3,-326.3 835.93,-324.14 842.7,-332.3 846.3,-326.3"/>
</g>
<!-- 24 -->
<g id="node25" class="node">
<title>24</title>
<path fill="none" stroke="#9fd856" stroke-width="2" d="M1779.02,-252C1779.02,-252 1676.02,-252 1676.02,-252 1670.02,-252 1664.02,-246 1664.02,-240 1664.02,-240 1664.02,-228 1664.02,-228 1664.02,-222 1670.02,-216 1676.02,-216 1676.02,-216 1779.02,-216 1779.02,-216 1785.02,-216 1791.02,-222 1791.02,-228 1791.02,-228 1791.02,-240 1791.02,-240 1791.02,-246 1785.02,-252 1779.02,-252"/>
<text text-anchor="middle" x="1727.52" y="-231.5" font-family="sans" font-size="10.00">format_muteffects_plot</text>
</g>
<!-- 12&#45;&gt;24 -->
<g id="edge79" class="edge">
<title>12&#45;&gt;24</title>
<path fill="none" stroke="grey" stroke-width="2" d="M1356.2,-519.14C1402.67,-515.25 1475.75,-503.45 1527.52,-468 1608.1,-412.83 1584.85,-357.42 1653.52,-288 1664.54,-276.86 1678.12,-266.41 1690.63,-257.77"/>
<polygon fill="grey" stroke="grey" stroke-width="2" points="1692.72,-260.58 1699.07,-252.1 1688.82,-254.77 1692.72,-260.58"/>
</g>
<!-- 12&#45;&gt;27 -->
<g id="edge90" class="edge">
<title>12&#45;&gt;27</title>
<path fill="none" stroke="grey" stroke-width="2" d="M1305.87,-503.93C1294.31,-471.49 1264.99,-400.61 1217.52,-360 1184.16,-331.46 1161.32,-349.43 1125.52,-324 1097.64,-304.2 1037.55,-228.34 1006.68,-188.22"/>
<polygon fill="grey" stroke="grey" stroke-width="2" points="1009.42,-186.04 1000.56,-180.24 1003.87,-190.3 1009.42,-186.04"/>
</g>
<!-- 13&#45;&gt;12 -->
<g id="edge26" class="edge">
<title>13&#45;&gt;12</title>
<path fill="none" stroke="grey" stroke-width="2" d="M1151.53,-576.59C1183.12,-566 1224.26,-552.23 1256.91,-541.29"/>
<polygon fill="grey" stroke="grey" stroke-width="2" points="1258.38,-544.49 1266.75,-538 1256.16,-537.85 1258.38,-544.49"/>
</g>
<!-- 13&#45;&gt;17 -->
<g id="edge52" class="edge">
<title>13&#45;&gt;17</title>
<path fill="none" stroke="grey" stroke-width="2" d="M1151.73,-589.24C1331.57,-573.19 1936.62,-497.76 1816.52,-216 1798.41,-173.49 1783.59,-163.11 1741.52,-144 1642.79,-99.15 1310.96,-92.17 1186.87,-91.15"/>
<polygon fill="grey" stroke="grey" stroke-width="2" points="1186.59,-87.65 1176.57,-91.07 1186.54,-94.65 1186.59,-87.65"/>
</g>
<!-- 13&#45;&gt;23 -->
<g id="edge72" class="edge">
<title>13&#45;&gt;23</title>
<path fill="none" stroke="grey" stroke-width="2" d="M1074.47,-575.84C1025.46,-544.8 923.1,-475.13 856.52,-396 840.57,-377.04 827.37,-352.08 818.7,-333.42"/>
<polygon fill="grey" stroke="grey" stroke-width="2" points="821.89,-331.98 814.59,-324.3 815.51,-334.86 821.89,-331.98"/>
</g>
<!-- 13&#45;&gt;27 -->
<g id="edge92" class="edge">
<title>13&#45;&gt;27</title>
<path fill="none" stroke="grey" stroke-width="2" d="M1094.17,-575.81C1070.91,-526.76 1006.06,-381.3 989.52,-252 986.89,-231.43 986.47,-207.98 986.66,-190.32"/>
<polygon fill="grey" stroke="grey" stroke-width="2" points="990.17,-190.2 986.85,-180.14 983.17,-190.08 990.17,-190.2"/>
</g>
<!-- 14&#45;&gt;13 -->
<g id="edge28" class="edge">
<title>14&#45;&gt;13</title>
<path fill="none" stroke="grey" stroke-width="2" d="M834.29,-656.76C885.73,-644.92 981.23,-622.93 1043.3,-608.64"/>
<polygon fill="grey" stroke="grey" stroke-width="2" points="1044.39,-611.98 1053.34,-606.32 1042.81,-605.16 1044.39,-611.98"/>
</g>
<!-- 19 -->
<g id="node20" class="node">
<title>19</title>
<path fill="none" stroke="#59d856" stroke-width="2" d="M476.52,-396C476.52,-396 390.52,-396 390.52,-396 384.52,-396 378.52,-390 378.52,-384 378.52,-384 378.52,-372 378.52,-372 378.52,-366 384.52,-360 390.52,-360 390.52,-360 476.52,-360 476.52,-360 482.52,-360 488.52,-366 488.52,-372 488.52,-372 488.52,-384 488.52,-384 488.52,-390 482.52,-396 476.52,-396"/>
<text text-anchor="middle" x="433.52" y="-375.5" font-family="sans" font-size="10.00">analyze_func_scores</text>
</g>
<!-- 14&#45;&gt;19 -->
<g id="edge63" class="edge">
<title>14&#45;&gt;19</title>
<path fill="none" stroke="grey" stroke-width="2" d="M762.99,-656.08C735.99,-647.96 699.09,-633.87 672.52,-612 598.09,-550.75 625.22,-494.14 551.52,-432 535.74,-418.69 516.06,-408.1 497.33,-400"/>
<polygon fill="grey" stroke="grey" stroke-width="2" points="498.52,-396.7 487.95,-396.1 495.84,-403.17 498.52,-396.7"/>
</g>
<!-- 15&#45;&gt;11 -->
<g id="edge23" class="edge">
<title>15&#45;&gt;11</title>
<path fill="none" stroke="grey" stroke-width="2" d="M1173.32,-513.23C1223.2,-503.17 1312.45,-484.91 1388.52,-468 1389.97,-467.68 1391.44,-467.35 1392.92,-467.02"/>
<polygon fill="grey" stroke="grey" stroke-width="2" points="1393.81,-470.4 1402.79,-464.77 1392.26,-463.58 1393.81,-470.4"/>
</g>
<!-- 15&#45;&gt;17 -->
<g id="edge46" class="edge">
<title>15&#45;&gt;17</title>
<path fill="none" stroke="grey" stroke-width="2" d="M1173.3,-516.02C1234.62,-505.83 1352.28,-476.32 1403.52,-396 1412.13,-382.51 1410.32,-374.48 1403.52,-360 1371.61,-292 1325.14,-306.57 1273.52,-252 1232.48,-208.6 1232.74,-189.06 1193.52,-144 1184.97,-134.17 1174.93,-124 1165.85,-115.22"/>
<polygon fill="grey" stroke="grey" stroke-width="2" points="1168.15,-112.59 1158.5,-108.22 1163.33,-117.65 1168.15,-112.59"/>
</g>
<!-- 15&#45;&gt;23 -->
<g id="edge74" class="edge">
<title>15&#45;&gt;23</title>
<path fill="none" stroke="grey" stroke-width="2" d="M1096.01,-505.69C1072.13,-495.79 1041.06,-482.14 1014.52,-468 961.64,-439.82 947.74,-432.9 900.52,-396 875.1,-376.13 848.77,-350.37 830.65,-331.67"/>
<polygon fill="grey" stroke="grey" stroke-width="2" points="832.86,-328.92 823.41,-324.14 827.81,-333.77 832.86,-328.92"/>
</g>
<!-- 15&#45;&gt;27 -->
<g id="edge86" class="edge">
<title>15&#45;&gt;27</title>
<path fill="none" stroke="grey" stroke-width="2" d="M1123.64,-503.89C1102.64,-470.37 1055.92,-393.26 1025.52,-324 1011.97,-293.11 1009.51,-284.77 1001.52,-252 996.56,-231.61 992.95,-208.15 990.65,-190.44"/>
<polygon fill="grey" stroke="grey" stroke-width="2" points="994.08,-189.72 989.38,-180.23 987.14,-190.58 994.08,-189.72"/>
</g>
<!-- 16&#45;&gt;15 -->
<g id="edge34" class="edge">
<title>16&#45;&gt;15</title>
<path fill="none" stroke="grey" stroke-width="2" d="M965.68,-647.73C983.83,-628.86 1014.67,-598.34 1044.52,-576 1059.45,-564.83 1076.91,-554.08 1092.45,-545.22"/>
<polygon fill="grey" stroke="grey" stroke-width="2" points="1094.34,-548.17 1101.35,-540.23 1090.91,-542.07 1094.34,-548.17"/>
</g>
<!-- 20 -->
<g id="node21" class="node">
<title>20</title>
<path fill="none" stroke="#8fd856" stroke-width="2" d="M608.52,-396C608.52,-396 518.52,-396 518.52,-396 512.52,-396 506.52,-390 506.52,-384 506.52,-384 506.52,-372 506.52,-372 506.52,-366 512.52,-360 518.52,-360 518.52,-360 608.52,-360 608.52,-360 614.52,-360 620.52,-366 620.52,-372 620.52,-372 620.52,-384 620.52,-384 620.52,-390 614.52,-396 608.52,-396"/>
<text text-anchor="middle" x="563.52" y="-375.5" font-family="sans" font-size="10.00">analyze_prob_escape</text>
</g>
<!-- 16&#45;&gt;20 -->
<g id="edge64" class="edge">
<title>16&#45;&gt;20</title>
<path fill="none" stroke="grey" stroke-width="2" d="M926.53,-647.97C860.58,-599.1 670.67,-458.39 595.1,-402.39"/>
<polygon fill="grey" stroke="grey" stroke-width="2" points="597,-399.45 586.88,-396.31 592.83,-405.07 597,-399.45"/>
</g>
<!-- 17&#45;&gt;0 -->
<g id="edge5" class="edge">
<title>17&#45;&gt;0</title>
<path fill="none" stroke="grey" stroke-width="2" d="M1139.52,-71.7C1139.52,-63.98 1139.52,-54.71 1139.52,-46.11"/>
<polygon fill="grey" stroke="grey" stroke-width="2" points="1143.02,-46.1 1139.52,-36.1 1136.02,-46.1 1143.02,-46.1"/>
</g>
<!-- 18&#45;&gt;17 -->
<g id="edge45" class="edge">
<title>18&#45;&gt;17</title>
<path fill="none" stroke="grey" stroke-width="2" d="M1150.81,-359.97C1148.81,-312.29 1143.14,-177.18 1140.68,-118.63"/>
<polygon fill="grey" stroke="grey" stroke-width="2" points="1144.17,-118.15 1140.25,-108.31 1137.17,-118.44 1144.17,-118.15"/>
</g>
<!-- 18&#45;&gt;23 -->
<g id="edge73" class="edge">
<title>18&#45;&gt;23</title>
<path fill="none" stroke="grey" stroke-width="2" d="M1094.72,-365.44C1027.65,-351.79 917.35,-329.35 854.76,-316.61"/>
<polygon fill="grey" stroke="grey" stroke-width="2" points="855.26,-313.14 844.76,-314.58 853.86,-320 855.26,-313.14"/>
</g>
<!-- 18&#45;&gt;27 -->
<g id="edge85" class="edge">
<title>18&#45;&gt;27</title>
<path fill="none" stroke="grey" stroke-width="2" d="M1102.03,-359.98C1083.54,-351.57 1063.62,-339.77 1049.52,-324 1031.25,-303.56 1007.41,-230.03 995.3,-189.78"/>
<polygon fill="grey" stroke="grey" stroke-width="2" points="998.63,-188.67 992.42,-180.09 991.92,-190.67 998.63,-188.67"/>
</g>
<!-- 19&#45;&gt;17 -->
<g id="edge51" class="edge">
<title>19&#45;&gt;17</title>
<path fill="none" stroke="grey" stroke-width="2" d="M443.41,-359.97C470.35,-315.38 549.92,-195.14 652.52,-144 728.95,-105.91 985.14,-94.96 1092.04,-92.02"/>
<polygon fill="grey" stroke="grey" stroke-width="2" points="1092.31,-95.51 1102.21,-91.75 1092.12,-88.51 1092.31,-95.51"/>
</g>
<!-- 19&#45;&gt;23 -->
<g id="edge68" class="edge">
<title>19&#45;&gt;23</title>
<path fill="none" stroke="grey" stroke-width="2" d="M488.61,-362.03C491.62,-361.32 494.6,-360.64 497.52,-360 589.81,-339.9 698.93,-322.76 759.99,-313.76"/>
<polygon fill="grey" stroke="grey" stroke-width="2" points="760.71,-317.2 770.09,-312.28 759.69,-310.27 760.71,-317.2"/>
</g>
<!-- 19&#45;&gt;27 -->
<g id="edge91" class="edge">
<title>19&#45;&gt;27</title>
<path fill="none" stroke="grey" stroke-width="2" d="M475.38,-359.89C556.75,-326.59 728.87,-255.96 734.52,-252 752.3,-239.54 748.83,-227.02 767.52,-216 797.08,-198.58 888.68,-180.26 943.93,-170.38"/>
<polygon fill="grey" stroke="grey" stroke-width="2" points="944.56,-173.82 953.8,-168.63 943.34,-166.93 944.56,-173.82"/>
</g>
<!-- 20&#45;&gt;17 -->
<g id="edge48" class="edge">
<title>20&#45;&gt;17</title>
<path fill="none" stroke="grey" stroke-width="2" d="M567.49,-359.79C578.9,-314.75 616.43,-193.49 699.52,-144 765.04,-104.98 992.93,-94.61 1092.43,-91.92"/>
<polygon fill="grey" stroke="grey" stroke-width="2" points="1092.6,-95.41 1102.5,-91.66 1092.42,-88.42 1092.6,-95.41"/>
</g>
<!-- 20&#45;&gt;23 -->
<g id="edge71" class="edge">
<title>20&#45;&gt;23</title>
<path fill="none" stroke="grey" stroke-width="2" d="M620.76,-362.15C659.28,-351.94 711.14,-337.78 756.52,-324 757.78,-323.62 759.05,-323.23 760.33,-322.83"/>
<polygon fill="grey" stroke="grey" stroke-width="2" points="761.8,-326.04 770.27,-319.67 759.68,-319.36 761.8,-326.04"/>
</g>
<!-- 20&#45;&gt;27 -->
<g id="edge88" class="edge">
<title>20&#45;&gt;27</title>
<path fill="none" stroke="grey" stroke-width="2" d="M591.5,-359.83C658.16,-318.91 821.33,-218.87 827.52,-216 865.66,-198.33 911.38,-183.81 944.16,-174.46"/>
<polygon fill="grey" stroke="grey" stroke-width="2" points="945.21,-177.8 953.89,-171.73 943.32,-171.06 945.21,-177.8"/>
</g>
<!-- 21&#45;&gt;17 -->
<g id="edge41" class="edge">
<title>21&#45;&gt;17</title>
<path fill="none" stroke="grey" stroke-width="2" d="M1332.07,-359.95C1309.87,-336.55 1269.64,-292.75 1239.52,-252 1205.88,-206.48 1172.3,-149.44 1153.89,-116.92"/>
<polygon fill="grey" stroke="grey" stroke-width="2" points="1156.85,-115.03 1148.89,-108.03 1150.74,-118.47 1156.85,-115.03"/>
</g>
<!-- 21&#45;&gt;23 -->
<g id="edge69" class="edge">
<title>21&#45;&gt;23</title>
<path fill="none" stroke="grey" stroke-width="2" d="M1302.45,-371.02C1277.34,-367.76 1245.73,-363.65 1217.52,-360 1086.15,-342.98 931.09,-322.96 854.79,-313.1"/>
<polygon fill="grey" stroke="grey" stroke-width="2" points="854.92,-309.59 844.56,-311.78 854.03,-316.53 854.92,-309.59"/>
</g>
<!-- 21&#45;&gt;27 -->
<g id="edge81" class="edge">
<title>21&#45;&gt;27</title>
<path fill="none" stroke="grey" stroke-width="2" d="M1302.29,-363.36C1265.68,-352.02 1218.06,-335.86 1201.52,-324 1151.66,-288.24 1164.54,-252.91 1115.52,-216 1090.22,-196.95 1057.09,-183.47 1030.87,-174.88"/>
<polygon fill="grey" stroke="grey" stroke-width="2" points="1031.78,-171.5 1021.19,-171.82 1029.67,-178.17 1031.78,-171.5"/>
</g>
<!-- 22 -->
<g id="node23" class="node">
<title>22</title>
<path fill="none" stroke="#d86656" stroke-width="2" d="M713.52,-252C713.52,-252 679.52,-252 679.52,-252 673.52,-252 667.52,-246 667.52,-240 667.52,-240 667.52,-228 667.52,-228 667.52,-222 673.52,-216 679.52,-216 679.52,-216 713.52,-216 713.52,-216 719.52,-216 725.52,-222 725.52,-228 725.52,-228 725.52,-240 725.52,-240 725.52,-246 719.52,-252 713.52,-252"/>
<text text-anchor="middle" x="696.52" y="-231.5" font-family="sans" font-size="10.00">subindex</text>
</g>
<!-- 22&#45;&gt;17 -->
<g id="edge42" class="edge">
<title>22&#45;&gt;17</title>
<path fill="none" stroke="grey" stroke-width="2" d="M725.75,-217.81C764.24,-198.34 834.41,-164.65 897.52,-144 963.74,-122.34 1043.04,-106.87 1092.37,-98.43"/>
<polygon fill="grey" stroke="grey" stroke-width="2" points="1093.14,-101.85 1102.42,-96.74 1091.98,-94.95 1093.14,-101.85"/>
</g>
<!-- 22&#45;&gt;27 -->
<g id="edge82" class="edge">
<title>22&#45;&gt;27</title>
<path fill="none" stroke="grey" stroke-width="2" d="M725.9,-220.64C730.42,-218.96 735.07,-217.35 739.52,-216 809.76,-194.77 893.64,-178.72 943.64,-170.1"/>
<polygon fill="grey" stroke="grey" stroke-width="2" points="944.51,-173.51 953.78,-168.38 943.34,-166.61 944.51,-173.51"/>
</g>
<!-- 23&#45;&gt;17 -->
<g id="edge58" class="edge">
<title>23&#45;&gt;17</title>
<path fill="none" stroke="grey" stroke-width="2" d="M770.4,-303.3C735.08,-299.47 683.69,-287.67 658.52,-252 649.3,-238.93 650.09,-229.6 658.52,-216 704.7,-141.51 980.51,-106.53 1092.41,-95.26"/>
<polygon fill="grey" stroke="grey" stroke-width="2" points="1092.79,-98.74 1102.39,-94.27 1092.1,-91.77 1092.79,-98.74"/>
</g>
<!-- 23&#45;&gt;22 -->
<g id="edge66" class="edge">
<title>23&#45;&gt;22</title>
<path fill="none" stroke="grey" stroke-width="2" d="M780.37,-287.88C765.99,-278.81 748.14,-267.55 732.61,-257.76"/>
<polygon fill="grey" stroke="grey" stroke-width="2" points="734.11,-254.56 723.78,-252.19 730.37,-260.48 734.11,-254.56"/>
</g>
<!-- 23&#45;&gt;27 -->
<g id="edge97" class="edge">
<title>23&#45;&gt;27</title>
<path fill="none" stroke="grey" stroke-width="2" d="M813.7,-287.69C821.55,-267.92 836.87,-235.76 859.52,-216 883.63,-194.97 917.24,-181.49 943.97,-173.38"/>
<polygon fill="grey" stroke="grey" stroke-width="2" points="945.21,-176.67 953.85,-170.54 943.27,-169.94 945.21,-176.67"/>
</g>
<!-- 24&#45;&gt;17 -->
<g id="edge47" class="edge">
<title>24&#45;&gt;17</title>
<path fill="none" stroke="grey" stroke-width="2" d="M1717.98,-215.79C1705.33,-194.83 1680.91,-160.24 1649.52,-144 1569.58,-102.65 1297.69,-93.55 1187,-91.56"/>
<polygon fill="grey" stroke="grey" stroke-width="2" points="1186.86,-88.06 1176.8,-91.39 1186.74,-95.06 1186.86,-88.06"/>
</g>
<!-- 24&#45;&gt;27 -->
<g id="edge87" class="edge">
<title>24&#45;&gt;27</title>
<path fill="none" stroke="grey" stroke-width="2" d="M1663.94,-222.5C1648.45,-220.16 1631.92,-217.82 1616.52,-216 1397.42,-190.02 1133.9,-172.12 1031.35,-165.66"/>
<polygon fill="grey" stroke="grey" stroke-width="2" points="1031.56,-162.17 1021.36,-165.04 1031.12,-169.16 1031.56,-162.17"/>
</g>
<!-- 25 -->
<g id="node26" class="node">
<title>25</title>
<path fill="none" stroke="#d88d56" stroke-width="2" d="M1595.52,-252C1595.52,-252 1541.52,-252 1541.52,-252 1535.52,-252 1529.52,-246 1529.52,-240 1529.52,-240 1529.52,-228 1529.52,-228 1529.52,-222 1535.52,-216 1541.52,-216 1541.52,-216 1595.52,-216 1595.52,-216 1601.52,-216 1607.52,-222 1607.52,-228 1607.52,-228 1607.52,-240 1607.52,-240 1607.52,-246 1601.52,-252 1595.52,-252"/>
<text text-anchor="middle" x="1568.52" y="-231.5" font-family="sans" font-size="10.00">make_graphs</text>
</g>
<!-- 25&#45;&gt;17 -->
<g id="edge44" class="edge">
<title>25&#45;&gt;17</title>
<path fill="none" stroke="grey" stroke-width="2" d="M1529.35,-219.78C1477.5,-202.3 1383.22,-170.62 1302.52,-144 1263.47,-131.12 1219.08,-116.7 1186.49,-106.16"/>
<polygon fill="grey" stroke="grey" stroke-width="2" points="1187.37,-102.76 1176.78,-103.01 1185.22,-109.42 1187.37,-102.76"/>
</g>
<!-- 25&#45;&gt;27 -->
<g id="edge84" class="edge">
<title>25&#45;&gt;27</title>
<path fill="none" stroke="grey" stroke-width="2" d="M1529.41,-219.44C1524.77,-218.13 1520.07,-216.95 1515.52,-216 1338.54,-179.16 1122.65,-167.66 1031.49,-164.29"/>
<polygon fill="grey" stroke="grey" stroke-width="2" points="1031.37,-160.79 1021.25,-163.93 1031.12,-167.78 1031.37,-160.79"/>
</g>
<!-- 26&#45;&gt;17 -->
<g id="edge49" class="edge">
<title>26&#45;&gt;17</title>
<path fill="none" stroke="grey" stroke-width="2" d="M1344.64,-215.93C1328.02,-196.39 1298.51,-164.45 1267.52,-144 1242.54,-127.51 1211.59,-114.52 1186.38,-105.53"/>
<polygon fill="grey" stroke="grey" stroke-width="2" points="1187.27,-102.14 1176.67,-102.17 1184.97,-108.75 1187.27,-102.14"/>
</g>
<!-- 26&#45;&gt;27 -->
<g id="edge89" class="edge">
<title>26&#45;&gt;27</title>
<path fill="none" stroke="grey" stroke-width="2" d="M1281.65,-218.5C1206.01,-204.22 1093.17,-182.93 1031.56,-171.31"/>
<polygon fill="grey" stroke="grey" stroke-width="2" points="1031.87,-167.81 1021.4,-169.39 1030.58,-174.68 1031.87,-167.81"/>
</g>
<!-- 27&#45;&gt;17 -->
<g id="edge53" class="edge">
<title>27&#45;&gt;17</title>
<path fill="none" stroke="grey" stroke-width="2" d="M1021.26,-145.46C1042.4,-135.73 1069.93,-123.05 1093.12,-112.37"/>
<polygon fill="grey" stroke="grey" stroke-width="2" points="1094.8,-115.45 1102.42,-108.09 1091.88,-109.09 1094.8,-115.45"/>
</g>
</g>
</svg>
