<?xml version="1.0" encoding="UTF-8" standalone="no"?>
<!DOCTYPE svg PUBLIC "-//W3C//DTD SVG 1.1//EN"
 "http://www.w3.org/Graphics/SVG/1.1/DTD/svg11.dtd">
<!-- Generated by graphviz version 6.0.2 (20221126.1951)
 -->
<!-- Title: snakemake_dag Pages: 1 -->
<svg width="2164pt" height="1268pt"
 viewBox="0.00 0.00 2163.80 1268.00" xmlns="http://www.w3.org/2000/svg" xmlns:xlink="http://www.w3.org/1999/xlink">
<g id="graph0" class="graph" transform="scale(1 1) rotate(0) translate(4 1264)">
<title>snakemake_dag</title>
<polygon fill="white" stroke="none" points="-4,4 -4,-1264 2159.8,-1264 2159.8,4 -4,4"/>
<!-- 0 -->
<g id="node1" class="node">
<title>0</title>
<path fill="none" stroke="#56d87b" stroke-width="2" d="M1171.79,-36C1171.79,-36 1141.79,-36 1141.79,-36 1135.79,-36 1129.79,-30 1129.79,-24 1129.79,-24 1129.79,-12 1129.79,-12 1129.79,-6 1135.79,0 1141.79,0 1141.79,0 1171.79,0 1171.79,0 1177.79,0 1183.79,-6 1183.79,-12 1183.79,-12 1183.79,-24 1183.79,-24 1183.79,-30 1177.79,-36 1171.79,-36"/>
<text text-anchor="middle" x="1156.79" y="-15.5" font-family="sans" font-size="10.00">all</text>
</g>
<!-- 1 -->
<g id="node2" class="node">
<title>1</title>
<path fill="none" stroke="#56d8b1" stroke-width="2" d="M646.29,-900C646.29,-900 581.29,-900 581.29,-900 575.29,-900 569.29,-894 569.29,-888 569.29,-888 569.29,-876 569.29,-876 569.29,-870 575.29,-864 581.29,-864 581.29,-864 646.29,-864 646.29,-864 652.29,-864 658.29,-870 658.29,-876 658.29,-876 658.29,-888 658.29,-888 658.29,-894 652.29,-900 646.29,-900"/>
<text text-anchor="middle" x="613.79" y="-879.5" font-family="sans" font-size="10.00">variant_counts</text>
</g>
<!-- 1&#45;&gt;0 -->
<g id="edge2" class="edge">
<title>1&#45;&gt;0</title>
<path fill="none" stroke="grey" stroke-width="2" d="M591.84,-863.88C578.88,-853.64 562.23,-840.28 547.79,-828 293.98,-612.17 8.79,-640.17 8.79,-307 8.79,-307 8.79,-307 8.79,-161 8.79,-144.19 -49.83,-135.54 137.79,-72 232.09,-40.07 946.49,-23.35 1119.26,-19.75"/>
<polygon fill="grey" stroke="grey" stroke-width="2" points="1119.46,-23.24 1129.39,-19.54 1119.32,-16.25 1119.46,-23.24"/>
</g>
<!-- 10 -->
<g id="node11" class="node">
<title>10</title>
<path fill="none" stroke="#566bd8" stroke-width="2" d="M460.79,-828C460.79,-828 352.79,-828 352.79,-828 346.79,-828 340.79,-822 340.79,-816 340.79,-816 340.79,-804 340.79,-804 340.79,-798 346.79,-792 352.79,-792 352.79,-792 460.79,-792 460.79,-792 466.79,-792 472.79,-798 472.79,-804 472.79,-804 472.79,-816 472.79,-816 472.79,-822 466.79,-828 460.79,-828"/>
<text text-anchor="middle" x="406.79" y="-807.5" font-family="sans" font-size="10.00">analyze_variant_counts</text>
</g>
<!-- 1&#45;&gt;10 -->
<g id="edge18" class="edge">
<title>1&#45;&gt;10</title>
<path fill="none" stroke="grey" stroke-width="2" d="M569.13,-865.9C539.29,-855.81 499.69,-842.42 467.07,-831.38"/>
<polygon fill="grey" stroke="grey" stroke-width="2" points="467.78,-827.93 457.19,-828.04 465.54,-834.56 467.78,-827.93"/>
</g>
<!-- 14 -->
<g id="node15" class="node">
<title>14</title>
<path fill="none" stroke="#56d8d8" stroke-width="2" d="M833.79,-684C833.79,-684 783.79,-684 783.79,-684 777.79,-684 771.79,-678 771.79,-672 771.79,-672 771.79,-660 771.79,-660 771.79,-654 777.79,-648 783.79,-648 783.79,-648 833.79,-648 833.79,-648 839.79,-648 845.79,-654 845.79,-660 845.79,-660 845.79,-672 845.79,-672 845.79,-678 839.79,-684 833.79,-684"/>
<text text-anchor="middle" x="808.79" y="-663.5" font-family="sans" font-size="10.00">func_scores</text>
</g>
<!-- 1&#45;&gt;14 -->
<g id="edge29" class="edge">
<title>1&#45;&gt;14</title>
<path fill="none" stroke="grey" stroke-width="2" d="M635.79,-863.88C664.26,-841.1 714.51,-798.69 750.79,-756 767.55,-736.28 783.36,-711.45 794.23,-693.02"/>
<polygon fill="grey" stroke="grey" stroke-width="2" points="797.3,-694.7 799.29,-684.29 791.25,-691.18 797.3,-694.7"/>
</g>
<!-- 16 -->
<g id="node17" class="node">
<title>16</title>
<path fill="none" stroke="#d88d56" stroke-width="2" d="M982.79,-684C982.79,-684 928.79,-684 928.79,-684 922.79,-684 916.79,-678 916.79,-672 916.79,-672 916.79,-660 916.79,-660 916.79,-654 922.79,-648 928.79,-648 928.79,-648 982.79,-648 982.79,-648 988.79,-648 994.79,-654 994.79,-660 994.79,-660 994.79,-672 994.79,-672 994.79,-678 988.79,-684 982.79,-684"/>
<text text-anchor="middle" x="955.79" y="-663.5" font-family="sans" font-size="10.00">prob_escape</text>
</g>
<!-- 1&#45;&gt;16 -->
<g id="edge36" class="edge">
<title>1&#45;&gt;16</title>
<path fill="none" stroke="grey" stroke-width="2" d="M647.31,-863.8C666.43,-853.76 690.72,-840.62 711.79,-828 789.1,-781.71 876.55,-722.18 922.88,-690.05"/>
<polygon fill="grey" stroke="grey" stroke-width="2" points="925.1,-692.77 931.31,-684.19 921.1,-687.02 925.1,-692.77"/>
</g>
<!-- 17 -->
<g id="node18" class="node">
<title>17</title>
<path fill="none" stroke="#d86656" stroke-width="2" d="M1183.79,-108C1183.79,-108 1129.79,-108 1129.79,-108 1123.79,-108 1117.79,-102 1117.79,-96 1117.79,-96 1117.79,-84 1117.79,-84 1117.79,-78 1123.79,-72 1129.79,-72 1129.79,-72 1183.79,-72 1183.79,-72 1189.79,-72 1195.79,-78 1195.79,-84 1195.79,-84 1195.79,-96 1195.79,-96 1195.79,-102 1189.79,-108 1183.79,-108"/>
<text text-anchor="middle" x="1156.79" y="-87.5" font-family="sans" font-size="10.00">sphinx_build</text>
</g>
<!-- 1&#45;&gt;17 -->
<g id="edge55" class="edge">
<title>1&#45;&gt;17</title>
<path fill="none" stroke="grey" stroke-width="2" d="M598,-863.62C589.36,-853.62 578.82,-840.59 570.79,-828 556.42,-805.48 365.81,-422.02 359.79,-396 356.19,-380.41 353.16,-374.56 359.79,-360 420.34,-226.96 473.53,-201.78 607.79,-144 697.12,-105.56 990.31,-94.75 1107.63,-91.93"/>
<polygon fill="grey" stroke="grey" stroke-width="2" points="1107.84,-95.43 1117.76,-91.69 1107.68,-88.43 1107.84,-95.43"/>
</g>
<!-- 27 -->
<g id="node28" class="node">
<title>27</title>
<path fill="none" stroke="#c6d856" stroke-width="2" d="M1028.29,-180C1028.29,-180 981.29,-180 981.29,-180 975.29,-180 969.29,-174 969.29,-168 969.29,-168 969.29,-156 969.29,-156 969.29,-150 975.29,-144 981.29,-144 981.29,-144 1028.29,-144 1028.29,-144 1034.29,-144 1040.29,-150 1040.29,-156 1040.29,-156 1040.29,-168 1040.29,-168 1040.29,-174 1034.29,-180 1028.29,-180"/>
<text text-anchor="middle" x="1004.79" y="-159.5" font-family="sans" font-size="10.00">docs_index</text>
</g>
<!-- 1&#45;&gt;27 -->
<g id="edge94" class="edge">
<title>1&#45;&gt;27</title>
<path fill="none" stroke="grey" stroke-width="2" d="M605.89,-863.77C595.02,-839.8 575.04,-794.96 559.79,-756 504.15,-613.85 547.97,-545.41 445.79,-432 420.77,-404.23 389.78,-427.58 369.79,-396 361.24,-382.48 361.26,-373.54 369.79,-360 389.56,-328.63 635.39,-227.02 670.79,-216 770.62,-184.92 893.19,-171.43 958.55,-166.1"/>
<polygon fill="grey" stroke="grey" stroke-width="2" points="959.23,-169.56 968.92,-165.29 958.68,-162.58 959.23,-169.56"/>
</g>
<!-- 2 -->
<g id="node3" class="node">
<title>2</title>
<path fill="none" stroke="#567bd8" stroke-width="2" d="M650.29,-972C650.29,-972 581.29,-972 581.29,-972 575.29,-972 569.29,-966 569.29,-960 569.29,-960 569.29,-948 569.29,-948 569.29,-942 575.29,-936 581.29,-936 581.29,-936 650.29,-936 650.29,-936 656.29,-936 662.29,-942 662.29,-948 662.29,-948 662.29,-960 662.29,-960 662.29,-966 656.29,-972 650.29,-972"/>
<text text-anchor="middle" x="615.79" y="-951.5" font-family="sans" font-size="10.00">count_barcodes</text>
</g>
<!-- 2&#45;&gt;1 -->
<g id="edge8" class="edge">
<title>2&#45;&gt;1</title>
<path fill="none" stroke="grey" stroke-width="2" d="M615.3,-935.7C615.08,-927.98 614.81,-918.71 614.57,-910.11"/>
<polygon fill="grey" stroke="grey" stroke-width="2" points="618.06,-910 614.28,-900.1 611.07,-910.2 618.06,-910"/>
</g>
<!-- 2&#45;&gt;10 -->
<g id="edge20" class="edge">
<title>2&#45;&gt;10</title>
<path fill="none" stroke="grey" stroke-width="2" d="M597.78,-935.68C574.14,-913.15 533.68,-875.33 516.79,-864 498.71,-851.88 477.43,-840.95 458.43,-832.21"/>
<polygon fill="grey" stroke="grey" stroke-width="2" points="459.87,-829.02 449.32,-828.1 456.99,-835.4 459.87,-829.02"/>
</g>
<!-- 3 -->
<g id="node4" class="node">
<title>3</title>
<path fill="none" stroke="#56d88a" stroke-width="2" d="M833.79,-1044C833.79,-1044 737.79,-1044 737.79,-1044 731.79,-1044 725.79,-1038 725.79,-1032 725.79,-1032 725.79,-1020 725.79,-1020 725.79,-1014 731.79,-1008 737.79,-1008 737.79,-1008 833.79,-1008 833.79,-1008 839.79,-1008 845.79,-1014 845.79,-1020 845.79,-1020 845.79,-1032 845.79,-1032 845.79,-1038 839.79,-1044 833.79,-1044"/>
<text text-anchor="middle" x="785.79" y="-1023.5" font-family="sans" font-size="10.00">build_codon_variants</text>
</g>
<!-- 3&#45;&gt;1 -->
<g id="edge7" class="edge">
<title>3&#45;&gt;1</title>
<path fill="none" stroke="grey" stroke-width="2" d="M765.04,-1007.87C734.44,-982.6 677.08,-935.25 642.47,-906.68"/>
<polygon fill="grey" stroke="grey" stroke-width="2" points="644.55,-903.86 634.61,-900.19 640.1,-909.25 644.55,-903.86"/>
</g>
<!-- 3&#45;&gt;2 -->
<g id="edge9" class="edge">
<title>3&#45;&gt;2</title>
<path fill="none" stroke="grey" stroke-width="2" d="M744.2,-1007.88C720.76,-998.22 691.29,-986.09 666.49,-975.88"/>
<polygon fill="grey" stroke="grey" stroke-width="2" points="667.82,-972.64 657.24,-972.07 665.16,-979.11 667.82,-972.64"/>
</g>
<!-- 3&#45;&gt;10 -->
<g id="edge22" class="edge">
<title>3&#45;&gt;10</title>
<path fill="none" stroke="grey" stroke-width="2" d="M725.72,-1020.38C678.07,-1014.57 611.18,-1001.47 559.79,-972 499.97,-937.7 449.06,-872.75 423.8,-836.71"/>
<polygon fill="grey" stroke="grey" stroke-width="2" points="426.5,-834.46 417.95,-828.21 420.74,-838.43 426.5,-834.46"/>
</g>
<!-- 3&#45;&gt;14 -->
<g id="edge33" class="edge">
<title>3&#45;&gt;14</title>
<path fill="none" stroke="grey" stroke-width="2" d="M786.9,-1007.73C790.6,-950.19 802.52,-764.66 807.03,-694.35"/>
<polygon fill="grey" stroke="grey" stroke-width="2" points="810.54,-694.3 807.69,-684.09 803.56,-693.85 810.54,-694.3"/>
</g>
<!-- 3&#45;&gt;16 -->
<g id="edge40" class="edge">
<title>3&#45;&gt;16</title>
<path fill="none" stroke="grey" stroke-width="2" d="M793.99,-1007.73C821.43,-949.96 910.14,-763.13 943.21,-693.49"/>
<polygon fill="grey" stroke="grey" stroke-width="2" points="946.55,-694.63 947.67,-684.09 940.22,-691.63 946.55,-694.63"/>
</g>
<!-- 3&#45;&gt;17 -->
<g id="edge53" class="edge">
<title>3&#45;&gt;17</title>
<path fill="none" stroke="grey" stroke-width="2" d="M815.21,-1007.86C830.29,-998.33 848.45,-985.65 862.79,-972 968.24,-871.64 999.13,-828.24 1018.79,-684 1035.09,-564.42 887.43,-239.83 960.79,-144 978.57,-120.78 1055.65,-105.39 1107.68,-97.44"/>
<polygon fill="grey" stroke="grey" stroke-width="2" points="1108.36,-100.88 1117.73,-95.95 1107.33,-93.96 1108.36,-100.88"/>
</g>
<!-- 23 -->
<g id="node24" class="node">
<title>23</title>
<path fill="none" stroke="#568ad8" stroke-width="2" d="M846.29,-324C846.29,-324 791.29,-324 791.29,-324 785.29,-324 779.29,-318 779.29,-312 779.29,-312 779.29,-300 779.29,-300 779.29,-294 785.29,-288 791.29,-288 791.29,-288 846.29,-288 846.29,-288 852.29,-288 858.29,-294 858.29,-300 858.29,-300 858.29,-312 858.29,-312 858.29,-318 852.29,-324 846.29,-324"/>
<text text-anchor="middle" x="818.79" y="-303.5" font-family="sans" font-size="10.00">make_nblink</text>
</g>
<!-- 3&#45;&gt;23 -->
<g id="edge78" class="edge">
<title>3&#45;&gt;23</title>
<path fill="none" stroke="grey" stroke-width="2" d="M725.56,-1020.34C586.63,-1006.73 260.86,-956.9 331.79,-792 414.52,-599.66 527.62,-617.91 673.79,-468 719.31,-421.32 769.65,-364.06 797.43,-331.93"/>
<polygon fill="grey" stroke="grey" stroke-width="2" points="800.1,-334.19 803.98,-324.33 794.8,-329.61 800.1,-334.19"/>
</g>
<!-- 3&#45;&gt;27 -->
<g id="edge92" class="edge">
<title>3&#45;&gt;27</title>
<path fill="none" stroke="grey" stroke-width="2" d="M802.46,-1007.72C846.52,-960.65 965.29,-824.26 1003.79,-684 1021.69,-618.81 969.08,-606.08 954.79,-540 937.88,-461.81 944.87,-439.38 954.79,-360 962.55,-297.91 983.55,-227.31 995.72,-189.79"/>
<polygon fill="grey" stroke="grey" stroke-width="2" points="999.11,-190.71 998.91,-180.12 992.46,-188.52 999.11,-190.71"/>
</g>
<!-- 4 -->
<g id="node5" class="node">
<title>4</title>
<path fill="none" stroke="#9fd856" stroke-width="2" d="M310.79,-1116C310.79,-1116 200.79,-1116 200.79,-1116 194.79,-1116 188.79,-1110 188.79,-1104 188.79,-1104 188.79,-1092 188.79,-1092 188.79,-1086 194.79,-1080 200.79,-1080 200.79,-1080 310.79,-1080 310.79,-1080 316.79,-1080 322.79,-1086 322.79,-1092 322.79,-1092 322.79,-1104 322.79,-1104 322.79,-1110 316.79,-1116 310.79,-1116"/>
<text text-anchor="middle" x="255.79" y="-1095.5" font-family="sans" font-size="10.00">build_pacbio_consensus</text>
</g>
<!-- 4&#45;&gt;3 -->
<g id="edge11" class="edge">
<title>4&#45;&gt;3</title>
<path fill="none" stroke="grey" stroke-width="2" d="M322.92,-1088.13C423.73,-1074.82 613.33,-1049.78 715.8,-1036.24"/>
<polygon fill="grey" stroke="grey" stroke-width="2" points="716.29,-1039.71 725.74,-1034.93 715.37,-1032.77 716.29,-1039.71"/>
</g>
<!-- 4&#45;&gt;17 -->
<g id="edge49" class="edge">
<title>4&#45;&gt;17</title>
<path fill="none" stroke="grey" stroke-width="2" d="M248.6,-1079.59C244.62,-1069.38 239.87,-1056.13 236.79,-1044 155.16,-722.76 122.79,-638.45 122.79,-307 122.79,-307 122.79,-307 122.79,-233 122.79,-190.5 123.31,-168.85 157.79,-144 235.27,-88.15 917.08,-89.15 1107.56,-90.53"/>
<polygon fill="grey" stroke="grey" stroke-width="2" points="1107.54,-94.03 1117.56,-90.61 1107.59,-87.03 1107.54,-94.03"/>
</g>
<!-- 4&#45;&gt;23 -->
<g id="edge74" class="edge">
<title>4&#45;&gt;23</title>
<path fill="none" stroke="grey" stroke-width="2" d="M259.64,-1079.61C265.19,-1052.94 274.79,-1000.27 274.79,-955 274.79,-955 274.79,-955 274.79,-809 274.79,-670.15 662.4,-408.02 783.25,-329.67"/>
<polygon fill="grey" stroke="grey" stroke-width="2" points="785.31,-332.51 791.81,-324.14 781.52,-326.63 785.31,-332.51"/>
</g>
<!-- 4&#45;&gt;27 -->
<g id="edge88" class="edge">
<title>4&#45;&gt;27</title>
<path fill="none" stroke="grey" stroke-width="2" d="M251.95,-1079.61C246.39,-1052.94 236.79,-1000.27 236.79,-955 236.79,-955 236.79,-955 236.79,-881 236.79,-753.89 236.79,-722.11 236.79,-595 236.79,-595 236.79,-595 236.79,-449 236.79,-295.15 345.87,-261.65 492.79,-216 579.39,-189.09 850.48,-171.54 959.1,-165.42"/>
<polygon fill="grey" stroke="grey" stroke-width="2" points="959.31,-168.91 969.1,-164.86 958.92,-161.92 959.31,-168.91"/>
</g>
<!-- 5 -->
<g id="node6" class="node">
<title>5</title>
<path fill="none" stroke="#78d856" stroke-width="2" d="M186.29,-1188C186.29,-1188 97.29,-1188 97.29,-1188 91.29,-1188 85.29,-1182 85.29,-1176 85.29,-1176 85.29,-1164 85.29,-1164 85.29,-1158 91.29,-1152 97.29,-1152 97.29,-1152 186.29,-1152 186.29,-1152 192.29,-1152 198.29,-1158 198.29,-1164 198.29,-1164 198.29,-1176 198.29,-1176 198.29,-1182 192.29,-1188 186.29,-1188"/>
<text text-anchor="middle" x="141.79" y="-1167.5" font-family="sans" font-size="10.00">analyze_pacbio_ccs</text>
</g>
<!-- 5&#45;&gt;4 -->
<g id="edge14" class="edge">
<title>5&#45;&gt;4</title>
<path fill="none" stroke="grey" stroke-width="2" d="M169.68,-1151.88C184.58,-1142.72 203.12,-1131.34 219.17,-1121.48"/>
<polygon fill="grey" stroke="grey" stroke-width="2" points="221.11,-1124.41 227.8,-1116.19 217.44,-1118.44 221.11,-1124.41"/>
</g>
<!-- 5&#45;&gt;17 -->
<g id="edge51" class="edge">
<title>5&#45;&gt;17</title>
<path fill="none" stroke="grey" stroke-width="2" d="M108.23,-1151.93C68.83,-1129.23 8.79,-1085.1 8.79,-1027 8.79,-1027 8.79,-1027 8.79,-521 8.79,-345.69 -13.51,-251.73 124.79,-144 163.96,-113.49 907.36,-96.11 1107.51,-91.97"/>
<polygon fill="grey" stroke="grey" stroke-width="2" points="1107.8,-95.46 1117.73,-91.76 1107.66,-88.47 1107.8,-95.46"/>
</g>
<!-- 5&#45;&gt;23 -->
<g id="edge76" class="edge">
<title>5&#45;&gt;23</title>
<path fill="none" stroke="grey" stroke-width="2" d="M145.64,-1151.61C151.19,-1124.94 160.79,-1072.27 160.79,-1027 160.79,-1027 160.79,-1027 160.79,-953 160.79,-655.57 332.81,-596.22 580.79,-432 608.32,-413.77 619.15,-415.51 645.79,-396 664.56,-382.25 664.16,-372.48 683.79,-360 710.17,-343.23 742.71,-330.26 769.23,-321.35"/>
<polygon fill="grey" stroke="grey" stroke-width="2" points="770.66,-324.57 779.08,-318.14 768.49,-317.91 770.66,-324.57"/>
</g>
<!-- 5&#45;&gt;27 -->
<g id="edge90" class="edge">
<title>5&#45;&gt;27</title>
<path fill="none" stroke="grey" stroke-width="2" d="M137.95,-1151.61C132.39,-1124.94 122.79,-1072.27 122.79,-1027 122.79,-1027 122.79,-1027 122.79,-737 122.79,-477.81 139.62,-300.07 384.79,-216 491.04,-179.57 833.74,-167.35 958.67,-164.05"/>
<polygon fill="grey" stroke="grey" stroke-width="2" points="959.12,-167.54 969.03,-163.78 958.94,-160.54 959.12,-167.54"/>
</g>
<!-- 6 -->
<g id="node7" class="node">
<title>6</title>
<path fill="none" stroke="#56d86b" stroke-width="2" d="M195.29,-1260C195.29,-1260 88.29,-1260 88.29,-1260 82.29,-1260 76.29,-1254 76.29,-1248 76.29,-1248 76.29,-1236 76.29,-1236 76.29,-1230 82.29,-1224 88.29,-1224 88.29,-1224 195.29,-1224 195.29,-1224 201.29,-1224 207.29,-1230 207.29,-1236 207.29,-1236 207.29,-1248 207.29,-1248 207.29,-1254 201.29,-1260 195.29,-1260"/>
<text text-anchor="middle" x="141.79" y="-1239.5" font-family="sans" font-size="10.00">align_parse_PacBio_ccs</text>
</g>
<!-- 6&#45;&gt;5 -->
<g id="edge15" class="edge">
<title>6&#45;&gt;5</title>
<path fill="none" stroke="grey" stroke-width="2" d="M141.79,-1223.7C141.79,-1215.98 141.79,-1206.71 141.79,-1198.11"/>
<polygon fill="grey" stroke="grey" stroke-width="2" points="145.29,-1198.1 141.79,-1188.1 138.29,-1198.1 145.29,-1198.1"/>
</g>
<!-- 7 -->
<g id="node8" class="node">
<title>7</title>
<path fill="none" stroke="#d8a456" stroke-width="2" d="M907.79,-1188C907.79,-1188 839.79,-1188 839.79,-1188 833.79,-1188 827.79,-1182 827.79,-1176 827.79,-1176 827.79,-1164 827.79,-1164 827.79,-1158 833.79,-1152 839.79,-1152 839.79,-1152 907.79,-1152 907.79,-1152 913.79,-1152 919.79,-1158 919.79,-1164 919.79,-1164 919.79,-1176 919.79,-1176 919.79,-1182 913.79,-1188 907.79,-1188"/>
<text text-anchor="middle" x="873.79" y="-1167.5" font-family="sans" font-size="10.00">gene_sequence</text>
</g>
<!-- 7&#45;&gt;1 -->
<g id="edge6" class="edge">
<title>7&#45;&gt;1</title>
<path fill="none" stroke="grey" stroke-width="2" d="M827.73,-1155.89C755.36,-1132.51 617.34,-1076.04 559.79,-972 552.05,-958 553.6,-950.75 559.79,-936 564.43,-924.95 572.63,-915.04 581.25,-906.86"/>
<polygon fill="grey" stroke="grey" stroke-width="2" points="583.68,-909.38 588.86,-900.14 579.05,-904.14 583.68,-909.38"/>
</g>
<!-- 7&#45;&gt;3 -->
<g id="edge10" class="edge">
<title>7&#45;&gt;3</title>
<path fill="none" stroke="grey" stroke-width="2" d="M863.18,-1151.87C847.91,-1127.24 819.65,-1081.64 801.83,-1052.88"/>
<polygon fill="grey" stroke="grey" stroke-width="2" points="804.69,-1050.85 796.44,-1044.19 798.74,-1054.53 804.69,-1050.85"/>
</g>
<!-- 7&#45;&gt;4 -->
<g id="edge13" class="edge">
<title>7&#45;&gt;4</title>
<path fill="none" stroke="grey" stroke-width="2" d="M827.61,-1166.14C734.41,-1159.99 517.35,-1143.77 336.79,-1116 335.51,-1115.8 334.22,-1115.6 332.93,-1115.39"/>
<polygon fill="grey" stroke="grey" stroke-width="2" points="333.32,-1111.91 322.87,-1113.66 332.14,-1118.8 333.32,-1111.91"/>
</g>
<!-- 8 -->
<g id="node9" class="node">
<title>8</title>
<path fill="none" stroke="#d87d56" stroke-width="2" d="M1172.29,-1116C1172.29,-1116 1077.29,-1116 1077.29,-1116 1071.29,-1116 1065.29,-1110 1065.29,-1104 1065.29,-1104 1065.29,-1092 1065.29,-1092 1065.29,-1086 1071.29,-1080 1077.29,-1080 1077.29,-1080 1172.29,-1080 1172.29,-1080 1178.29,-1080 1184.29,-1086 1184.29,-1092 1184.29,-1092 1184.29,-1104 1184.29,-1104 1184.29,-1110 1178.29,-1116 1172.29,-1116"/>
<text text-anchor="middle" x="1124.79" y="-1095.5" font-family="sans" font-size="10.00">site_numbering_map</text>
</g>
<!-- 7&#45;&gt;8 -->
<g id="edge16" class="edge">
<title>7&#45;&gt;8</title>
<path fill="none" stroke="grey" stroke-width="2" d="M919.83,-1156.16C957.64,-1145.62 1011.81,-1130.51 1054.96,-1118.48"/>
<polygon fill="grey" stroke="grey" stroke-width="2" points="1056.14,-1121.78 1064.83,-1115.72 1054.26,-1115.04 1056.14,-1121.78"/>
</g>
<!-- 7&#45;&gt;10 -->
<g id="edge21" class="edge">
<title>7&#45;&gt;10</title>
<path fill="none" stroke="grey" stroke-width="2" d="M827.38,-1166.34C699.38,-1157.75 350.79,-1125.32 350.79,-1027 350.79,-1027 350.79,-1027 350.79,-953 350.79,-909.91 373.39,-864.26 389.87,-836.7"/>
<polygon fill="grey" stroke="grey" stroke-width="2" points="392.92,-838.42 395.19,-828.07 386.96,-834.75 392.92,-838.42"/>
</g>
<!-- 7&#45;&gt;14 -->
<g id="edge31" class="edge">
<title>7&#45;&gt;14</title>
<path fill="none" stroke="grey" stroke-width="2" d="M871.8,-1151.6C868.4,-1122.07 861.23,-1060.24 854.79,-1008 839.01,-879.92 836.82,-847.64 817.79,-720 816.53,-711.56 815.03,-702.39 813.61,-694.09"/>
<polygon fill="grey" stroke="grey" stroke-width="2" points="817.04,-693.41 811.89,-684.16 810.15,-694.61 817.04,-693.41"/>
</g>
<!-- 7&#45;&gt;16 -->
<g id="edge38" class="edge">
<title>7&#45;&gt;16</title>
<path fill="none" stroke="grey" stroke-width="2" d="M920.05,-1168.38C1000.1,-1166.21 1159.24,-1156.75 1193.79,-1116 1314.3,-973.89 1074.01,-760.68 986.19,-690.39"/>
<polygon fill="grey" stroke="grey" stroke-width="2" points="988.2,-687.52 978.19,-684.05 983.85,-693 988.2,-687.52"/>
</g>
<!-- 7&#45;&gt;17 -->
<g id="edge44" class="edge">
<title>7&#45;&gt;17</title>
<path fill="none" stroke="grey" stroke-width="2" d="M919.88,-1168.15C1132.09,-1163.62 2004.79,-1138.25 2004.79,-1027 2004.79,-1027 2004.79,-1027 2004.79,-233 2004.79,-162.24 1939.65,-167.17 1872.79,-144 1749.13,-101.15 1346.56,-92.94 1205.87,-91.37"/>
<polygon fill="grey" stroke="grey" stroke-width="2" points="1205.84,-87.87 1195.81,-91.26 1205.77,-94.87 1205.84,-87.87"/>
</g>
<!-- 7&#45;&gt;27 -->
<g id="edge84" class="edge">
<title>7&#45;&gt;27</title>
<path fill="none" stroke="grey" stroke-width="2" d="M920.07,-1165.48C1087.34,-1152.16 1650.79,-1101.74 1650.79,-1027 1650.79,-1027 1650.79,-1027 1650.79,-521 1650.79,-481.59 1502.87,-237.41 1469.79,-216 1435.06,-193.52 1161.24,-173.26 1050.77,-165.92"/>
<polygon fill="grey" stroke="grey" stroke-width="2" points="1050.81,-162.42 1040.6,-165.25 1050.35,-169.4 1050.81,-162.42"/>
</g>
<!-- 8&#45;&gt;3 -->
<g id="edge12" class="edge">
<title>8&#45;&gt;3</title>
<path fill="none" stroke="grey" stroke-width="2" d="M1064.96,-1084.65C1006.54,-1072.58 917.64,-1054.23 855.92,-1041.48"/>
<polygon fill="grey" stroke="grey" stroke-width="2" points="856.37,-1038 845.87,-1039.41 854.96,-1044.86 856.37,-1038"/>
</g>
<!-- 8&#45;&gt;10 -->
<g id="edge19" class="edge">
<title>8&#45;&gt;10</title>
<path fill="none" stroke="grey" stroke-width="2" d="M1064.99,-1093.04C984.88,-1086.88 838.66,-1072.6 716.79,-1044 621.14,-1021.56 590.16,-1025.56 507.79,-972 471.15,-948.17 463.91,-937.1 440.79,-900 428.74,-880.66 419.82,-856.37 414.14,-838.05"/>
<polygon fill="grey" stroke="grey" stroke-width="2" points="417.45,-836.89 411.25,-828.3 410.74,-838.88 417.45,-836.89"/>
</g>
<!-- 11 -->
<g id="node12" class="node">
<title>11</title>
<path fill="none" stroke="#b6d856" stroke-width="2" d="M1534.79,-468C1534.79,-468 1436.79,-468 1436.79,-468 1430.79,-468 1424.79,-462 1424.79,-456 1424.79,-456 1424.79,-444 1424.79,-444 1424.79,-438 1430.79,-432 1436.79,-432 1436.79,-432 1534.79,-432 1534.79,-432 1540.79,-432 1546.79,-438 1546.79,-444 1546.79,-444 1546.79,-456 1546.79,-456 1546.79,-462 1540.79,-468 1534.79,-468"/>
<text text-anchor="middle" x="1485.79" y="-447.5" font-family="sans" font-size="10.00">avg_antibody_escape</text>
</g>
<!-- 8&#45;&gt;11 -->
<g id="edge24" class="edge">
<title>8&#45;&gt;11</title>
<path fill="none" stroke="grey" stroke-width="2" d="M1184.4,-1079.93C1286.94,-1049.71 1485.79,-986.99 1485.79,-955 1485.79,-955 1485.79,-955 1485.79,-593 1485.79,-553 1485.79,-506.65 1485.79,-478.08"/>
<polygon fill="grey" stroke="grey" stroke-width="2" points="1489.29,-478.05 1485.79,-468.05 1482.29,-478.05 1489.29,-478.05"/>
</g>
<!-- 13 -->
<g id="node14" class="node">
<title>13</title>
<path fill="none" stroke="#56c9d8" stroke-width="2" d="M1153.29,-612C1153.29,-612 1072.29,-612 1072.29,-612 1066.29,-612 1060.29,-606 1060.29,-600 1060.29,-600 1060.29,-588 1060.29,-588 1060.29,-582 1066.29,-576 1072.29,-576 1072.29,-576 1153.29,-576 1153.29,-576 1159.29,-576 1165.29,-582 1165.29,-588 1165.29,-588 1165.29,-600 1165.29,-600 1165.29,-606 1159.29,-612 1153.29,-612"/>
<text text-anchor="middle" x="1112.79" y="-591.5" font-family="sans" font-size="10.00">fit_globalepistasis</text>
</g>
<!-- 8&#45;&gt;13 -->
<g id="edge28" class="edge">
<title>8&#45;&gt;13</title>
<path fill="none" stroke="grey" stroke-width="2" d="M1131.06,-1079.78C1140.12,-1053.32 1155.79,-1000.92 1155.79,-955 1155.79,-955 1155.79,-955 1155.79,-737 1155.79,-695.29 1138.59,-649.54 1125.95,-621.54"/>
<polygon fill="grey" stroke="grey" stroke-width="2" points="1129.09,-620.01 1121.7,-612.42 1122.75,-622.96 1129.09,-620.01"/>
</g>
<!-- 8&#45;&gt;14 -->
<g id="edge30" class="edge">
<title>8&#45;&gt;14</title>
<path fill="none" stroke="grey" stroke-width="2" d="M1112.03,-1079.9C1104.35,-1069.56 1094.43,-1056.08 1085.79,-1044 983.83,-901.38 972.58,-855.05 860.79,-720 852.78,-710.32 843.33,-700.33 834.7,-691.67"/>
<polygon fill="grey" stroke="grey" stroke-width="2" points="836.96,-688.98 827.39,-684.44 832.04,-693.96 836.96,-688.98"/>
</g>
<!-- 15 -->
<g id="node16" class="node">
<title>15</title>
<path fill="none" stroke="#d6d856" stroke-width="2" d="M1201.79,-540C1201.79,-540 1143.79,-540 1143.79,-540 1137.79,-540 1131.79,-534 1131.79,-528 1131.79,-528 1131.79,-516 1131.79,-516 1131.79,-510 1137.79,-504 1143.79,-504 1143.79,-504 1201.79,-504 1201.79,-504 1207.79,-504 1213.79,-510 1213.79,-516 1213.79,-516 1213.79,-528 1213.79,-528 1213.79,-534 1207.79,-540 1201.79,-540"/>
<text text-anchor="middle" x="1172.79" y="-519.5" font-family="sans" font-size="10.00">fit_polyclonal</text>
</g>
<!-- 8&#45;&gt;15 -->
<g id="edge34" class="edge">
<title>8&#45;&gt;15</title>
<path fill="none" stroke="grey" stroke-width="2" d="M1139.42,-1079.93C1159.68,-1054.5 1193.79,-1004.34 1193.79,-955 1193.79,-955 1193.79,-955 1193.79,-665 1193.79,-624.78 1185.45,-578.84 1179.28,-550.37"/>
<polygon fill="grey" stroke="grey" stroke-width="2" points="1182.64,-549.36 1177.04,-540.37 1175.81,-550.89 1182.64,-549.36"/>
</g>
<!-- 8&#45;&gt;16 -->
<g id="edge37" class="edge">
<title>8&#45;&gt;16</title>
<path fill="none" stroke="grey" stroke-width="2" d="M1118.06,-1079.88C1092.04,-1013.67 997.89,-774.11 966.25,-693.6"/>
<polygon fill="grey" stroke="grey" stroke-width="2" points="969.45,-692.2 962.54,-684.17 962.94,-694.76 969.45,-692.2"/>
</g>
<!-- 8&#45;&gt;17 -->
<g id="edge42" class="edge">
<title>8&#45;&gt;17</title>
<path fill="none" stroke="grey" stroke-width="2" d="M1184.56,-1091.87C1264.64,-1081.98 1406.72,-1053.43 1493.79,-972 1751.73,-730.76 1928.79,-660.17 1928.79,-307 1928.79,-307 1928.79,-307 1928.79,-233 1928.79,-168.72 1874.68,-167.34 1814.79,-144 1703.94,-100.8 1340.07,-92.81 1206.52,-91.33"/>
<polygon fill="grey" stroke="grey" stroke-width="2" points="1206.22,-87.83 1196.19,-91.23 1206.15,-94.83 1206.22,-87.83"/>
</g>
<!-- 8&#45;&gt;27 -->
<g id="edge82" class="edge">
<title>8&#45;&gt;27</title>
<path fill="none" stroke="grey" stroke-width="2" d="M1159.5,-1079.9C1294.01,-1011.03 1768.37,-742.75 1664.79,-432 1645.82,-375.08 1554.96,-245.64 1502.79,-216 1463.94,-193.93 1166.33,-173.13 1050.61,-165.79"/>
<polygon fill="grey" stroke="grey" stroke-width="2" points="1050.52,-162.28 1040.32,-165.14 1050.08,-169.26 1050.52,-162.28"/>
</g>
<!-- 9 -->
<g id="node10" class="node">
<title>9</title>
<path fill="none" stroke="#59d856" stroke-width="2" d="M730.29,-756C730.29,-756 581.29,-756 581.29,-756 575.29,-756 569.29,-750 569.29,-744 569.29,-744 569.29,-732 569.29,-732 569.29,-726 575.29,-720 581.29,-720 581.29,-720 730.29,-720 730.29,-720 736.29,-720 742.29,-726 742.29,-732 742.29,-732 742.29,-744 742.29,-744 742.29,-750 736.29,-756 730.29,-756"/>
<text text-anchor="middle" x="655.79" y="-735.5" font-family="sans" font-size="10.00">check_adequate_variant_counts</text>
</g>
<!-- 9&#45;&gt;0 -->
<g id="edge5" class="edge">
<title>9&#45;&gt;0</title>
<path fill="none" stroke="grey" stroke-width="2" d="M634.31,-719.86C596.16,-689.65 513.73,-625.48 440.79,-576 249.14,-445.99 46.79,-466.59 46.79,-235 46.79,-235 46.79,-235 46.79,-161 46.79,-50.35 925.85,-24.18 1119.4,-19.76"/>
<polygon fill="grey" stroke="grey" stroke-width="2" points="1119.71,-23.25 1129.63,-19.53 1119.55,-16.26 1119.71,-23.25"/>
</g>
<!-- 9&#45;&gt;14 -->
<g id="edge32" class="edge">
<title>9&#45;&gt;14</title>
<path fill="none" stroke="grey" stroke-width="2" d="M693.22,-719.88C714.12,-710.31 740.34,-698.32 762.52,-688.17"/>
<polygon fill="grey" stroke="grey" stroke-width="2" points="764.11,-691.29 771.75,-683.95 761.2,-684.92 764.11,-691.29"/>
</g>
<!-- 9&#45;&gt;16 -->
<g id="edge39" class="edge">
<title>9&#45;&gt;16</title>
<path fill="none" stroke="grey" stroke-width="2" d="M728.8,-719.97C784.01,-707.08 858.32,-689.74 906.64,-678.47"/>
<polygon fill="grey" stroke="grey" stroke-width="2" points="907.59,-681.84 916.53,-676.16 906,-675.02 907.59,-681.84"/>
</g>
<!-- 10&#45;&gt;9 -->
<g id="edge17" class="edge">
<title>10&#45;&gt;9</title>
<path fill="none" stroke="grey" stroke-width="2" d="M467.38,-791.97C502.93,-781.97 548.02,-769.3 585.17,-758.85"/>
<polygon fill="grey" stroke="grey" stroke-width="2" points="586.25,-762.19 594.93,-756.11 584.35,-755.45 586.25,-762.19"/>
</g>
<!-- 10&#45;&gt;17 -->
<g id="edge61" class="edge">
<title>10&#45;&gt;17</title>
<path fill="none" stroke="grey" stroke-width="2" d="M387.9,-791.8C330.29,-737.39 160.79,-561.76 160.79,-379 160.79,-379 160.79,-379 160.79,-233 160.79,-192.03 152.96,-169.79 184.79,-144 220.95,-114.7 914.82,-96.58 1107.52,-92.09"/>
<polygon fill="grey" stroke="grey" stroke-width="2" points="1107.72,-95.59 1117.64,-91.86 1107.56,-88.59 1107.72,-95.59"/>
</g>
<!-- 10&#45;&gt;23 -->
<g id="edge67" class="edge">
<title>10&#45;&gt;23</title>
<path fill="none" stroke="grey" stroke-width="2" d="M429.69,-791.82C505.08,-735.17 741.36,-556.96 752.79,-540 796.84,-474.64 811.77,-380.05 816.6,-334.1"/>
<polygon fill="grey" stroke="grey" stroke-width="2" points="820.1,-334.32 817.58,-324.02 813.13,-333.64 820.1,-334.32"/>
</g>
<!-- 10&#45;&gt;27 -->
<g id="edge100" class="edge">
<title>10&#45;&gt;27</title>
<path fill="none" stroke="grey" stroke-width="2" d="M398.73,-791.79C370.07,-730.56 274.79,-526.72 274.79,-523 274.79,-523 274.79,-523 274.79,-449 274.79,-349.36 344.73,-338.21 430.79,-288 501.31,-246.85 521.03,-237.5 599.79,-216 727.03,-181.27 883.18,-169.03 959.05,-164.93"/>
<polygon fill="grey" stroke="grey" stroke-width="2" points="959.41,-168.42 969.21,-164.41 959.05,-161.43 959.41,-168.42"/>
</g>
<!-- 11&#45;&gt;0 -->
<g id="edge3" class="edge">
<title>11&#45;&gt;0</title>
<path fill="none" stroke="grey" stroke-width="2" d="M1547.2,-435.31C1676.87,-404.61 1966.79,-325.83 1966.79,-235 1966.79,-235 1966.79,-235 1966.79,-161 1966.79,-81.54 1354.17,-32.89 1194.48,-21.56"/>
<polygon fill="grey" stroke="grey" stroke-width="2" points="1194.43,-18.05 1184.21,-20.84 1193.94,-25.03 1194.43,-18.05"/>
</g>
<!-- 11&#45;&gt;17 -->
<g id="edge48" class="edge">
<title>11&#45;&gt;17</title>
<path fill="none" stroke="grey" stroke-width="2" d="M1513.48,-431.94C1573.46,-392.89 1705.32,-294.33 1645.79,-216 1592.32,-145.64 1319.54,-108.55 1206.24,-95.99"/>
<polygon fill="grey" stroke="grey" stroke-width="2" points="1206.42,-92.49 1196.1,-94.88 1205.66,-99.45 1206.42,-92.49"/>
</g>
<!-- 21 -->
<g id="node22" class="node">
<title>21</title>
<path fill="none" stroke="#8fd856" stroke-width="2" d="M1408.79,-396C1408.79,-396 1334.79,-396 1334.79,-396 1328.79,-396 1322.79,-390 1322.79,-384 1322.79,-384 1322.79,-372 1322.79,-372 1322.79,-366 1328.79,-360 1334.79,-360 1334.79,-360 1408.79,-360 1408.79,-360 1414.79,-360 1420.79,-366 1420.79,-372 1420.79,-372 1420.79,-384 1420.79,-384 1420.79,-390 1414.79,-396 1408.79,-396"/>
<text text-anchor="middle" x="1371.79" y="-375.5" font-family="sans" font-size="10.00">validation_IC50s</text>
</g>
<!-- 11&#45;&gt;21 -->
<g id="edge65" class="edge">
<title>11&#45;&gt;21</title>
<path fill="none" stroke="grey" stroke-width="2" d="M1457.9,-431.88C1443,-422.72 1424.46,-411.34 1408.41,-401.48"/>
<polygon fill="grey" stroke="grey" stroke-width="2" points="1410.14,-398.44 1399.79,-396.19 1406.48,-404.41 1410.14,-398.44"/>
</g>
<!-- 11&#45;&gt;23 -->
<g id="edge72" class="edge">
<title>11&#45;&gt;23</title>
<path fill="none" stroke="grey" stroke-width="2" d="M1424.54,-443.69C1348.45,-436.37 1214.96,-421.15 1102.79,-396 1019.08,-377.23 924.49,-345.37 868.35,-325.3"/>
<polygon fill="grey" stroke="grey" stroke-width="2" points="869.26,-321.9 858.66,-321.81 866.89,-328.49 869.26,-321.9"/>
</g>
<!-- 26 -->
<g id="node27" class="node">
<title>26</title>
<path fill="none" stroke="#d8c356" stroke-width="2" d="M1448.29,-252C1448.29,-252 1311.29,-252 1311.29,-252 1305.29,-252 1299.29,-246 1299.29,-240 1299.29,-240 1299.29,-228 1299.29,-228 1299.29,-222 1305.29,-216 1311.29,-216 1311.29,-216 1448.29,-216 1448.29,-216 1454.29,-216 1460.29,-222 1460.29,-228 1460.29,-228 1460.29,-240 1460.29,-240 1460.29,-246 1454.29,-252 1448.29,-252"/>
<text text-anchor="middle" x="1379.79" y="-231.5" font-family="sans" font-size="10.00">format_antibody_escape_plot</text>
</g>
<!-- 11&#45;&gt;26 -->
<g id="edge80" class="edge">
<title>11&#45;&gt;26</title>
<path fill="none" stroke="grey" stroke-width="2" d="M1483.09,-431.7C1479.81,-413.34 1473.39,-383.76 1462.79,-360 1446.18,-322.76 1418.85,-284.32 1400.12,-260.08"/>
<polygon fill="grey" stroke="grey" stroke-width="2" points="1402.81,-257.83 1393.88,-252.12 1397.3,-262.15 1402.81,-257.83"/>
</g>
<!-- 11&#45;&gt;27 -->
<g id="edge87" class="edge">
<title>11&#45;&gt;27</title>
<path fill="none" stroke="grey" stroke-width="2" d="M1424.53,-436.43C1390.59,-427.94 1348.38,-414.8 1313.79,-396 1291.89,-384.1 1292.18,-372.79 1270.79,-360 1233.81,-337.9 1215.36,-349.71 1180.79,-324 1131.55,-287.39 1141.11,-256.24 1094.79,-216 1081.17,-204.17 1064.55,-193.53 1049.31,-184.94"/>
<polygon fill="grey" stroke="grey" stroke-width="2" points="1050.98,-181.87 1040.53,-180.13 1047.62,-188.01 1050.98,-181.87"/>
</g>
<!-- 12 -->
<g id="node13" class="node">
<title>12</title>
<path fill="none" stroke="#d85656" stroke-width="2" d="M1388.79,-540C1388.79,-540 1320.79,-540 1320.79,-540 1314.79,-540 1308.79,-534 1308.79,-528 1308.79,-528 1308.79,-516 1308.79,-516 1308.79,-510 1314.79,-504 1320.79,-504 1320.79,-504 1388.79,-504 1388.79,-504 1394.79,-504 1400.79,-510 1400.79,-516 1400.79,-516 1400.79,-528 1400.79,-528 1400.79,-534 1394.79,-540 1388.79,-540"/>
<text text-anchor="middle" x="1354.79" y="-519.5" font-family="sans" font-size="10.00">avg_muteffects</text>
</g>
<!-- 12&#45;&gt;0 -->
<g id="edge1" class="edge">
<title>12&#45;&gt;0</title>
<path fill="none" stroke="grey" stroke-width="2" d="M1401.26,-515.59C1455.99,-508.38 1549.14,-493.49 1625.79,-468 1827.25,-401.02 2042.79,-447.3 2042.79,-235 2042.79,-235 2042.79,-235 2042.79,-161 2042.79,-107.16 2405.66,-194.59 1798.79,-72 1572.44,-26.28 1293.58,-19.83 1194.16,-19.05"/>
<polygon fill="grey" stroke="grey" stroke-width="2" points="1194.04,-15.55 1184.02,-18.98 1194,-22.55 1194.04,-15.55"/>
</g>
<!-- 12&#45;&gt;11 -->
<g id="edge25" class="edge">
<title>12&#45;&gt;11</title>
<path fill="none" stroke="grey" stroke-width="2" d="M1386.84,-503.88C1404.28,-494.55 1426.06,-482.92 1444.73,-472.94"/>
<polygon fill="grey" stroke="grey" stroke-width="2" points="1446.45,-475.99 1453.62,-468.19 1443.15,-469.82 1446.45,-475.99"/>
</g>
<!-- 12&#45;&gt;17 -->
<g id="edge41" class="edge">
<title>12&#45;&gt;17</title>
<path fill="none" stroke="grey" stroke-width="2" d="M1401.12,-517.77C1450.06,-512.75 1528.23,-500.02 1587.79,-468 1648.98,-435.11 1650.15,-407.56 1700.79,-360 1735.18,-327.7 1741.59,-317.02 1778.79,-288 1801.83,-270.03 1819.9,-277.7 1833.79,-252 1841.4,-237.93 1841.67,-229.92 1833.79,-216 1803.15,-161.88 1772.88,-163.43 1713.79,-144 1620.07,-113.19 1324.42,-97.9 1206.28,-92.91"/>
<polygon fill="grey" stroke="grey" stroke-width="2" points="1206.21,-89.4 1196.07,-92.48 1205.92,-96.39 1206.21,-89.4"/>
</g>
<!-- 18 -->
<g id="node19" class="node">
<title>18</title>
<path fill="none" stroke="#68d856" stroke-width="2" d="M1216.29,-396C1216.29,-396 1123.29,-396 1123.29,-396 1117.29,-396 1111.29,-390 1111.29,-384 1111.29,-384 1111.29,-372 1111.29,-372 1111.29,-366 1117.29,-360 1123.29,-360 1123.29,-360 1216.29,-360 1216.29,-360 1222.29,-360 1228.29,-366 1228.29,-372 1228.29,-372 1228.29,-384 1228.29,-384 1228.29,-390 1222.29,-396 1216.29,-396"/>
<text text-anchor="middle" x="1169.79" y="-375.5" font-family="sans" font-size="10.00">compare_muteffects</text>
</g>
<!-- 12&#45;&gt;18 -->
<g id="edge62" class="edge">
<title>12&#45;&gt;18</title>
<path fill="none" stroke="grey" stroke-width="2" d="M1308.59,-504.56C1287.3,-495.68 1262.46,-483.36 1242.79,-468 1219.98,-450.19 1199.62,-424.05 1186.23,-404.7"/>
<polygon fill="grey" stroke="grey" stroke-width="2" points="1189.08,-402.67 1180.59,-396.34 1183.28,-406.59 1189.08,-402.67"/>
</g>
<!-- 12&#45;&gt;23 -->
<g id="edge69" class="edge">
<title>12&#45;&gt;23</title>
<path fill="none" stroke="grey" stroke-width="2" d="M1308.66,-509.25C1235.68,-489.92 1089.86,-448.3 972.79,-396 969.77,-394.65 901.54,-355.09 856.93,-329.17"/>
<polygon fill="grey" stroke="grey" stroke-width="2" points="858.48,-326.02 848.07,-324.02 854.96,-332.07 858.48,-326.02"/>
</g>
<!-- 24 -->
<g id="node25" class="node">
<title>24</title>
<path fill="none" stroke="#56b1d8" stroke-width="2" d="M1812.29,-252C1812.29,-252 1705.29,-252 1705.29,-252 1699.29,-252 1693.29,-246 1693.29,-240 1693.29,-240 1693.29,-228 1693.29,-228 1693.29,-222 1699.29,-216 1705.29,-216 1705.29,-216 1812.29,-216 1812.29,-216 1818.29,-216 1824.29,-222 1824.29,-228 1824.29,-228 1824.29,-240 1824.29,-240 1824.29,-246 1818.29,-252 1812.29,-252"/>
<text text-anchor="middle" x="1758.79" y="-231.5" font-family="sans" font-size="10.00">format_muteffects_plot</text>
</g>
<!-- 12&#45;&gt;24 -->
<g id="edge79" class="edge">
<title>12&#45;&gt;24</title>
<path fill="none" stroke="grey" stroke-width="2" d="M1400.83,-517.17C1443.88,-511.75 1508.45,-498.81 1555.79,-468 1598.72,-440.06 1664.62,-325.24 1699.79,-288 1709.27,-277.97 1720.36,-267.67 1730.36,-258.85"/>
<polygon fill="grey" stroke="grey" stroke-width="2" points="1732.84,-261.33 1738.09,-252.13 1728.25,-256.05 1732.84,-261.33"/>
</g>
<!-- 12&#45;&gt;27 -->
<g id="edge81" class="edge">
<title>12&#45;&gt;27</title>
<path fill="none" stroke="grey" stroke-width="2" d="M1344.21,-503.99C1320.94,-467.01 1265.18,-380.92 1237.79,-360 1201.91,-332.59 1179.74,-349.95 1142.79,-324 1114.8,-304.35 1054.76,-228.43 1023.92,-188.26"/>
<polygon fill="grey" stroke="grey" stroke-width="2" points="1026.66,-186.08 1017.81,-180.26 1021.1,-190.33 1026.66,-186.08"/>
</g>
<!-- 13&#45;&gt;12 -->
<g id="edge26" class="edge">
<title>13&#45;&gt;12</title>
<path fill="none" stroke="grey" stroke-width="2" d="M1165.3,-577.81C1204.73,-566.41 1258.62,-550.82 1298.85,-539.18"/>
<polygon fill="grey" stroke="grey" stroke-width="2" points="1299.88,-542.53 1308.51,-536.39 1297.93,-535.8 1299.88,-542.53"/>
</g>
<!-- 13&#45;&gt;17 -->
<g id="edge57" class="edge">
<title>13&#45;&gt;17</title>
<path fill="none" stroke="grey" stroke-width="2" d="M1165.58,-589.49C1353.81,-574.55 1974.38,-503.08 1849.79,-216 1831.14,-173.02 1815.59,-163.06 1772.79,-144 1671.69,-98.99 1333.8,-92.1 1206.17,-91.13"/>
<polygon fill="grey" stroke="grey" stroke-width="2" points="1205.94,-87.63 1195.92,-91.06 1205.89,-94.63 1205.94,-87.63"/>
</g>
<!-- 13&#45;&gt;23 -->
<g id="edge68" class="edge">
<title>13&#45;&gt;23</title>
<path fill="none" stroke="grey" stroke-width="2" d="M1085.8,-575.81C1038.09,-544.46 937.57,-473.98 870.79,-396 854.44,-376.9 840.37,-351.96 831.01,-333.34"/>
<polygon fill="grey" stroke="grey" stroke-width="2" points="834.09,-331.68 826.55,-324.24 827.81,-334.76 834.09,-331.68"/>
</g>
<!-- 13&#45;&gt;27 -->
<g id="edge96" class="edge">
<title>13&#45;&gt;27</title>
<path fill="none" stroke="grey" stroke-width="2" d="M1105.05,-575.73C1083.48,-526.48 1023.22,-380.52 1006.79,-252 1004.16,-231.43 1003.74,-207.98 1003.93,-190.32"/>
<polygon fill="grey" stroke="grey" stroke-width="2" points="1007.43,-190.2 1004.12,-180.14 1000.44,-190.08 1007.43,-190.2"/>
</g>
<!-- 14&#45;&gt;13 -->
<g id="edge27" class="edge">
<title>14&#45;&gt;13</title>
<path fill="none" stroke="grey" stroke-width="2" d="M846.07,-656.42C896.91,-644.71 988.68,-623.58 1050.18,-609.42"/>
<polygon fill="grey" stroke="grey" stroke-width="2" points="1051.19,-612.78 1060.15,-607.12 1049.62,-605.95 1051.19,-612.78"/>
</g>
<!-- 19 -->
<g id="node20" class="node">
<title>19</title>
<path fill="none" stroke="#56d8a2" stroke-width="2" d="M484.79,-396C484.79,-396 390.79,-396 390.79,-396 384.79,-396 378.79,-390 378.79,-384 378.79,-384 378.79,-372 378.79,-372 378.79,-366 384.79,-360 390.79,-360 390.79,-360 484.79,-360 484.79,-360 490.79,-360 496.79,-366 496.79,-372 496.79,-372 496.79,-384 496.79,-384 496.79,-390 490.79,-396 484.79,-396"/>
<text text-anchor="middle" x="437.79" y="-375.5" font-family="sans" font-size="10.00">analyze_func_scores</text>
</g>
<!-- 14&#45;&gt;19 -->
<g id="edge63" class="edge">
<title>14&#45;&gt;19</title>
<path fill="none" stroke="grey" stroke-width="2" d="M771.78,-653.54C746.24,-644.59 712.25,-630.57 685.79,-612 595.97,-548.97 600.44,-503.02 516.79,-432 503.98,-421.13 488.88,-410.53 475.33,-401.7"/>
<polygon fill="grey" stroke="grey" stroke-width="2" points="477,-398.61 466.69,-396.17 473.23,-404.51 477,-398.61"/>
</g>
<!-- 15&#45;&gt;11 -->
<g id="edge23" class="edge">
<title>15&#45;&gt;11</title>
<path fill="none" stroke="grey" stroke-width="2" d="M1214.08,-511.86C1261.55,-501.33 1341.82,-483.5 1410.79,-468 1412.04,-467.72 1413.29,-467.44 1414.56,-467.15"/>
<polygon fill="grey" stroke="grey" stroke-width="2" points="1415.41,-470.55 1424.4,-464.94 1413.88,-463.72 1415.41,-470.55"/>
</g>
<!-- 15&#45;&gt;17 -->
<g id="edge46" class="edge">
<title>15&#45;&gt;17</title>
<path fill="none" stroke="grey" stroke-width="2" d="M1214.27,-514.61C1274.01,-502.92 1382.29,-471.92 1429.79,-396 1438.28,-382.44 1436.82,-374.37 1429.79,-360 1395.4,-289.73 1345.64,-307.79 1290.79,-252 1248.73,-209.21 1249.1,-189.33 1209.79,-144 1201.27,-134.17 1191.31,-123.93 1182.35,-115.11"/>
<polygon fill="grey" stroke="grey" stroke-width="2" points="1184.72,-112.52 1175.11,-108.06 1179.84,-117.54 1184.72,-112.52"/>
</g>
<!-- 15&#45;&gt;23 -->
<g id="edge71" class="edge">
<title>15&#45;&gt;23</title>
<path fill="none" stroke="grey" stroke-width="2" d="M1131.77,-508.19C1102.89,-498.58 1063.68,-484.31 1030.79,-468 977.1,-441.38 964.49,-432.28 916.79,-396 890.15,-375.73 862.09,-349.71 842.86,-331.05"/>
<polygon fill="grey" stroke="grey" stroke-width="2" points="845.29,-328.53 835.7,-324.04 840.4,-333.53 845.29,-328.53"/>
</g>
<!-- 15&#45;&gt;27 -->
<g id="edge86" class="edge">
<title>15&#45;&gt;27</title>
<path fill="none" stroke="grey" stroke-width="2" d="M1159.13,-503.74C1133.41,-470.58 1077.28,-394.94 1042.79,-324 1028.04,-293.66 1026.77,-284.77 1018.79,-252 1013.83,-231.61 1010.22,-208.15 1007.91,-190.44"/>
<polygon fill="grey" stroke="grey" stroke-width="2" points="1011.35,-189.72 1006.64,-180.23 1004.4,-190.58 1011.35,-189.72"/>
</g>
<!-- 16&#45;&gt;15 -->
<g id="edge35" class="edge">
<title>16&#45;&gt;15</title>
<path fill="none" stroke="grey" stroke-width="2" d="M971.02,-647.75C988.87,-628.34 1020.05,-596.81 1051.79,-576 1073.52,-561.75 1099.73,-549.74 1122.18,-540.76"/>
<polygon fill="grey" stroke="grey" stroke-width="2" points="1123.51,-544 1131.55,-537.11 1120.96,-537.48 1123.51,-544"/>
</g>
<!-- 20 -->
<g id="node21" class="node">
<title>20</title>
<path fill="none" stroke="#56a2d8" stroke-width="2" d="M624.79,-396C624.79,-396 526.79,-396 526.79,-396 520.79,-396 514.79,-390 514.79,-384 514.79,-384 514.79,-372 514.79,-372 514.79,-366 520.79,-360 526.79,-360 526.79,-360 624.79,-360 624.79,-360 630.79,-360 636.79,-366 636.79,-372 636.79,-372 636.79,-384 636.79,-384 636.79,-390 630.79,-396 624.79,-396"/>
<text text-anchor="middle" x="575.79" y="-375.5" font-family="sans" font-size="10.00">analyze_prob_escape</text>
</g>
<!-- 16&#45;&gt;20 -->
<g id="edge64" class="edge">
<title>16&#45;&gt;20</title>
<path fill="none" stroke="grey" stroke-width="2" d="M933.16,-647.97C868.23,-599.1 681.27,-458.39 606.87,-402.39"/>
<polygon fill="grey" stroke="grey" stroke-width="2" points="608.88,-399.52 598.79,-396.31 604.67,-405.12 608.88,-399.52"/>
</g>
<!-- 17&#45;&gt;0 -->
<g id="edge4" class="edge">
<title>17&#45;&gt;0</title>
<path fill="none" stroke="grey" stroke-width="2" d="M1156.79,-71.7C1156.79,-63.98 1156.79,-54.71 1156.79,-46.11"/>
<polygon fill="grey" stroke="grey" stroke-width="2" points="1160.29,-46.1 1156.79,-36.1 1153.29,-46.1 1160.29,-46.1"/>
</g>
<!-- 18&#45;&gt;17 -->
<g id="edge52" class="edge">
<title>18&#45;&gt;17</title>
<path fill="none" stroke="grey" stroke-width="2" d="M1169.02,-359.97C1166.85,-312.29 1160.71,-177.18 1158.05,-118.63"/>
<polygon fill="grey" stroke="grey" stroke-width="2" points="1161.53,-118.14 1157.58,-108.31 1154.54,-118.46 1161.53,-118.14"/>
</g>
<!-- 18&#45;&gt;23 -->
<g id="edge77" class="edge">
<title>18&#45;&gt;23</title>
<path fill="none" stroke="grey" stroke-width="2" d="M1111.04,-365.28C1042.96,-351.71 931.99,-329.57 868.17,-316.85"/>
<polygon fill="grey" stroke="grey" stroke-width="2" points="868.84,-313.41 858.35,-314.89 867.47,-320.28 868.84,-313.41"/>
</g>
<!-- 18&#45;&gt;27 -->
<g id="edge91" class="edge">
<title>18&#45;&gt;27</title>
<path fill="none" stroke="grey" stroke-width="2" d="M1119.55,-359.95C1100.95,-351.56 1080.96,-339.79 1066.79,-324 1048.48,-303.6 1024.65,-230.05 1012.56,-189.79"/>
<polygon fill="grey" stroke="grey" stroke-width="2" points="1015.88,-188.68 1009.68,-180.09 1009.17,-190.68 1015.88,-188.68"/>
</g>
<!-- 19&#45;&gt;17 -->
<g id="edge54" class="edge">
<title>19&#45;&gt;17</title>
<path fill="none" stroke="grey" stroke-width="2" d="M448.27,-359.96C476.78,-315.34 560.65,-195.03 665.79,-144 742.94,-106.55 999.34,-95.27 1107.73,-92.12"/>
<polygon fill="grey" stroke="grey" stroke-width="2" points="1107.85,-95.62 1117.75,-91.84 1107.66,-88.62 1107.85,-95.62"/>
</g>
<!-- 19&#45;&gt;23 -->
<g id="edge70" class="edge">
<title>19&#45;&gt;23</title>
<path fill="none" stroke="grey" stroke-width="2" d="M497.07,-361.89C500.01,-361.23 502.93,-360.6 505.79,-360 598.09,-340.68 706.83,-323.51 768.8,-314.25"/>
<polygon fill="grey" stroke="grey" stroke-width="2" points="769.7,-317.65 779.08,-312.72 768.67,-310.73 769.7,-317.65"/>
</g>
<!-- 19&#45;&gt;27 -->
<g id="edge93" class="edge">
<title>19&#45;&gt;27</title>
<path fill="none" stroke="grey" stroke-width="2" d="M481.17,-359.9C565.51,-326.61 743.9,-256.01 749.79,-252 767.99,-239.62 764.74,-227.02 783.79,-216 813.29,-198.93 903.61,-180.76 959.23,-170.75"/>
<polygon fill="grey" stroke="grey" stroke-width="2" points="959.96,-174.18 969.19,-168.98 958.74,-167.29 959.96,-174.18"/>
</g>
<!-- 20&#45;&gt;17 -->
<g id="edge59" class="edge">
<title>20&#45;&gt;17</title>
<path fill="none" stroke="grey" stroke-width="2" d="M579.81,-359.75C591.36,-314.62 629.28,-193.16 712.79,-144 778.7,-105.2 1006.16,-94.73 1107.45,-91.97"/>
<polygon fill="grey" stroke="grey" stroke-width="2" points="1107.82,-95.46 1117.72,-91.7 1107.63,-88.46 1107.82,-95.46"/>
</g>
<!-- 20&#45;&gt;23 -->
<g id="edge73" class="edge">
<title>20&#45;&gt;23</title>
<path fill="none" stroke="grey" stroke-width="2" d="M637.22,-360.3C674.25,-350.1 722.33,-336.63 764.79,-324 766.23,-323.57 767.7,-323.13 769.17,-322.69"/>
<polygon fill="grey" stroke="grey" stroke-width="2" points="770.48,-325.95 779.02,-319.68 768.44,-319.25 770.48,-325.95"/>
</g>
<!-- 20&#45;&gt;27 -->
<g id="edge98" class="edge">
<title>20&#45;&gt;27</title>
<path fill="none" stroke="grey" stroke-width="2" d="M604.47,-359.94C644.66,-336 719.97,-290.98 783.79,-252 809.68,-236.19 814.28,-228.78 841.79,-216 880.07,-198.22 925.96,-183.87 959.29,-174.61"/>
<polygon fill="grey" stroke="grey" stroke-width="2" points="960.48,-177.91 969.2,-171.9 958.63,-171.16 960.48,-177.91"/>
</g>
<!-- 21&#45;&gt;17 -->
<g id="edge50" class="edge">
<title>21&#45;&gt;17</title>
<path fill="none" stroke="grey" stroke-width="2" d="M1353.91,-359.72C1330.29,-336.41 1288.01,-293.09 1256.79,-252 1222.55,-206.93 1189.17,-149.74 1170.96,-117.06"/>
<polygon fill="grey" stroke="grey" stroke-width="2" points="1173.93,-115.19 1166.02,-108.14 1167.8,-118.58 1173.93,-115.19"/>
</g>
<!-- 21&#45;&gt;23 -->
<g id="edge75" class="edge">
<title>21&#45;&gt;23</title>
<path fill="none" stroke="grey" stroke-width="2" d="M1322.79,-370.78C1297.42,-367.56 1265.94,-363.57 1237.79,-360 1104.3,-343.09 946.89,-323.19 868.44,-313.27"/>
<polygon fill="grey" stroke="grey" stroke-width="2" points="868.72,-309.78 858.36,-312 867.85,-316.73 868.72,-309.78"/>
</g>
<!-- 21&#45;&gt;27 -->
<g id="edge89" class="edge">
<title>21&#45;&gt;27</title>
<path fill="none" stroke="grey" stroke-width="2" d="M1322.52,-363.19C1284.58,-351.96 1235.83,-336.06 1218.79,-324 1168.71,-288.55 1181.81,-252.91 1132.79,-216 1108.09,-197.4 1075.91,-184.11 1050,-175.49"/>
<polygon fill="grey" stroke="grey" stroke-width="2" points="1050.99,-172.14 1040.4,-172.42 1048.86,-178.8 1050.99,-172.14"/>
</g>
<!-- 22 -->
<g id="node23" class="node">
<title>22</title>
<path fill="none" stroke="#d8b456" stroke-width="2" d="M729.29,-252C729.29,-252 692.29,-252 692.29,-252 686.29,-252 680.29,-246 680.29,-240 680.29,-240 680.29,-228 680.29,-228 680.29,-222 686.29,-216 692.29,-216 692.29,-216 729.29,-216 729.29,-216 735.29,-216 741.29,-222 741.29,-228 741.29,-228 741.29,-240 741.29,-240 741.29,-246 735.29,-252 729.29,-252"/>
<text text-anchor="middle" x="710.79" y="-231.5" font-family="sans" font-size="10.00">subindex</text>
</g>
<!-- 22&#45;&gt;17 -->
<g id="edge43" class="edge">
<title>22&#45;&gt;17</title>
<path fill="none" stroke="grey" stroke-width="2" d="M741.51,-217.33C780.8,-197.82 851.38,-164.56 914.79,-144 980.11,-122.83 1058.07,-107.45 1107.51,-98.87"/>
<polygon fill="grey" stroke="grey" stroke-width="2" points="1108.34,-102.28 1117.61,-97.15 1107.16,-95.38 1108.34,-102.28"/>
</g>
<!-- 22&#45;&gt;27 -->
<g id="edge83" class="edge">
<title>22&#45;&gt;27</title>
<path fill="none" stroke="grey" stroke-width="2" d="M741.57,-220.67C746.29,-218.98 751.14,-217.36 755.79,-216 825.62,-195.51 908.63,-179.45 958.98,-170.6"/>
<polygon fill="grey" stroke="grey" stroke-width="2" points="959.65,-174.04 968.91,-168.87 958.45,-167.14 959.65,-174.04"/>
</g>
<!-- 23&#45;&gt;17 -->
<g id="edge60" class="edge">
<title>23&#45;&gt;17</title>
<path fill="none" stroke="grey" stroke-width="2" d="M779.23,-302.91C744.26,-298.72 695.14,-286.59 670.79,-252 661.58,-238.92 662.31,-229.56 670.79,-216 717.5,-141.33 993.58,-106.64 1107.59,-95.35"/>
<polygon fill="grey" stroke="grey" stroke-width="2" points="1108.16,-98.81 1117.78,-94.36 1107.49,-91.84 1108.16,-98.81"/>
</g>
<!-- 23&#45;&gt;22 -->
<g id="edge66" class="edge">
<title>23&#45;&gt;22</title>
<path fill="none" stroke="grey" stroke-width="2" d="M792.37,-287.88C778.38,-278.81 761.01,-267.55 745.91,-257.76"/>
<polygon fill="grey" stroke="grey" stroke-width="2" points="747.61,-254.69 737.31,-252.19 743.8,-260.57 747.61,-254.69"/>
</g>
<!-- 23&#45;&gt;27 -->
<g id="edge99" class="edge">
<title>23&#45;&gt;27</title>
<path fill="none" stroke="grey" stroke-width="2" d="M826.19,-287.7C835.42,-267.94 852.95,-235.79 876.79,-216 900.75,-196.11 933.21,-182.78 959.45,-174.47"/>
<polygon fill="grey" stroke="grey" stroke-width="2" points="960.61,-177.77 969.17,-171.52 958.58,-171.07 960.61,-177.77"/>
</g>
<!-- 24&#45;&gt;17 -->
<g id="edge58" class="edge">
<title>24&#45;&gt;17</title>
<path fill="none" stroke="grey" stroke-width="2" d="M1748.89,-215.77C1735.81,-194.79 1710.65,-160.18 1678.79,-144 1596.88,-102.4 1319.99,-93.45 1206.22,-91.53"/>
<polygon fill="grey" stroke="grey" stroke-width="2" points="1206.11,-88.03 1196.06,-91.37 1206,-95.02 1206.11,-88.03"/>
</g>
<!-- 24&#45;&gt;27 -->
<g id="edge97" class="edge">
<title>24&#45;&gt;27</title>
<path fill="none" stroke="grey" stroke-width="2" d="M1693.16,-222.37C1677.66,-220.07 1661.16,-217.79 1645.79,-216 1423.28,-190.09 1155.88,-172.24 1050.58,-165.73"/>
<polygon fill="grey" stroke="grey" stroke-width="2" points="1050.51,-162.22 1040.31,-165.1 1050.08,-169.21 1050.51,-162.22"/>
</g>
<!-- 25 -->
<g id="node26" class="node">
<title>25</title>
<path fill="none" stroke="#56d8c9" stroke-width="2" d="M1624.79,-252C1624.79,-252 1566.79,-252 1566.79,-252 1560.79,-252 1554.79,-246 1554.79,-240 1554.79,-240 1554.79,-228 1554.79,-228 1554.79,-222 1560.79,-216 1566.79,-216 1566.79,-216 1624.79,-216 1624.79,-216 1630.79,-216 1636.79,-222 1636.79,-228 1636.79,-228 1636.79,-240 1636.79,-240 1636.79,-246 1630.79,-252 1624.79,-252"/>
<text text-anchor="middle" x="1595.79" y="-231.5" font-family="sans" font-size="10.00">make_graphs</text>
</g>
<!-- 25&#45;&gt;17 -->
<g id="edge56" class="edge">
<title>25&#45;&gt;17</title>
<path fill="none" stroke="grey" stroke-width="2" d="M1554.33,-219.58C1500.5,-202.15 1403.63,-170.79 1320.79,-144 1282.09,-131.48 1238.25,-117.32 1205.64,-106.78"/>
<polygon fill="grey" stroke="grey" stroke-width="2" points="1206.49,-103.38 1195.89,-103.63 1204.33,-110.04 1206.49,-103.38"/>
</g>
<!-- 25&#45;&gt;27 -->
<g id="edge95" class="edge">
<title>25&#45;&gt;27</title>
<path fill="none" stroke="grey" stroke-width="2" d="M1554.58,-219.29C1549.96,-218.04 1545.3,-216.91 1540.79,-216 1361.85,-179.88 1144.11,-168.03 1050.82,-164.44"/>
<polygon fill="grey" stroke="grey" stroke-width="2" points="1050.72,-160.93 1040.59,-164.06 1050.46,-167.93 1050.72,-160.93"/>
</g>
<!-- 26&#45;&gt;17 -->
<g id="edge45" class="edge">
<title>26&#45;&gt;17</title>
<path fill="none" stroke="grey" stroke-width="2" d="M1365.14,-215.97C1347.64,-196.47 1316.7,-164.57 1284.79,-144 1260.25,-128.18 1230.21,-115.45 1205.39,-106.43"/>
<polygon fill="grey" stroke="grey" stroke-width="2" points="1206.41,-103.07 1195.81,-103.04 1204.07,-109.67 1206.41,-103.07"/>
</g>
<!-- 26&#45;&gt;27 -->
<g id="edge85" class="edge">
<title>26&#45;&gt;27</title>
<path fill="none" stroke="grey" stroke-width="2" d="M1298.88,-217.9C1222.96,-203.73 1112.13,-183.04 1050.48,-171.53"/>
<polygon fill="grey" stroke="grey" stroke-width="2" points="1050.76,-168.02 1040.29,-169.63 1049.48,-174.9 1050.76,-168.02"/>
</g>
<!-- 27&#45;&gt;17 -->
<g id="edge47" class="edge">
<title>27&#45;&gt;17</title>
<path fill="none" stroke="grey" stroke-width="2" d="M1040.43,-144.59C1061.31,-134.97 1087.92,-122.72 1110.43,-112.35"/>
<polygon fill="grey" stroke="grey" stroke-width="2" points="1112.17,-115.4 1119.79,-108.04 1109.24,-109.04 1112.17,-115.4"/>
</g>
</g>
</svg>
