<?xml version="1.0" encoding="UTF-8" standalone="no"?>
<!DOCTYPE svg PUBLIC "-//W3C//DTD SVG 1.1//EN"
 "http://www.w3.org/Graphics/SVG/1.1/DTD/svg11.dtd">
<!-- Generated by graphviz version 6.0.1 (20220911.2005)
 -->
<!-- Title: snakemake_dag Pages: 1 -->
<svg width="1799pt" height="1268pt"
 viewBox="0.00 0.00 1798.50 1268.00" xmlns="http://www.w3.org/2000/svg" xmlns:xlink="http://www.w3.org/1999/xlink">
<g id="graph0" class="graph" transform="scale(1 1) rotate(0) translate(4 1264)">
<title>snakemake_dag</title>
<polygon fill="white" stroke="none" points="-4,4 -4,-1264 1794.5,-1264 1794.5,4 -4,4"/>
<!-- 0 -->
<g id="node1" class="node">
<title>0</title>
<path fill="none" stroke="#56d88a" stroke-width="2" d="M1339.5,-36C1339.5,-36 1309.5,-36 1309.5,-36 1303.5,-36 1297.5,-30 1297.5,-24 1297.5,-24 1297.5,-12 1297.5,-12 1297.5,-6 1303.5,0 1309.5,0 1309.5,0 1339.5,0 1339.5,0 1345.5,0 1351.5,-6 1351.5,-12 1351.5,-12 1351.5,-24 1351.5,-24 1351.5,-30 1345.5,-36 1339.5,-36"/>
<text text-anchor="middle" x="1324.5" y="-15.5" font-family="sans" font-size="10.00">all</text>
</g>
<!-- 1 -->
<g id="node2" class="node">
<title>1</title>
<path fill="none" stroke="#59d856" stroke-width="2" d="M386,-900C386,-900 321,-900 321,-900 315,-900 309,-894 309,-888 309,-888 309,-876 309,-876 309,-870 315,-864 321,-864 321,-864 386,-864 386,-864 392,-864 398,-870 398,-876 398,-876 398,-888 398,-888 398,-894 392,-900 386,-900"/>
<text text-anchor="middle" x="353.5" y="-879.5" font-family="sans" font-size="10.00">variant_counts</text>
</g>
<!-- 1&#45;&gt;0 -->
<g id="edge4" class="edge">
<title>1&#45;&gt;0</title>
<path fill="none" stroke="grey" stroke-width="2" d="M332.39,-863.8C268.98,-810.06 84.5,-637.68 84.5,-451 84.5,-451 84.5,-451 84.5,-377 84.5,-218.23 119.14,-119.95 270.5,-72 368.97,-40.81 1111.89,-23.44 1287.42,-19.75"/>
<polygon fill="grey" stroke="grey" stroke-width="2" points="1287.53,-23.25 1297.45,-19.54 1287.38,-16.25 1287.53,-23.25"/>
</g>
<!-- 10 -->
<g id="node11" class="node">
<title>10</title>
<path fill="none" stroke="#567bd8" stroke-width="2" d="M536.5,-828C536.5,-828 428.5,-828 428.5,-828 422.5,-828 416.5,-822 416.5,-816 416.5,-816 416.5,-804 416.5,-804 416.5,-798 422.5,-792 428.5,-792 428.5,-792 536.5,-792 536.5,-792 542.5,-792 548.5,-798 548.5,-804 548.5,-804 548.5,-816 548.5,-816 548.5,-822 542.5,-828 536.5,-828"/>
<text text-anchor="middle" x="482.5" y="-807.5" font-family="sans" font-size="10.00">analyze_variant_counts</text>
</g>
<!-- 1&#45;&gt;10 -->
<g id="edge21" class="edge">
<title>1&#45;&gt;10</title>
<path fill="none" stroke="grey" stroke-width="2" d="M385.06,-863.88C402.16,-854.6 423.48,-843.03 441.82,-833.08"/>
<polygon fill="grey" stroke="grey" stroke-width="2" points="443.7,-836.04 450.82,-828.19 440.36,-829.88 443.7,-836.04"/>
</g>
<!-- 14 -->
<g id="node15" class="node">
<title>14</title>
<path fill="none" stroke="#56c9d8" stroke-width="2" d="M824.5,-684C824.5,-684 774.5,-684 774.5,-684 768.5,-684 762.5,-678 762.5,-672 762.5,-672 762.5,-660 762.5,-660 762.5,-654 768.5,-648 774.5,-648 774.5,-648 824.5,-648 824.5,-648 830.5,-648 836.5,-654 836.5,-660 836.5,-660 836.5,-672 836.5,-672 836.5,-678 830.5,-684 824.5,-684"/>
<text text-anchor="middle" x="799.5" y="-663.5" font-family="sans" font-size="10.00">func_scores</text>
</g>
<!-- 1&#45;&gt;14 -->
<g id="edge33" class="edge">
<title>1&#45;&gt;14</title>
<path fill="none" stroke="grey" stroke-width="2" d="M359.83,-863.91C367.99,-844.05 384,-811.51 407.5,-792 510.46,-706.51 672.65,-679.2 752.25,-670.7"/>
<polygon fill="grey" stroke="grey" stroke-width="2" points="752.86,-674.16 762.46,-669.67 752.16,-667.2 752.86,-674.16"/>
</g>
<!-- 16 -->
<g id="node17" class="node">
<title>16</title>
<path fill="none" stroke="#d87d56" stroke-width="2" d="M920.5,-684C920.5,-684 866.5,-684 866.5,-684 860.5,-684 854.5,-678 854.5,-672 854.5,-672 854.5,-660 854.5,-660 854.5,-654 860.5,-648 866.5,-648 866.5,-648 920.5,-648 920.5,-648 926.5,-648 932.5,-654 932.5,-660 932.5,-660 932.5,-672 932.5,-672 932.5,-678 926.5,-684 920.5,-684"/>
<text text-anchor="middle" x="893.5" y="-663.5" font-family="sans" font-size="10.00">prob_escape</text>
</g>
<!-- 1&#45;&gt;16 -->
<g id="edge40" class="edge">
<title>1&#45;&gt;16</title>
<path fill="none" stroke="grey" stroke-width="2" d="M398.08,-874.97C479.93,-862.49 657.83,-828.68 789.5,-756 820.68,-738.79 850.99,-711.23 870.77,-691.34"/>
<polygon fill="grey" stroke="grey" stroke-width="2" points="873.33,-693.73 877.81,-684.13 868.32,-688.83 873.33,-693.73"/>
</g>
<!-- 17 -->
<g id="node18" class="node">
<title>17</title>
<path fill="none" stroke="#b6d856" stroke-width="2" d="M1351.5,-108C1351.5,-108 1297.5,-108 1297.5,-108 1291.5,-108 1285.5,-102 1285.5,-96 1285.5,-96 1285.5,-84 1285.5,-84 1285.5,-78 1291.5,-72 1297.5,-72 1297.5,-72 1351.5,-72 1351.5,-72 1357.5,-72 1363.5,-78 1363.5,-84 1363.5,-84 1363.5,-96 1363.5,-96 1363.5,-102 1357.5,-108 1351.5,-108"/>
<text text-anchor="middle" x="1324.5" y="-87.5" font-family="sans" font-size="10.00">sphinx_build</text>
</g>
<!-- 1&#45;&gt;17 -->
<g id="edge49" class="edge">
<title>1&#45;&gt;17</title>
<path fill="none" stroke="grey" stroke-width="2" d="M343.46,-863.78C291.47,-772.22 63.52,-339.27 282.5,-144 319.96,-110.6 1073.66,-95.31 1275.27,-91.8"/>
<polygon fill="grey" stroke="grey" stroke-width="2" points="1275.34,-95.3 1285.28,-91.63 1275.22,-88.3 1275.34,-95.3"/>
</g>
<!-- 25 -->
<g id="node26" class="node">
<title>25</title>
<path fill="none" stroke="#56d86b" stroke-width="2" d="M802,-180C802,-180 755,-180 755,-180 749,-180 743,-174 743,-168 743,-168 743,-156 743,-156 743,-150 749,-144 755,-144 755,-144 802,-144 802,-144 808,-144 814,-150 814,-156 814,-156 814,-168 814,-168 814,-174 808,-180 802,-180"/>
<text text-anchor="middle" x="778.5" y="-159.5" font-family="sans" font-size="10.00">docs_index</text>
</g>
<!-- 1&#45;&gt;25 -->
<g id="edge93" class="edge">
<title>1&#45;&gt;25</title>
<path fill="none" stroke="grey" stroke-width="2" d="M357.11,-863.68C366.06,-819.26 388.5,-697.55 388.5,-595 388.5,-595 388.5,-595 388.5,-449 388.5,-406.66 394.44,-391.71 422.5,-360 445.16,-334.39 461.28,-341.76 490.5,-324 562.56,-280.2 572.24,-255.96 646.5,-216 674.27,-201.06 707.17,-187.84 733.19,-178.34"/>
<polygon fill="grey" stroke="grey" stroke-width="2" points="734.57,-181.56 742.79,-174.88 732.2,-174.97 734.57,-181.56"/>
</g>
<!-- 2 -->
<g id="node3" class="node">
<title>2</title>
<path fill="none" stroke="#56d87b" stroke-width="2" d="M536,-972C536,-972 467,-972 467,-972 461,-972 455,-966 455,-960 455,-960 455,-948 455,-948 455,-942 461,-936 467,-936 467,-936 536,-936 536,-936 542,-936 548,-942 548,-948 548,-948 548,-960 548,-960 548,-966 542,-972 536,-972"/>
<text text-anchor="middle" x="501.5" y="-951.5" font-family="sans" font-size="10.00">count_barcodes</text>
</g>
<!-- 2&#45;&gt;1 -->
<g id="edge8" class="edge">
<title>2&#45;&gt;1</title>
<path fill="none" stroke="grey" stroke-width="2" d="M465.3,-935.88C445.24,-926.39 420.13,-914.51 398.79,-904.42"/>
<polygon fill="grey" stroke="grey" stroke-width="2" points="400.12,-901.18 389.59,-900.07 397.13,-907.51 400.12,-901.18"/>
</g>
<!-- 2&#45;&gt;10 -->
<g id="edge22" class="edge">
<title>2&#45;&gt;10</title>
<path fill="none" stroke="grey" stroke-width="2" d="M499.21,-935.87C495.97,-911.67 490.02,-867.21 486.17,-838.39"/>
<polygon fill="grey" stroke="grey" stroke-width="2" points="489.6,-837.64 484.8,-828.19 482.66,-838.57 489.6,-837.64"/>
</g>
<!-- 3 -->
<g id="node4" class="node">
<title>3</title>
<path fill="none" stroke="#d85656" stroke-width="2" d="M773.5,-1044C773.5,-1044 677.5,-1044 677.5,-1044 671.5,-1044 665.5,-1038 665.5,-1032 665.5,-1032 665.5,-1020 665.5,-1020 665.5,-1014 671.5,-1008 677.5,-1008 677.5,-1008 773.5,-1008 773.5,-1008 779.5,-1008 785.5,-1014 785.5,-1020 785.5,-1020 785.5,-1032 785.5,-1032 785.5,-1038 779.5,-1044 773.5,-1044"/>
<text text-anchor="middle" x="725.5" y="-1023.5" font-family="sans" font-size="10.00">build_codon_variants</text>
</g>
<!-- 3&#45;&gt;1 -->
<g id="edge7" class="edge">
<title>3&#45;&gt;1</title>
<path fill="none" stroke="grey" stroke-width="2" d="M665.43,-1023.38C606.66,-1019.61 516.08,-1007.84 446.5,-972 416.64,-956.62 389.79,-928.63 372.7,-908.13"/>
<polygon fill="grey" stroke="grey" stroke-width="2" points="375.23,-905.69 366.21,-900.13 369.8,-910.1 375.23,-905.69"/>
</g>
<!-- 3&#45;&gt;2 -->
<g id="edge9" class="edge">
<title>3&#45;&gt;2</title>
<path fill="none" stroke="grey" stroke-width="2" d="M670.99,-1007.97C636.81,-997.28 592.83,-983.54 558.23,-972.73"/>
<polygon fill="grey" stroke="grey" stroke-width="2" points="558.87,-969.26 548.28,-969.62 556.78,-975.94 558.87,-969.26"/>
</g>
<!-- 3&#45;&gt;10 -->
<g id="edge18" class="edge">
<title>3&#45;&gt;10</title>
<path fill="none" stroke="grey" stroke-width="2" d="M706.03,-1007.85C662.92,-969.89 559.38,-878.7 509.82,-835.06"/>
<polygon fill="grey" stroke="grey" stroke-width="2" points="511.89,-832.21 502.07,-828.23 507.26,-837.47 511.89,-832.21"/>
</g>
<!-- 3&#45;&gt;14 -->
<g id="edge30" class="edge">
<title>3&#45;&gt;14</title>
<path fill="none" stroke="grey" stroke-width="2" d="M730.35,-1007.84C742.17,-965.45 772.71,-852.24 789.5,-756 793.09,-735.45 795.66,-712 797.3,-694.33"/>
<polygon fill="grey" stroke="grey" stroke-width="2" points="800.8,-694.42 798.2,-684.15 793.83,-693.8 800.8,-694.42"/>
</g>
<!-- 3&#45;&gt;16 -->
<g id="edge37" class="edge">
<title>3&#45;&gt;16</title>
<path fill="none" stroke="grey" stroke-width="2" d="M737.13,-1007.7C743.76,-997.51 752.01,-984.26 758.5,-972 811.31,-872.23 861.97,-747.55 883.13,-693.75"/>
<polygon fill="grey" stroke="grey" stroke-width="2" points="886.46,-694.85 886.85,-684.26 879.95,-692.29 886.46,-694.85"/>
</g>
<!-- 3&#45;&gt;17 -->
<g id="edge41" class="edge">
<title>3&#45;&gt;17</title>
<path fill="none" stroke="grey" stroke-width="2" d="M763.57,-1007.96C936.36,-929.44 1638.5,-596.96 1638.5,-379 1638.5,-379 1638.5,-379 1638.5,-233 1638.5,-118.19 1462.06,-95.71 1373.7,-91.66"/>
<polygon fill="grey" stroke="grey" stroke-width="2" points="1373.76,-88.16 1363.63,-91.26 1373.49,-95.15 1373.76,-88.16"/>
</g>
<!-- 23 -->
<g id="node24" class="node">
<title>23</title>
<path fill="none" stroke="#68d856" stroke-width="2" d="M1034,-324C1034,-324 979,-324 979,-324 973,-324 967,-318 967,-312 967,-312 967,-300 967,-300 967,-294 973,-288 979,-288 979,-288 1034,-288 1034,-288 1040,-288 1046,-294 1046,-300 1046,-300 1046,-312 1046,-312 1046,-318 1040,-324 1034,-324"/>
<text text-anchor="middle" x="1006.5" y="-303.5" font-family="sans" font-size="10.00">make_nblink</text>
</g>
<!-- 3&#45;&gt;23 -->
<g id="edge66" class="edge">
<title>3&#45;&gt;23</title>
<path fill="none" stroke="grey" stroke-width="2" d="M746.02,-1007.88C757.03,-998.07 770.38,-985.13 780.5,-972 870.04,-855.87 892.56,-822.24 941.5,-684 986.04,-558.19 1000.7,-397.62 1004.95,-334.36"/>
<polygon fill="grey" stroke="grey" stroke-width="2" points="1008.47,-334.25 1005.61,-324.05 1001.48,-333.81 1008.47,-334.25"/>
</g>
<!-- 3&#45;&gt;25 -->
<g id="edge78" class="edge">
<title>3&#45;&gt;25</title>
<path fill="none" stroke="grey" stroke-width="2" d="M665.37,-1023.78C597.4,-1020.52 484.61,-1009.33 395.5,-972 333.93,-946.21 274.5,-949.76 274.5,-883 274.5,-883 274.5,-883 274.5,-809 274.5,-708.07 350.5,-695.93 350.5,-595 350.5,-595 350.5,-595 350.5,-449 350.5,-301.6 454.11,-280.8 586.5,-216 633.79,-192.86 692.74,-178.49 732.75,-170.66"/>
<polygon fill="grey" stroke="grey" stroke-width="2" points="733.58,-174.06 742.75,-168.75 732.27,-167.18 733.58,-174.06"/>
</g>
<!-- 4 -->
<g id="node5" class="node">
<title>4</title>
<path fill="none" stroke="#d6d856" stroke-width="2" d="M234.5,-1116C234.5,-1116 124.5,-1116 124.5,-1116 118.5,-1116 112.5,-1110 112.5,-1104 112.5,-1104 112.5,-1092 112.5,-1092 112.5,-1086 118.5,-1080 124.5,-1080 124.5,-1080 234.5,-1080 234.5,-1080 240.5,-1080 246.5,-1086 246.5,-1092 246.5,-1092 246.5,-1104 246.5,-1104 246.5,-1110 240.5,-1116 234.5,-1116"/>
<text text-anchor="middle" x="179.5" y="-1095.5" font-family="sans" font-size="10.00">build_pacbio_consensus</text>
</g>
<!-- 4&#45;&gt;3 -->
<g id="edge12" class="edge">
<title>4&#45;&gt;3</title>
<path fill="none" stroke="grey" stroke-width="2" d="M246.72,-1088.38C350.69,-1075.05 549.5,-1049.56 655.26,-1036.01"/>
<polygon fill="grey" stroke="grey" stroke-width="2" points="655.73,-1039.47 665.2,-1034.73 654.84,-1032.53 655.73,-1039.47"/>
</g>
<!-- 4&#45;&gt;17 -->
<g id="edge45" class="edge">
<title>4&#45;&gt;17</title>
<path fill="none" stroke="grey" stroke-width="2" d="M172.48,-1079.55C168.55,-1069.32 163.8,-1056.07 160.5,-1044 89.67,-785.13 46.5,-719.38 46.5,-451 46.5,-451 46.5,-451 46.5,-377 46.5,-261.32 65.56,-207.13 162.5,-144 209.77,-113.22 1059.93,-95.79 1275.26,-91.86"/>
<polygon fill="grey" stroke="grey" stroke-width="2" points="1275.38,-95.36 1285.32,-91.68 1275.26,-88.36 1275.38,-95.36"/>
</g>
<!-- 4&#45;&gt;23 -->
<g id="edge68" class="edge">
<title>4&#45;&gt;23</title>
<path fill="none" stroke="grey" stroke-width="2" d="M246.7,-1086.2C352.06,-1067.77 548.49,-1026.84 590.5,-972 624.57,-927.52 577.68,-772.02 598.5,-720 678.27,-520.71 755.86,-497.74 920.5,-360 934.09,-348.63 950.35,-337.98 965.05,-329.25"/>
<polygon fill="grey" stroke="grey" stroke-width="2" points="967.08,-332.12 973.97,-324.08 963.56,-326.07 967.08,-332.12"/>
</g>
<!-- 4&#45;&gt;25 -->
<g id="edge80" class="edge">
<title>4&#45;&gt;25</title>
<path fill="none" stroke="grey" stroke-width="2" d="M175.66,-1079.61C170.1,-1052.94 160.5,-1000.27 160.5,-955 160.5,-955 160.5,-955 160.5,-737 160.5,-528.23 149.12,-433.84 298.5,-288 340.79,-246.72 373.52,-278.17 426.5,-252 450.41,-240.19 450.02,-226.58 474.5,-216 497.83,-205.92 653.56,-181.67 732.62,-169.79"/>
<polygon fill="grey" stroke="grey" stroke-width="2" points="733.42,-173.21 742.79,-168.27 732.38,-166.29 733.42,-173.21"/>
</g>
<!-- 5 -->
<g id="node6" class="node">
<title>5</title>
<path fill="none" stroke="#56d8d8" stroke-width="2" d="M110,-1188C110,-1188 21,-1188 21,-1188 15,-1188 9,-1182 9,-1176 9,-1176 9,-1164 9,-1164 9,-1158 15,-1152 21,-1152 21,-1152 110,-1152 110,-1152 116,-1152 122,-1158 122,-1164 122,-1164 122,-1176 122,-1176 122,-1182 116,-1188 110,-1188"/>
<text text-anchor="middle" x="65.5" y="-1167.5" font-family="sans" font-size="10.00">analyze_pacbio_ccs</text>
</g>
<!-- 5&#45;&gt;4 -->
<g id="edge14" class="edge">
<title>5&#45;&gt;4</title>
<path fill="none" stroke="grey" stroke-width="2" d="M93.39,-1151.88C108.29,-1142.72 126.83,-1131.34 142.88,-1121.48"/>
<polygon fill="grey" stroke="grey" stroke-width="2" points="144.81,-1124.41 151.51,-1116.19 141.15,-1118.44 144.81,-1124.41"/>
</g>
<!-- 5&#45;&gt;17 -->
<g id="edge54" class="edge">
<title>5&#45;&gt;17</title>
<path fill="none" stroke="grey" stroke-width="2" d="M53.69,-1151.96C36.99,-1126.16 8.5,-1075.08 8.5,-1027 8.5,-1027 8.5,-1027 8.5,-305 8.5,-219.81 37.52,-184.43 112.5,-144 216.01,-88.19 1061.41,-89.42 1275.41,-90.64"/>
<polygon fill="grey" stroke="grey" stroke-width="2" points="1275.39,-94.14 1285.41,-90.7 1275.44,-87.14 1275.39,-94.14"/>
</g>
<!-- 5&#45;&gt;23 -->
<g id="edge76" class="edge">
<title>5&#45;&gt;23</title>
<path fill="none" stroke="grey" stroke-width="2" d="M68.09,-1151.85C72.07,-1131.62 81.66,-1098.41 103.5,-1080 123.32,-1063.29 540.21,-991.32 557.5,-972 632.74,-887.9 565.74,-830.52 588.5,-720 595.22,-687.35 596.99,-678.9 609.5,-648 638,-577.6 650.25,-560.05 701.5,-504 768.78,-430.43 787.06,-409.68 873.5,-360 899.87,-344.84 931.42,-332.07 957.17,-322.86"/>
<polygon fill="grey" stroke="grey" stroke-width="2" points="958.45,-326.12 966.73,-319.51 956.14,-319.51 958.45,-326.12"/>
</g>
<!-- 5&#45;&gt;25 -->
<g id="edge88" class="edge">
<title>5&#45;&gt;25</title>
<path fill="none" stroke="grey" stroke-width="2" d="M64.32,-1151.85C58.94,-1062.08 43.68,-639.92 208.5,-360 228.66,-325.76 228.73,-310.48 261.5,-288 311.65,-253.6 341.58,-283.66 393.5,-252 412.03,-240.7 407.34,-226.2 426.5,-216 433.24,-212.41 639.28,-182.79 732.94,-169.46"/>
<polygon fill="grey" stroke="grey" stroke-width="2" points="733.58,-172.9 742.99,-168.03 732.59,-165.97 733.58,-172.9"/>
</g>
<!-- 6 -->
<g id="node7" class="node">
<title>6</title>
<path fill="none" stroke="#9fd856" stroke-width="2" d="M119,-1260C119,-1260 12,-1260 12,-1260 6,-1260 0,-1254 0,-1248 0,-1248 0,-1236 0,-1236 0,-1230 6,-1224 12,-1224 12,-1224 119,-1224 119,-1224 125,-1224 131,-1230 131,-1236 131,-1236 131,-1248 131,-1248 131,-1254 125,-1260 119,-1260"/>
<text text-anchor="middle" x="65.5" y="-1239.5" font-family="sans" font-size="10.00">align_parse_PacBio_ccs</text>
</g>
<!-- 6&#45;&gt;5 -->
<g id="edge15" class="edge">
<title>6&#45;&gt;5</title>
<path fill="none" stroke="grey" stroke-width="2" d="M65.5,-1223.7C65.5,-1215.98 65.5,-1206.71 65.5,-1198.11"/>
<polygon fill="grey" stroke="grey" stroke-width="2" points="69,-1198.1 65.5,-1188.1 62,-1198.1 69,-1198.1"/>
</g>
<!-- 7 -->
<g id="node8" class="node">
<title>7</title>
<path fill="none" stroke="#56b1d8" stroke-width="2" d="M759.5,-1188C759.5,-1188 691.5,-1188 691.5,-1188 685.5,-1188 679.5,-1182 679.5,-1176 679.5,-1176 679.5,-1164 679.5,-1164 679.5,-1158 685.5,-1152 691.5,-1152 691.5,-1152 759.5,-1152 759.5,-1152 765.5,-1152 771.5,-1158 771.5,-1164 771.5,-1164 771.5,-1176 771.5,-1176 771.5,-1182 765.5,-1188 759.5,-1188"/>
<text text-anchor="middle" x="725.5" y="-1167.5" font-family="sans" font-size="10.00">gene_sequence</text>
</g>
<!-- 7&#45;&gt;1 -->
<g id="edge6" class="edge">
<title>7&#45;&gt;1</title>
<path fill="none" stroke="grey" stroke-width="2" d="M679.35,-1167.22C601.93,-1163.28 450.62,-1151.18 412.5,-1116 354.05,-1062.07 349.93,-959.3 351.64,-910.3"/>
<polygon fill="grey" stroke="grey" stroke-width="2" points="355.14,-910.3 352.11,-900.15 348.15,-909.98 355.14,-910.3"/>
</g>
<!-- 7&#45;&gt;3 -->
<g id="edge10" class="edge">
<title>7&#45;&gt;3</title>
<path fill="none" stroke="grey" stroke-width="2" d="M725.5,-1151.87C725.5,-1127.67 725.5,-1083.21 725.5,-1054.39"/>
<polygon fill="grey" stroke="grey" stroke-width="2" points="729,-1054.19 725.5,-1044.19 722,-1054.19 729,-1054.19"/>
</g>
<!-- 7&#45;&gt;4 -->
<g id="edge13" class="edge">
<title>7&#45;&gt;4</title>
<path fill="none" stroke="grey" stroke-width="2" d="M679.43,-1165.19C595.7,-1157.94 413.1,-1140.66 260.5,-1116 259.22,-1115.79 257.94,-1115.58 256.64,-1115.36"/>
<polygon fill="grey" stroke="grey" stroke-width="2" points="257.05,-1111.88 246.59,-1113.59 255.83,-1118.77 257.05,-1111.88"/>
</g>
<!-- 8 -->
<g id="node9" class="node">
<title>8</title>
<path fill="none" stroke="#568ad8" stroke-width="2" d="M1103,-1116C1103,-1116 1008,-1116 1008,-1116 1002,-1116 996,-1110 996,-1104 996,-1104 996,-1092 996,-1092 996,-1086 1002,-1080 1008,-1080 1008,-1080 1103,-1080 1103,-1080 1109,-1080 1115,-1086 1115,-1092 1115,-1092 1115,-1104 1115,-1104 1115,-1110 1109,-1116 1103,-1116"/>
<text text-anchor="middle" x="1055.5" y="-1095.5" font-family="sans" font-size="10.00">site_numbering_map</text>
</g>
<!-- 7&#45;&gt;8 -->
<g id="edge16" class="edge">
<title>7&#45;&gt;8</title>
<path fill="none" stroke="grey" stroke-width="2" d="M771.73,-1159.19C827.38,-1147.39 921.37,-1127.45 985.82,-1113.78"/>
<polygon fill="grey" stroke="grey" stroke-width="2" points="986.85,-1117.14 995.9,-1111.64 985.4,-1110.29 986.85,-1117.14"/>
</g>
<!-- 7&#45;&gt;10 -->
<g id="edge19" class="edge">
<title>7&#45;&gt;10</title>
<path fill="none" stroke="grey" stroke-width="2" d="M679.44,-1167.54C595.56,-1162.17 426.5,-1137.62 426.5,-1027 426.5,-1027 426.5,-1027 426.5,-953 426.5,-909.91 449.1,-864.26 465.58,-836.7"/>
<polygon fill="grey" stroke="grey" stroke-width="2" points="468.63,-838.42 470.9,-828.07 462.67,-834.75 468.63,-838.42"/>
</g>
<!-- 7&#45;&gt;14 -->
<g id="edge31" class="edge">
<title>7&#45;&gt;14</title>
<path fill="none" stroke="grey" stroke-width="2" d="M742.66,-1151.98C773.45,-1120.07 837.07,-1047.65 860.5,-972 891.71,-871.24 839.77,-746.66 813.41,-693.29"/>
<polygon fill="grey" stroke="grey" stroke-width="2" points="816.44,-691.52 808.81,-684.17 810.19,-694.67 816.44,-691.52"/>
</g>
<!-- 7&#45;&gt;16 -->
<g id="edge38" class="edge">
<title>7&#45;&gt;16</title>
<path fill="none" stroke="grey" stroke-width="2" d="M771.59,-1165.41C937.49,-1151.88 1494.5,-1100.95 1494.5,-1027 1494.5,-1027 1494.5,-1027 1494.5,-809 1494.5,-696.04 1087.28,-672.83 943.24,-668.15"/>
<polygon fill="grey" stroke="grey" stroke-width="2" points="943.04,-664.65 932.93,-667.84 942.82,-671.64 943.04,-664.65"/>
</g>
<!-- 7&#45;&gt;17 -->
<g id="edge55" class="edge">
<title>7&#45;&gt;17</title>
<path fill="none" stroke="grey" stroke-width="2" d="M771.6,-1167.78C976.02,-1161.8 1790.5,-1131.4 1790.5,-1027 1790.5,-1027 1790.5,-1027 1790.5,-233 1790.5,-146.61 1493.73,-107.67 1373.85,-95.47"/>
<polygon fill="grey" stroke="grey" stroke-width="2" points="1374.13,-91.98 1363.83,-94.47 1373.43,-98.94 1374.13,-91.98"/>
</g>
<!-- 7&#45;&gt;25 -->
<g id="edge83" class="edge">
<title>7&#45;&gt;25</title>
<path fill="none" stroke="grey" stroke-width="2" d="M679.27,-1166.73C597.14,-1161.92 430,-1148.35 382.5,-1116 293.13,-1055.12 297.72,-1004.66 270.5,-900 228.06,-736.84 312.5,-691.59 312.5,-523 312.5,-523 312.5,-523 312.5,-377 312.5,-289.53 391.5,-300.18 464.5,-252 485.02,-238.46 484.37,-226.71 506.5,-216 545.76,-197.01 665.84,-178.33 732.57,-169.05"/>
<polygon fill="grey" stroke="grey" stroke-width="2" points="733.37,-172.48 742.8,-167.65 732.41,-165.54 733.37,-172.48"/>
</g>
<!-- 8&#45;&gt;3 -->
<g id="edge11" class="edge">
<title>8&#45;&gt;3</title>
<path fill="none" stroke="grey" stroke-width="2" d="M995.74,-1084.32C939.47,-1072.39 855.16,-1054.5 795.71,-1041.89"/>
<polygon fill="grey" stroke="grey" stroke-width="2" points="796.16,-1038.41 785.65,-1039.76 794.71,-1045.26 796.16,-1038.41"/>
</g>
<!-- 8&#45;&gt;10 -->
<g id="edge20" class="edge">
<title>8&#45;&gt;10</title>
<path fill="none" stroke="grey" stroke-width="2" d="M1021.37,-1079.97C922.46,-1030.6 635.72,-887.47 525.95,-832.69"/>
<polygon fill="grey" stroke="grey" stroke-width="2" points="527.32,-829.46 516.81,-828.13 524.19,-835.72 527.32,-829.46"/>
</g>
<!-- 11 -->
<g id="node12" class="node">
<title>11</title>
<path fill="none" stroke="#d8b456" stroke-width="2" d="M1505.5,-468C1505.5,-468 1407.5,-468 1407.5,-468 1401.5,-468 1395.5,-462 1395.5,-456 1395.5,-456 1395.5,-444 1395.5,-444 1395.5,-438 1401.5,-432 1407.5,-432 1407.5,-432 1505.5,-432 1505.5,-432 1511.5,-432 1517.5,-438 1517.5,-444 1517.5,-444 1517.5,-456 1517.5,-456 1517.5,-462 1511.5,-468 1505.5,-468"/>
<text text-anchor="middle" x="1456.5" y="-447.5" font-family="sans" font-size="10.00">avg_antibody_escape</text>
</g>
<!-- 8&#45;&gt;11 -->
<g id="edge25" class="edge">
<title>8&#45;&gt;11</title>
<path fill="none" stroke="grey" stroke-width="2" d="M1115.1,-1088.59C1226.81,-1071.13 1456.5,-1026.55 1456.5,-955 1456.5,-955 1456.5,-955 1456.5,-593 1456.5,-553 1456.5,-506.65 1456.5,-478.08"/>
<polygon fill="grey" stroke="grey" stroke-width="2" points="1460,-478.05 1456.5,-468.05 1453,-478.05 1460,-478.05"/>
</g>
<!-- 13 -->
<g id="node14" class="node">
<title>13</title>
<path fill="none" stroke="#566bd8" stroke-width="2" d="M1141,-612C1141,-612 1060,-612 1060,-612 1054,-612 1048,-606 1048,-600 1048,-600 1048,-588 1048,-588 1048,-582 1054,-576 1060,-576 1060,-576 1141,-576 1141,-576 1147,-576 1153,-582 1153,-588 1153,-588 1153,-600 1153,-600 1153,-606 1147,-612 1141,-612"/>
<text text-anchor="middle" x="1100.5" y="-591.5" font-family="sans" font-size="10.00">fit_globalepistasis</text>
</g>
<!-- 8&#45;&gt;13 -->
<g id="edge28" class="edge">
<title>8&#45;&gt;13</title>
<path fill="none" stroke="grey" stroke-width="2" d="M1077.06,-1079.78C1105.09,-1055.28 1150.5,-1007.5 1150.5,-955 1150.5,-955 1150.5,-955 1150.5,-737 1150.5,-694.68 1130.5,-649.09 1115.8,-621.3"/>
<polygon fill="grey" stroke="grey" stroke-width="2" points="1118.72,-619.35 1110.86,-612.24 1112.57,-622.7 1118.72,-619.35"/>
</g>
<!-- 8&#45;&gt;14 -->
<g id="edge32" class="edge">
<title>8&#45;&gt;14</title>
<path fill="none" stroke="grey" stroke-width="2" d="M1048.81,-1079.89C1044.83,-1069.54 1039.74,-1056.06 1035.5,-1044 996.48,-932.87 1008.25,-896.28 953.5,-792 934.78,-756.35 929.17,-746.1 898.5,-720 882.97,-706.78 863.59,-695.52 846.11,-686.81"/>
<polygon fill="grey" stroke="grey" stroke-width="2" points="847.16,-683.43 836.63,-682.25 844.12,-689.74 847.16,-683.43"/>
</g>
<!-- 15 -->
<g id="node16" class="node">
<title>15</title>
<path fill="none" stroke="#56d8a2" stroke-width="2" d="M1323.5,-540C1323.5,-540 1265.5,-540 1265.5,-540 1259.5,-540 1253.5,-534 1253.5,-528 1253.5,-528 1253.5,-516 1253.5,-516 1253.5,-510 1259.5,-504 1265.5,-504 1265.5,-504 1323.5,-504 1323.5,-504 1329.5,-504 1335.5,-510 1335.5,-516 1335.5,-516 1335.5,-528 1335.5,-528 1335.5,-534 1329.5,-540 1323.5,-540"/>
<text text-anchor="middle" x="1294.5" y="-519.5" font-family="sans" font-size="10.00">fit_polyclonal</text>
</g>
<!-- 8&#45;&gt;15 -->
<g id="edge34" class="edge">
<title>8&#45;&gt;15</title>
<path fill="none" stroke="grey" stroke-width="2" d="M1115.2,-1087.29C1184.24,-1072.26 1288.5,-1036.12 1288.5,-955 1288.5,-955 1288.5,-955 1288.5,-665 1288.5,-624.96 1290.91,-578.63 1292.68,-550.07"/>
<polygon fill="grey" stroke="grey" stroke-width="2" points="1296.17,-550.24 1293.31,-540.04 1289.19,-549.8 1296.17,-550.24"/>
</g>
<!-- 8&#45;&gt;16 -->
<g id="edge39" class="edge">
<title>8&#45;&gt;16</title>
<path fill="none" stroke="grey" stroke-width="2" d="M1051.66,-1079.61C1046.1,-1052.94 1036.5,-1000.27 1036.5,-955 1036.5,-955 1036.5,-955 1036.5,-809 1036.5,-753.59 981.77,-712.39 940.02,-689.03"/>
<polygon fill="grey" stroke="grey" stroke-width="2" points="941.53,-685.86 931.07,-684.17 938.19,-692.01 941.53,-685.86"/>
</g>
<!-- 8&#45;&gt;17 -->
<g id="edge57" class="edge">
<title>8&#45;&gt;17</title>
<path fill="none" stroke="grey" stroke-width="2" d="M1115.04,-1095.97C1270.48,-1091.66 1676.5,-1069.47 1676.5,-955 1676.5,-955 1676.5,-955 1676.5,-233 1676.5,-186.27 1659.25,-170.12 1620.5,-144 1580.99,-117.37 1447.35,-101.77 1373.89,-95.01"/>
<polygon fill="grey" stroke="grey" stroke-width="2" points="1373.78,-91.49 1363.51,-94.08 1373.16,-98.46 1373.78,-91.49"/>
</g>
<!-- 8&#45;&gt;25 -->
<g id="edge87" class="edge">
<title>8&#45;&gt;25</title>
<path fill="none" stroke="grey" stroke-width="2" d="M1059.34,-1079.61C1064.9,-1052.94 1074.5,-1000.27 1074.5,-955 1074.5,-955 1074.5,-955 1074.5,-809 1074.5,-586.13 816.5,-601.87 816.5,-379 816.5,-379 816.5,-379 816.5,-305 816.5,-263.63 801.27,-217.72 790.09,-189.61"/>
<polygon fill="grey" stroke="grey" stroke-width="2" points="793.22,-188.02 786.19,-180.09 786.74,-190.67 793.22,-188.02"/>
</g>
<!-- 9 -->
<g id="node10" class="node">
<title>9</title>
<path fill="none" stroke="#d86656" stroke-width="2" d="M768,-756C768,-756 619,-756 619,-756 613,-756 607,-750 607,-744 607,-744 607,-732 607,-732 607,-726 613,-720 619,-720 619,-720 768,-720 768,-720 774,-720 780,-726 780,-732 780,-732 780,-744 780,-744 780,-750 774,-756 768,-756"/>
<text text-anchor="middle" x="693.5" y="-735.5" font-family="sans" font-size="10.00">check_adequate_variant_counts</text>
</g>
<!-- 9&#45;&gt;0 -->
<g id="edge2" class="edge">
<title>9&#45;&gt;0</title>
<path fill="none" stroke="grey" stroke-width="2" d="M657.33,-719.79C511.49,-648.25 -16.09,-367.78 184.5,-144 259.95,-59.83 1098.61,-26.63 1287.06,-20.2"/>
<polygon fill="grey" stroke="grey" stroke-width="2" points="1287.41,-23.69 1297.29,-19.86 1287.18,-16.7 1287.41,-23.69"/>
</g>
<!-- 9&#45;&gt;14 -->
<g id="edge29" class="edge">
<title>9&#45;&gt;14</title>
<path fill="none" stroke="grey" stroke-width="2" d="M719.43,-719.88C733.16,-710.81 750.21,-699.55 765.04,-689.76"/>
<polygon fill="grey" stroke="grey" stroke-width="2" points="767.05,-692.62 773.47,-684.19 763.2,-686.78 767.05,-692.62"/>
</g>
<!-- 9&#45;&gt;16 -->
<g id="edge36" class="edge">
<title>9&#45;&gt;16</title>
<path fill="none" stroke="grey" stroke-width="2" d="M742.47,-719.99C770.05,-710.4 805.38,-698.08 844.89,-684.21"/>
<polygon fill="grey" stroke="grey" stroke-width="2" points="846.2,-687.46 854.47,-680.84 843.88,-680.85 846.2,-687.46"/>
</g>
<!-- 10&#45;&gt;9 -->
<g id="edge17" class="edge">
<title>10&#45;&gt;9</title>
<path fill="none" stroke="grey" stroke-width="2" d="M533.85,-791.97C563.46,-782.14 600.87,-769.73 632.04,-759.39"/>
<polygon fill="grey" stroke="grey" stroke-width="2" points="633.53,-762.58 641.92,-756.11 631.33,-755.94 633.53,-762.58"/>
</g>
<!-- 10&#45;&gt;17 -->
<g id="edge58" class="edge">
<title>10&#45;&gt;17</title>
<path fill="none" stroke="grey" stroke-width="2" d="M458.43,-791.78C398,-746.85 240.74,-619.04 184.5,-468 159.38,-400.53 134.78,-196.08 184.5,-144 222.67,-104.01 1061.11,-93.46 1275.12,-91.42"/>
<polygon fill="grey" stroke="grey" stroke-width="2" points="1275.45,-94.91 1285.42,-91.32 1275.39,-87.91 1275.45,-94.91"/>
</g>
<!-- 10&#45;&gt;23 -->
<g id="edge74" class="edge">
<title>10&#45;&gt;23</title>
<path fill="none" stroke="grey" stroke-width="2" d="M504.61,-791.75C565.64,-743.68 740.39,-602.83 868.5,-468 910.76,-423.52 913.85,-405.96 954.5,-360 963.04,-350.34 972.84,-340.15 981.62,-331.3"/>
<polygon fill="grey" stroke="grey" stroke-width="2" points="984.1,-333.77 988.7,-324.23 979.15,-328.82 984.1,-333.77"/>
</g>
<!-- 10&#45;&gt;25 -->
<g id="edge89" class="edge">
<title>10&#45;&gt;25</title>
<path fill="none" stroke="grey" stroke-width="2" d="M470.9,-791.93C454.49,-766.09 426.5,-714.97 426.5,-667 426.5,-667 426.5,-667 426.5,-449 426.5,-408.55 417.68,-389.36 445.5,-360 487.62,-315.54 525.51,-354.69 578.5,-324 593.19,-315.5 673.03,-226.32 686.5,-216 701.42,-204.56 719.05,-193.83 734.87,-185.05"/>
<polygon fill="grey" stroke="grey" stroke-width="2" points="736.83,-187.97 743.94,-180.12 733.48,-181.82 736.83,-187.97"/>
</g>
<!-- 11&#45;&gt;0 -->
<g id="edge5" class="edge">
<title>11&#45;&gt;0</title>
<path fill="none" stroke="grey" stroke-width="2" d="M1517.64,-442.22C1593.94,-429.98 1714.5,-396.47 1714.5,-307 1714.5,-307 1714.5,-307 1714.5,-161 1714.5,-86.35 1459.02,-39.52 1361.61,-24.37"/>
<polygon fill="grey" stroke="grey" stroke-width="2" points="1362.03,-20.9 1351.61,-22.85 1360.97,-27.82 1362.03,-20.9"/>
</g>
<!-- 11&#45;&gt;17 -->
<g id="edge43" class="edge">
<title>11&#45;&gt;17</title>
<path fill="none" stroke="grey" stroke-width="2" d="M1474.09,-431.76C1483.14,-422.01 1493.68,-409.17 1500.5,-396 1519.35,-359.63 1524.5,-347.97 1524.5,-307 1524.5,-307 1524.5,-307 1524.5,-233 1524.5,-192.03 1529.04,-173.39 1500.5,-144 1467.37,-109.89 1413.17,-97.53 1373.65,-93.16"/>
<polygon fill="grey" stroke="grey" stroke-width="2" points="1373.99,-89.68 1363.69,-92.19 1373.31,-96.64 1373.99,-89.68"/>
</g>
<!-- 21 -->
<g id="node22" class="node">
<title>21</title>
<path fill="none" stroke="#56d8b1" stroke-width="2" d="M1446.5,-396C1446.5,-396 1372.5,-396 1372.5,-396 1366.5,-396 1360.5,-390 1360.5,-384 1360.5,-384 1360.5,-372 1360.5,-372 1360.5,-366 1366.5,-360 1372.5,-360 1372.5,-360 1446.5,-360 1446.5,-360 1452.5,-360 1458.5,-366 1458.5,-372 1458.5,-372 1458.5,-384 1458.5,-384 1458.5,-390 1452.5,-396 1446.5,-396"/>
<text text-anchor="middle" x="1409.5" y="-375.5" font-family="sans" font-size="10.00">validation_IC50s</text>
</g>
<!-- 11&#45;&gt;21 -->
<g id="edge63" class="edge">
<title>11&#45;&gt;21</title>
<path fill="none" stroke="grey" stroke-width="2" d="M1444.88,-431.7C1439.36,-423.47 1432.65,-413.48 1426.57,-404.42"/>
<polygon fill="grey" stroke="grey" stroke-width="2" points="1429.46,-402.46 1420.98,-396.1 1423.65,-406.36 1429.46,-402.46"/>
</g>
<!-- 11&#45;&gt;23 -->
<g id="edge69" class="edge">
<title>11&#45;&gt;23</title>
<path fill="none" stroke="grey" stroke-width="2" d="M1395.29,-447.98C1329.57,-444.81 1223.45,-433.64 1140.5,-396 1117.49,-385.56 1117.22,-374.45 1096.5,-360 1080.83,-349.07 1062.82,-338.17 1047.05,-329.11"/>
<polygon fill="grey" stroke="grey" stroke-width="2" points="1048.48,-325.9 1038.06,-324.01 1045.03,-331.99 1048.48,-325.9"/>
</g>
<!-- 11&#45;&gt;25 -->
<g id="edge94" class="edge">
<title>11&#45;&gt;25</title>
<path fill="none" stroke="grey" stroke-width="2" d="M1412.25,-431.97C1392.43,-423.06 1369.53,-410.89 1351.5,-396 1273.57,-331.63 1300.35,-265.99 1212.5,-216 1147.02,-178.74 922.11,-167.39 824.41,-164.18"/>
<polygon fill="grey" stroke="grey" stroke-width="2" points="824.36,-160.68 814.26,-163.86 824.14,-167.67 824.36,-160.68"/>
</g>
<!-- 12 -->
<g id="node13" class="node">
<title>12</title>
<path fill="none" stroke="#d8c356" stroke-width="2" d="M1223.5,-540C1223.5,-540 1155.5,-540 1155.5,-540 1149.5,-540 1143.5,-534 1143.5,-528 1143.5,-528 1143.5,-516 1143.5,-516 1143.5,-510 1149.5,-504 1155.5,-504 1155.5,-504 1223.5,-504 1223.5,-504 1229.5,-504 1235.5,-510 1235.5,-516 1235.5,-516 1235.5,-528 1235.5,-528 1235.5,-534 1229.5,-540 1223.5,-540"/>
<text text-anchor="middle" x="1189.5" y="-519.5" font-family="sans" font-size="10.00">avg_muteffects</text>
</g>
<!-- 12&#45;&gt;0 -->
<g id="edge1" class="edge">
<title>12&#45;&gt;0</title>
<path fill="none" stroke="grey" stroke-width="2" d="M1235.56,-506.13C1238.57,-505.35 1241.57,-504.63 1244.5,-504 1358.12,-479.38 1752.5,-495.26 1752.5,-379 1752.5,-379 1752.5,-379 1752.5,-161 1752.5,-97.42 1698.59,-97.86 1640.5,-72 1546.3,-30.06 1422.83,-21.07 1361.88,-19.3"/>
<polygon fill="grey" stroke="grey" stroke-width="2" points="1361.67,-15.79 1351.59,-19.05 1361.51,-22.79 1361.67,-15.79"/>
</g>
<!-- 12&#45;&gt;11 -->
<g id="edge24" class="edge">
<title>12&#45;&gt;11</title>
<path fill="none" stroke="grey" stroke-width="2" d="M1235.66,-506.53C1238.65,-505.66 1241.61,-504.81 1244.5,-504 1291.25,-490.94 1344.23,-477.7 1385.53,-467.71"/>
<polygon fill="grey" stroke="grey" stroke-width="2" points="1386.6,-471.06 1395.5,-465.31 1384.96,-464.25 1386.6,-471.06"/>
</g>
<!-- 12&#45;&gt;17 -->
<g id="edge44" class="edge">
<title>12&#45;&gt;17</title>
<path fill="none" stroke="grey" stroke-width="2" d="M1227.24,-503.87C1266.87,-485.9 1331.02,-456.86 1386.5,-432 1422.45,-415.89 1442.68,-426.6 1467.5,-396 1492.98,-364.59 1486.5,-347.45 1486.5,-307 1486.5,-307 1486.5,-307 1486.5,-233 1486.5,-171.99 1420.72,-131.08 1373,-109.42"/>
<polygon fill="grey" stroke="grey" stroke-width="2" points="1374.28,-106.16 1363.72,-105.34 1371.46,-112.57 1374.28,-106.16"/>
</g>
<!-- 18 -->
<g id="node19" class="node">
<title>18</title>
<path fill="none" stroke="#c6d856" stroke-width="2" d="M1254,-396C1254,-396 1161,-396 1161,-396 1155,-396 1149,-390 1149,-384 1149,-384 1149,-372 1149,-372 1149,-366 1155,-360 1161,-360 1161,-360 1254,-360 1254,-360 1260,-360 1266,-366 1266,-372 1266,-372 1266,-384 1266,-384 1266,-390 1260,-396 1254,-396"/>
<text text-anchor="middle" x="1207.5" y="-375.5" font-family="sans" font-size="10.00">compare_muteffects</text>
</g>
<!-- 12&#45;&gt;18 -->
<g id="edge60" class="edge">
<title>12&#45;&gt;18</title>
<path fill="none" stroke="grey" stroke-width="2" d="M1191.67,-503.87C1194.74,-479.67 1200.37,-435.21 1204.03,-406.39"/>
<polygon fill="grey" stroke="grey" stroke-width="2" points="1207.54,-406.55 1205.32,-396.19 1200.59,-405.67 1207.54,-406.55"/>
</g>
<!-- 12&#45;&gt;23 -->
<g id="edge67" class="edge">
<title>12&#45;&gt;23</title>
<path fill="none" stroke="grey" stroke-width="2" d="M1155.5,-503.91C1139.42,-494.74 1120.68,-482.35 1106.5,-468 1066.31,-427.3 1034.59,-367.64 1018.37,-333.53"/>
<polygon fill="grey" stroke="grey" stroke-width="2" points="1021.43,-331.8 1014.03,-324.22 1015.08,-334.76 1021.43,-331.8"/>
</g>
<!-- 12&#45;&gt;25 -->
<g id="edge79" class="edge">
<title>12&#45;&gt;25</title>
<path fill="none" stroke="grey" stroke-width="2" d="M1143.31,-504.56C1121.14,-495.54 1094.82,-483.1 1073.5,-468 946.52,-378.09 938.98,-327.53 830.5,-216 821.37,-206.62 811.3,-196.34 802.47,-187.35"/>
<polygon fill="grey" stroke="grey" stroke-width="2" points="804.91,-184.83 795.4,-180.15 799.91,-189.73 804.91,-184.83"/>
</g>
<!-- 13&#45;&gt;12 -->
<g id="edge26" class="edge">
<title>13&#45;&gt;12</title>
<path fill="none" stroke="grey" stroke-width="2" d="M1122.5,-575.7C1133.71,-566.88 1147.5,-556.03 1159.65,-546.47"/>
<polygon fill="grey" stroke="grey" stroke-width="2" points="1162.06,-549.04 1167.75,-540.1 1157.73,-543.54 1162.06,-549.04"/>
</g>
<!-- 13&#45;&gt;17 -->
<g id="edge59" class="edge">
<title>13&#45;&gt;17</title>
<path fill="none" stroke="grey" stroke-width="2" d="M1153.36,-586.6C1203.79,-579.32 1281.23,-565.06 1344.5,-540 1373.41,-528.55 1375.71,-515.77 1404.5,-504 1467.96,-478.06 1500.53,-510.29 1554.5,-468 1589.55,-440.54 1600.5,-423.53 1600.5,-379 1600.5,-379 1600.5,-379 1600.5,-233 1600.5,-188.06 1588.21,-171.28 1552.5,-144 1500.49,-104.27 1423.69,-93.55 1373.87,-91.07"/>
<polygon fill="grey" stroke="grey" stroke-width="2" points="1373.8,-87.56 1363.67,-90.66 1373.52,-94.56 1373.8,-87.56"/>
</g>
<!-- 13&#45;&gt;23 -->
<g id="edge75" class="edge">
<title>13&#45;&gt;23</title>
<path fill="none" stroke="grey" stroke-width="2" d="M1093.51,-575.82C1079.84,-541.86 1049.13,-463.56 1028.5,-396 1022.26,-375.58 1016.52,-352.12 1012.47,-334.41"/>
<polygon fill="grey" stroke="grey" stroke-width="2" points="1015.78,-333.2 1010.17,-324.21 1008.95,-334.74 1015.78,-333.2"/>
</g>
<!-- 13&#45;&gt;25 -->
<g id="edge92" class="edge">
<title>13&#45;&gt;25</title>
<path fill="none" stroke="grey" stroke-width="2" d="M1047.69,-583.17C956.34,-562.79 778.5,-506.7 778.5,-379 778.5,-379 778.5,-379 778.5,-305 778.5,-265 778.5,-218.65 778.5,-190.08"/>
<polygon fill="grey" stroke="grey" stroke-width="2" points="782,-190.05 778.5,-180.05 775,-190.05 782,-190.05"/>
</g>
<!-- 14&#45;&gt;13 -->
<g id="edge27" class="edge">
<title>14&#45;&gt;13</title>
<path fill="none" stroke="grey" stroke-width="2" d="M836.75,-650.7C839.69,-649.74 842.64,-648.82 845.5,-648 910.08,-629.47 985.61,-614.59 1037.61,-605.37"/>
<polygon fill="grey" stroke="grey" stroke-width="2" points="1038.44,-608.78 1047.69,-603.6 1037.23,-601.89 1038.44,-608.78"/>
</g>
<!-- 19 -->
<g id="node20" class="node">
<title>19</title>
<path fill="none" stroke="#56a2d8" stroke-width="2" d="M560.5,-396C560.5,-396 466.5,-396 466.5,-396 460.5,-396 454.5,-390 454.5,-384 454.5,-384 454.5,-372 454.5,-372 454.5,-366 460.5,-360 466.5,-360 466.5,-360 560.5,-360 560.5,-360 566.5,-360 572.5,-366 572.5,-372 572.5,-372 572.5,-384 572.5,-384 572.5,-390 566.5,-396 560.5,-396"/>
<text text-anchor="middle" x="513.5" y="-375.5" font-family="sans" font-size="10.00">analyze_func_scores</text>
</g>
<!-- 14&#45;&gt;19 -->
<g id="edge61" class="edge">
<title>14&#45;&gt;19</title>
<path fill="none" stroke="grey" stroke-width="2" d="M782.47,-647.97C733.9,-599.4 594.6,-460.1 537.92,-403.42"/>
<polygon fill="grey" stroke="grey" stroke-width="2" points="540.35,-400.9 530.81,-396.31 535.4,-405.85 540.35,-400.9"/>
</g>
<!-- 15&#45;&gt;11 -->
<g id="edge23" class="edge">
<title>15&#45;&gt;11</title>
<path fill="none" stroke="grey" stroke-width="2" d="M1334.13,-503.88C1356.28,-494.31 1384.06,-482.3 1407.56,-472.15"/>
<polygon fill="grey" stroke="grey" stroke-width="2" points="1409.21,-475.25 1417,-468.07 1406.43,-468.82 1409.21,-475.25"/>
</g>
<!-- 15&#45;&gt;17 -->
<g id="edge51" class="edge">
<title>15&#45;&gt;17</title>
<path fill="none" stroke="grey" stroke-width="2" d="M1335.6,-511.22C1345.7,-508.83 1356.49,-506.31 1366.5,-504 1437.53,-487.63 1470.93,-515.17 1526.5,-468 1559.03,-440.39 1562.5,-421.67 1562.5,-379 1562.5,-379 1562.5,-379 1562.5,-233 1562.5,-189.99 1557.03,-172.14 1524.5,-144 1482.5,-107.67 1418.28,-95.89 1374,-92.26"/>
<polygon fill="grey" stroke="grey" stroke-width="2" points="1373.98,-88.75 1363.76,-91.53 1373.49,-95.73 1373.98,-88.75"/>
</g>
<!-- 15&#45;&gt;23 -->
<g id="edge65" class="edge">
<title>15&#45;&gt;23</title>
<path fill="none" stroke="grey" stroke-width="2" d="M1262.92,-503.9C1222.63,-481.46 1151.56,-439.75 1096.5,-396 1071.66,-376.26 1046.21,-350.48 1028.74,-331.75"/>
<polygon fill="grey" stroke="grey" stroke-width="2" points="1031.12,-329.17 1021.77,-324.19 1025.98,-333.91 1031.12,-329.17"/>
</g>
<!-- 15&#45;&gt;25 -->
<g id="edge77" class="edge">
<title>15&#45;&gt;25</title>
<path fill="none" stroke="grey" stroke-width="2" d="M1297.46,-503.84C1301.94,-472.18 1306.86,-403.83 1275.5,-360 1189.21,-239.39 1113.54,-267.57 974.5,-216 924.08,-197.3 864.14,-182.06 823.94,-172.81"/>
<polygon fill="grey" stroke="grey" stroke-width="2" points="824.69,-169.39 814.16,-170.58 823.13,-176.21 824.69,-169.39"/>
</g>
<!-- 16&#45;&gt;15 -->
<g id="edge35" class="edge">
<title>16&#45;&gt;15</title>
<path fill="none" stroke="grey" stroke-width="2" d="M932.77,-662.17C986.45,-657.22 1084.92,-644.24 1162.5,-612 1201.48,-595.8 1240.94,-567.25 1266.42,-546.85"/>
<polygon fill="grey" stroke="grey" stroke-width="2" points="1268.96,-549.3 1274.51,-540.28 1264.54,-543.87 1268.96,-549.3"/>
</g>
<!-- 20 -->
<g id="node21" class="node">
<title>20</title>
<path fill="none" stroke="#56d8c9" stroke-width="2" d="M700.5,-396C700.5,-396 602.5,-396 602.5,-396 596.5,-396 590.5,-390 590.5,-384 590.5,-384 590.5,-372 590.5,-372 590.5,-366 596.5,-360 602.5,-360 602.5,-360 700.5,-360 700.5,-360 706.5,-360 712.5,-366 712.5,-372 712.5,-372 712.5,-384 712.5,-384 712.5,-390 706.5,-396 700.5,-396"/>
<text text-anchor="middle" x="651.5" y="-375.5" font-family="sans" font-size="10.00">analyze_prob_escape</text>
</g>
<!-- 16&#45;&gt;20 -->
<g id="edge62" class="edge">
<title>16&#45;&gt;20</title>
<path fill="none" stroke="grey" stroke-width="2" d="M879.09,-647.97C838.16,-599.6 721.08,-461.23 672.76,-404.12"/>
<polygon fill="grey" stroke="grey" stroke-width="2" points="675.28,-401.68 666.14,-396.31 669.93,-406.2 675.28,-401.68"/>
</g>
<!-- 17&#45;&gt;0 -->
<g id="edge3" class="edge">
<title>17&#45;&gt;0</title>
<path fill="none" stroke="grey" stroke-width="2" d="M1324.5,-71.7C1324.5,-63.98 1324.5,-54.71 1324.5,-46.11"/>
<polygon fill="grey" stroke="grey" stroke-width="2" points="1328,-46.1 1324.5,-36.1 1321,-46.1 1328,-46.1"/>
</g>
<!-- 18&#45;&gt;17 -->
<g id="edge46" class="edge">
<title>18&#45;&gt;17</title>
<path fill="none" stroke="grey" stroke-width="2" d="M1215,-359.83C1219.51,-349.46 1225.36,-335.98 1230.5,-324 1257.89,-260.12 1265.86,-244.6 1291.5,-180 1299.73,-159.26 1308.49,-135.56 1314.91,-117.83"/>
<polygon fill="grey" stroke="grey" stroke-width="2" points="1318.3,-118.74 1318.4,-108.15 1311.72,-116.37 1318.3,-118.74"/>
</g>
<!-- 18&#45;&gt;23 -->
<g id="edge70" class="edge">
<title>18&#45;&gt;23</title>
<path fill="none" stroke="grey" stroke-width="2" d="M1158.59,-359.97C1127.44,-349.12 1087.24,-335.12 1055.98,-324.23"/>
<polygon fill="grey" stroke="grey" stroke-width="2" points="1056.77,-320.8 1046.17,-320.82 1054.47,-327.41 1056.77,-320.8"/>
</g>
<!-- 18&#45;&gt;25 -->
<g id="edge81" class="edge">
<title>18&#45;&gt;25</title>
<path fill="none" stroke="grey" stroke-width="2" d="M1211.5,-359.82C1218.05,-326.89 1226.8,-254.72 1188.5,-216 1138.52,-165.46 920.43,-161.4 824.3,-162.15"/>
<polygon fill="grey" stroke="grey" stroke-width="2" points="823.98,-158.65 814.02,-162.25 824.05,-165.65 823.98,-158.65"/>
</g>
<!-- 19&#45;&gt;17 -->
<g id="edge56" class="edge">
<title>19&#45;&gt;17</title>
<path fill="none" stroke="grey" stroke-width="2" d="M454.45,-365.83C396.6,-351.18 312.83,-318.98 282.5,-252 261.12,-204.78 281.98,-170.54 326.5,-144 408.36,-95.19 1084.88,-91.12 1274.98,-90.95"/>
<polygon fill="grey" stroke="grey" stroke-width="2" points="1275.24,-94.45 1285.24,-90.94 1275.24,-87.45 1275.24,-94.45"/>
</g>
<!-- 19&#45;&gt;23 -->
<g id="edge73" class="edge">
<title>19&#45;&gt;23</title>
<path fill="none" stroke="grey" stroke-width="2" d="M572.75,-361.74C575.7,-361.12 578.63,-360.54 581.5,-360 716.16,-334.87 877.11,-318.46 956.77,-311.24"/>
<polygon fill="grey" stroke="grey" stroke-width="2" points="957.35,-314.7 967,-310.32 956.72,-307.73 957.35,-314.7"/>
</g>
<!-- 19&#45;&gt;25 -->
<g id="edge86" class="edge">
<title>19&#45;&gt;25</title>
<path fill="none" stroke="grey" stroke-width="2" d="M553.84,-359.87C573.59,-350.6 597.2,-338.15 616.5,-324 670.99,-284.05 675.39,-263.45 723.5,-216 733.09,-206.54 743.73,-196.25 753.07,-187.27"/>
<polygon fill="grey" stroke="grey" stroke-width="2" points="755.77,-189.53 760.56,-180.08 750.92,-184.48 755.77,-189.53"/>
</g>
<!-- 20&#45;&gt;17 -->
<g id="edge53" class="edge">
<title>20&#45;&gt;17</title>
<path fill="none" stroke="grey" stroke-width="2" d="M590.6,-359.9C493.15,-331.93 311.27,-277.03 293.5,-252 284.24,-238.95 283.91,-228.81 293.5,-216 361.5,-125.14 426.77,-163.94 538.5,-144 813.57,-94.92 1150.18,-90.42 1274.93,-90.61"/>
<polygon fill="grey" stroke="grey" stroke-width="2" points="1275.28,-94.11 1285.29,-90.63 1275.3,-87.11 1275.28,-94.11"/>
</g>
<!-- 20&#45;&gt;23 -->
<g id="edge72" class="edge">
<title>20&#45;&gt;23</title>
<path fill="none" stroke="grey" stroke-width="2" d="M712.86,-362.9C717.47,-361.9 722.06,-360.92 726.5,-360 806.98,-343.27 900.95,-325.93 956.99,-315.82"/>
<polygon fill="grey" stroke="grey" stroke-width="2" points="957.78,-319.23 967,-314.02 956.54,-312.34 957.78,-319.23"/>
</g>
<!-- 20&#45;&gt;25 -->
<g id="edge85" class="edge">
<title>20&#45;&gt;25</title>
<path fill="none" stroke="grey" stroke-width="2" d="M662.73,-359.94C669.45,-349.61 678.11,-336.14 685.5,-324 714.23,-276.83 746.1,-220.79 764.08,-188.81"/>
<polygon fill="grey" stroke="grey" stroke-width="2" points="767.14,-190.51 768.98,-180.07 761.04,-187.08 767.14,-190.51"/>
</g>
<!-- 21&#45;&gt;17 -->
<g id="edge52" class="edge">
<title>21&#45;&gt;17</title>
<path fill="none" stroke="grey" stroke-width="2" d="M1410.6,-359.85C1412.45,-319.79 1412.92,-217.83 1376.5,-144 1371.16,-133.18 1362.78,-123.19 1354.29,-114.87"/>
<polygon fill="grey" stroke="grey" stroke-width="2" points="1356.59,-112.23 1346.87,-108 1351.83,-117.36 1356.59,-112.23"/>
</g>
<!-- 21&#45;&gt;23 -->
<g id="edge71" class="edge">
<title>21&#45;&gt;23</title>
<path fill="none" stroke="grey" stroke-width="2" d="M1360.49,-368.49C1283.2,-355.06 1133.82,-329.12 1056.14,-315.62"/>
<polygon fill="grey" stroke="grey" stroke-width="2" points="1056.58,-312.15 1046.13,-313.88 1055.38,-319.04 1056.58,-312.15"/>
</g>
<!-- 21&#45;&gt;25 -->
<g id="edge82" class="edge">
<title>21&#45;&gt;25</title>
<path fill="none" stroke="grey" stroke-width="2" d="M1399.8,-359.89C1379.41,-325.73 1328.47,-249.51 1262.5,-216 1186.46,-177.38 929.6,-166.71 824.2,-163.93"/>
<polygon fill="grey" stroke="grey" stroke-width="2" points="824.28,-160.43 814.19,-163.68 824.1,-167.43 824.28,-160.43"/>
</g>
<!-- 22 -->
<g id="node23" class="node">
<title>22</title>
<path fill="none" stroke="#d88d56" stroke-width="2" d="M1167,-252C1167,-252 1130,-252 1130,-252 1124,-252 1118,-246 1118,-240 1118,-240 1118,-228 1118,-228 1118,-222 1124,-216 1130,-216 1130,-216 1167,-216 1167,-216 1173,-216 1179,-222 1179,-228 1179,-228 1179,-240 1179,-240 1179,-246 1173,-252 1167,-252"/>
<text text-anchor="middle" x="1148.5" y="-231.5" font-family="sans" font-size="10.00">subindex</text>
</g>
<!-- 22&#45;&gt;17 -->
<g id="edge42" class="edge">
<title>22&#45;&gt;17</title>
<path fill="none" stroke="grey" stroke-width="2" d="M1169.73,-215.87C1201.05,-190.6 1259.73,-143.25 1295.15,-114.68"/>
<polygon fill="grey" stroke="grey" stroke-width="2" points="1297.61,-117.19 1303.19,-108.19 1293.21,-111.74 1297.61,-117.19"/>
</g>
<!-- 22&#45;&gt;25 -->
<g id="edge84" class="edge">
<title>22&#45;&gt;25</title>
<path fill="none" stroke="grey" stroke-width="2" d="M1117.78,-220.47C1113.05,-218.81 1108.18,-217.25 1103.5,-216 1005.67,-189.83 887.62,-174.5 824.17,-167.54"/>
<polygon fill="grey" stroke="grey" stroke-width="2" points="824.41,-164.04 814.1,-166.45 823.66,-171 824.41,-164.04"/>
</g>
<!-- 23&#45;&gt;17 -->
<g id="edge47" class="edge">
<title>23&#45;&gt;17</title>
<path fill="none" stroke="grey" stroke-width="2" d="M1046.13,-300.13C1084.94,-293.9 1144.49,-280.31 1188.5,-252 1243.16,-216.84 1287.44,-152.96 1309.43,-117.14"/>
<polygon fill="grey" stroke="grey" stroke-width="2" points="1312.63,-118.63 1314.79,-108.25 1306.63,-115.02 1312.63,-118.63"/>
</g>
<!-- 23&#45;&gt;22 -->
<g id="edge64" class="edge">
<title>23&#45;&gt;22</title>
<path fill="none" stroke="grey" stroke-width="2" d="M1041.24,-287.88C1061.69,-277.79 1087.64,-265 1108.89,-254.53"/>
<polygon fill="grey" stroke="grey" stroke-width="2" points="1110.56,-257.61 1117.98,-250.05 1107.46,-251.33 1110.56,-257.61"/>
</g>
<!-- 23&#45;&gt;25 -->
<g id="edge90" class="edge">
<title>23&#45;&gt;25</title>
<path fill="none" stroke="grey" stroke-width="2" d="M998.76,-287.7C988.93,-267.63 970.11,-234.9 944.5,-216 908.94,-189.76 859.91,-176.21 824.36,-169.41"/>
<polygon fill="grey" stroke="grey" stroke-width="2" points="824.72,-165.92 814.26,-167.59 823.48,-172.81 824.72,-165.92"/>
</g>
<!-- 24 -->
<g id="node25" class="node">
<title>24</title>
<path fill="none" stroke="#8fd856" stroke-width="2" d="M372.5,-252C372.5,-252 314.5,-252 314.5,-252 308.5,-252 302.5,-246 302.5,-240 302.5,-240 302.5,-228 302.5,-228 302.5,-222 308.5,-216 314.5,-216 314.5,-216 372.5,-216 372.5,-216 378.5,-216 384.5,-222 384.5,-228 384.5,-228 384.5,-240 384.5,-240 384.5,-246 378.5,-252 372.5,-252"/>
<text text-anchor="middle" x="343.5" y="-231.5" font-family="sans" font-size="10.00">make_graphs</text>
</g>
<!-- 24&#45;&gt;17 -->
<g id="edge48" class="edge">
<title>24&#45;&gt;17</title>
<path fill="none" stroke="grey" stroke-width="2" d="M384.53,-219.88C389.23,-218.51 393.96,-217.19 398.5,-216 546.27,-177.41 583.5,-166.87 734.5,-144 933.62,-113.84 1173.33,-98.81 1275.03,-93.41"/>
<polygon fill="grey" stroke="grey" stroke-width="2" points="1275.49,-96.89 1285.3,-92.87 1275.13,-89.9 1275.49,-96.89"/>
</g>
<!-- 24&#45;&gt;25 -->
<g id="edge91" class="edge">
<title>24&#45;&gt;25</title>
<path fill="none" stroke="grey" stroke-width="2" d="M384.75,-219.47C389.36,-218.19 394.01,-217 398.5,-216 517.64,-189.46 660.91,-173.76 732.73,-166.98"/>
<polygon fill="grey" stroke="grey" stroke-width="2" points="733.16,-170.45 742.8,-166.04 732.51,-163.48 733.16,-170.45"/>
</g>
<!-- 25&#45;&gt;17 -->
<g id="edge50" class="edge">
<title>25&#45;&gt;17</title>
<path fill="none" stroke="grey" stroke-width="2" d="M814.32,-156.41C909.13,-144.25 1166.73,-111.23 1275.25,-97.31"/>
<polygon fill="grey" stroke="grey" stroke-width="2" points="1275.8,-100.77 1285.27,-96.03 1274.91,-93.83 1275.8,-100.77"/>
</g>
</g>
</svg>
